M48
; DRILL file {KiCad 5.1.6-c6e7f7d~87~ubuntu20.04.1} date Mon Sep 28 11:49:18 2020
; FORMAT={-:-/ absolute / metric / decimal}
; #@! TF.CreationDate,2020-09-28T11:49:18+02:00
; #@! TF.GenerationSoftware,Kicad,Pcbnew,5.1.6-c6e7f7d~87~ubuntu20.04.1
; #@! TF.FileFunction,Plated,1,2,PTH
FMAT,2
METRIC
T1C0.500
T2C0.800
T3C1.000
T4C1.100
T5C1.300
T6C2.000
T7C2.200
T8C3.000
T9C3.500
T10C4.000
%
G90
G05
T1
X111.912Y-37.048
X112.0Y-77.0
T2
X100.0Y-37.0
X107.62Y-37.0
X100.0Y-77.0
X107.62Y-77.0
T3
X119.0Y-37.5
X124.0Y-37.5
X68.0Y-62.487
X68.0Y-69.987
X119.5Y-76.0
X124.5Y-76.0
X76.0Y-67.0
X81.0Y-67.0
T4
X87.5Y-37.0
X92.58Y-37.0
T5
X86.5Y-71.0
X96.5Y-66.0
X96.5Y-76.0
X73.5Y-74.5
X81.0Y-72.0
X81.0Y-77.0
T6
X111.0Y-45.5
X111.0Y-68.5
T7
X157.0Y-37.0
X56.0Y-37.0
X56.0Y-77.0
X157.0Y-77.0
X75.5Y-57.0
X141.0Y-57.0
T8
X155.5Y-57.0
X56.5Y-57.0
T9
X155.5Y-44.5
X155.5Y-69.5
X56.5Y-44.5
X56.5Y-69.5
T10
X91.5Y-71.0
X78.5Y-74.5
T6
G00X111.0Y-58.0
M15
G01X111.0Y-56.0
M16
G05
T0
M30
