%TF.GenerationSoftware,KiCad,Pcbnew,5.1.6-c6e7f7d~87~ubuntu20.04.1*%
%TF.CreationDate,2020-09-30T12:14:49+02:00*%
%TF.ProjectId,SWR bridge,53575220-6272-4696-9467-652e6b696361,rev?*%
%TF.SameCoordinates,Original*%
%TF.FileFunction,Soldermask,Top*%
%TF.FilePolarity,Negative*%
%FSLAX46Y46*%
G04 Gerber Fmt 4.6, Leading zero omitted, Abs format (unit mm)*
G04 Created by KiCad (PCBNEW 5.1.6-c6e7f7d~87~ubuntu20.04.1) date 2020-09-30 12:14:49*
%MOMM*%
%LPD*%
G01*
G04 APERTURE LIST*
%ADD10C,0.100000*%
%ADD11C,3.900000*%
%ADD12C,2.100000*%
%ADD13C,4.100000*%
%ADD14R,1.700000X1.700000*%
%ADD15O,1.700000X1.700000*%
%ADD16R,7.100000X4.100000*%
%ADD17R,7.100000X5.100000*%
%ADD18C,3.600000*%
%ADD19O,3.600000X6.100000*%
%ADD20R,0.950000X0.950000*%
%ADD21R,2.100000X2.100000*%
%ADD22O,2.100000X2.100000*%
%ADD23O,1.500000X1.500000*%
%ADD24C,1.500000*%
G04 APERTURE END LIST*
D10*
G36*
X150500000Y-79000000D02*
G01*
X133500000Y-79000000D01*
X133500000Y-67000000D01*
X150500000Y-67000000D01*
X150500000Y-79000000D01*
G37*
X150500000Y-79000000D02*
X133500000Y-79000000D01*
X133500000Y-67000000D01*
X150500000Y-67000000D01*
X150500000Y-79000000D01*
G36*
X150500000Y-47000000D02*
G01*
X133500000Y-47000000D01*
X133500000Y-35000000D01*
X150500000Y-35000000D01*
X150500000Y-47000000D01*
G37*
X150500000Y-47000000D02*
X133500000Y-47000000D01*
X133500000Y-35000000D01*
X150500000Y-35000000D01*
X150500000Y-47000000D01*
G36*
X133500000Y-72000000D02*
G01*
X117000000Y-70500000D01*
X117000000Y-44500000D01*
X133500000Y-42000000D01*
X133500000Y-72000000D01*
G37*
X133500000Y-72000000D02*
X117000000Y-70500000D01*
X117000000Y-44500000D01*
X133500000Y-42000000D01*
X133500000Y-72000000D01*
G36*
X152000000Y-72000000D02*
G01*
X133500000Y-72000000D01*
X117000000Y-67000000D01*
X152000000Y-67000000D01*
X152000000Y-72000000D01*
G37*
X152000000Y-72000000D02*
X133500000Y-72000000D01*
X117000000Y-67000000D01*
X152000000Y-67000000D01*
X152000000Y-72000000D01*
G36*
X152000000Y-47000000D02*
G01*
X117000000Y-47000000D01*
X133500000Y-42000000D01*
X152000000Y-42000000D01*
X152000000Y-47000000D01*
G37*
X152000000Y-47000000D02*
X117000000Y-47000000D01*
X133500000Y-42000000D01*
X152000000Y-42000000D01*
X152000000Y-47000000D01*
G36*
X152000000Y-72000000D02*
G01*
X134000000Y-72000000D01*
X134000000Y-67000000D01*
X152000000Y-67000000D01*
X152000000Y-72000000D01*
G37*
X152000000Y-72000000D02*
X134000000Y-72000000D01*
X134000000Y-67000000D01*
X152000000Y-67000000D01*
X152000000Y-72000000D01*
G36*
X152000000Y-47000000D02*
G01*
X143000000Y-47000000D01*
X143000000Y-42000000D01*
X152000000Y-42000000D01*
X152000000Y-47000000D01*
G37*
X152000000Y-47000000D02*
X143000000Y-47000000D01*
X143000000Y-42000000D01*
X152000000Y-42000000D01*
X152000000Y-47000000D01*
D11*
%TO.C,REF\u002A\u002A*%
X147500000Y-76000000D03*
%TD*%
%TO.C,REF\u002A\u002A*%
X136500000Y-76000000D03*
%TD*%
%TO.C,REF\u002A\u002A*%
X147000000Y-38500000D03*
%TD*%
%TO.C,REF\u002A\u002A*%
X136500000Y-38500000D03*
%TD*%
%TO.C,REF\u002A\u002A*%
X129500000Y-68000000D03*
%TD*%
%TO.C,REF\u002A\u002A*%
X120000000Y-68000000D03*
%TD*%
%TO.C,REF\u002A\u002A*%
X129500000Y-46500000D03*
%TD*%
%TO.C,REF\u002A\u002A*%
X120000000Y-46500000D03*
%TD*%
D12*
%TO.C,C3*%
X120000000Y-40500000D03*
X125000000Y-40500000D03*
%TD*%
%TO.C,C4*%
X119500000Y-74000000D03*
X124500000Y-74000000D03*
%TD*%
%TO.C,R1*%
X86500000Y-71000000D03*
X96500000Y-76000000D03*
X96500000Y-66000000D03*
D13*
X91500000Y-71000000D03*
%TD*%
D12*
%TO.C,C2*%
X81000000Y-72000000D03*
X81000000Y-77000000D03*
X73500000Y-74500000D03*
D13*
X78500000Y-74500000D03*
%TD*%
D12*
%TO.C,C5*%
X81000000Y-67000000D03*
X76000000Y-67000000D03*
%TD*%
D14*
%TO.C,D1*%
X107620000Y-37000000D03*
D15*
X100000000Y-37000000D03*
%TD*%
%TO.C,D2*%
X100000000Y-77000000D03*
D14*
X107620000Y-77000000D03*
%TD*%
D16*
%TO.C,J3*%
X155500000Y-57000000D03*
D17*
X155500000Y-44500000D03*
X155500000Y-69500000D03*
%TD*%
D18*
%TO.C,L2*%
X111000000Y-45500000D03*
X111000000Y-68500000D03*
D19*
X111000000Y-57000000D03*
%TD*%
D11*
%TO.C,J4*%
X75500000Y-57000000D03*
%TD*%
%TO.C,J5*%
X141000000Y-57000000D03*
%TD*%
D12*
%TO.C,C1*%
X68000000Y-62487500D03*
X68000000Y-69987500D03*
%TD*%
D20*
%TO.C,J2*%
X111500000Y-37000000D03*
%TD*%
%TO.C,J6*%
X112000000Y-77000000D03*
%TD*%
D16*
%TO.C,J1*%
X56500000Y-57000000D03*
D17*
X56500000Y-44500000D03*
X56500000Y-69500000D03*
%TD*%
D21*
%TO.C,R2*%
X87500000Y-37500000D03*
D22*
X92580000Y-37500000D03*
%TD*%
D11*
%TO.C,J7*%
X56000000Y-37000000D03*
%TD*%
%TO.C,J8*%
X56000000Y-77000000D03*
%TD*%
%TO.C,J9*%
X157000000Y-37000000D03*
%TD*%
%TO.C,J10*%
X157000000Y-77000000D03*
%TD*%
D23*
%TO.C,R3*%
X116000000Y-37420000D03*
D24*
X116000000Y-42500000D03*
%TD*%
D23*
%TO.C,R4*%
X125080000Y-36000000D03*
D24*
X120000000Y-36000000D03*
%TD*%
%TO.C,R5*%
X116000000Y-71920000D03*
D23*
X116000000Y-77000000D03*
%TD*%
D24*
%TO.C,R6*%
X119420000Y-78500000D03*
D23*
X124500000Y-78500000D03*
%TD*%
M02*
