%FSLAX45Y45*%
G04 Gerber Fmt 4.5, Leading zero omitted, Abs format (unit mm)*
G04 Created by KiCad (PCBNEW 5.1.6-c6e7f7d~87~ubuntu20.04.1) date 2020-10-01 18:15:25*
%MOMM*%
%LPD*%
G01*
G04 APERTURE LIST*
%TA.AperFunction,Profile*%
%ADD10C,0.050000*%
%TD*%
%ADD11C,0.200000*%
%ADD12C,0.300000*%
G04 APERTURE END LIST*
D10*
X16000000Y-3500000D02*
X16000000Y-3400000D01*
X16000000Y-3400000D02*
X15750000Y-3400000D01*
X16000000Y-8000000D02*
X16000000Y-3500000D01*
X5250000Y-8000000D02*
X16000000Y-8000000D01*
X5250000Y-7750000D02*
X5250000Y-8000000D01*
X5250000Y-3400000D02*
X5250000Y-7750000D01*
X15750000Y-3400000D02*
X5250000Y-3400000D01*
D11*
X10375000Y-4725000D02*
X10425000Y-4775000D01*
X10425000Y-4725000D02*
X10375000Y-4775000D01*
X11075000Y-7675000D02*
X11125000Y-7725000D01*
X11125000Y-7675000D02*
X11075000Y-7725000D01*
X11075000Y-3625000D02*
X11125000Y-3675000D01*
X11125000Y-3625000D02*
X11075000Y-3675000D01*
X11977000Y-7800000D02*
G75*
G03*
X11977000Y-7800000I-35000J0D01*
G01*
X12485000Y-7800000D02*
G75*
G03*
X12485000Y-7800000I-35000J0D01*
G01*
X11685000Y-3742000D02*
G75*
G03*
X11685000Y-3742000I-35000J0D01*
G01*
X11685000Y-4250000D02*
G75*
G03*
X11685000Y-4250000I-35000J0D01*
G01*
X11435000Y-3600000D02*
G75*
G03*
X11435000Y-3600000I-35000J0D01*
G01*
X11435000Y-4362000D02*
G75*
G03*
X11435000Y-4362000I-35000J0D01*
G01*
X12035000Y-3600000D02*
G75*
G03*
X12035000Y-3600000I-35000J0D01*
G01*
X12543000Y-3600000D02*
G75*
G03*
X12543000Y-3600000I-35000J0D01*
G01*
X11435000Y-7000000D02*
G75*
G03*
X11435000Y-7000000I-35000J0D01*
G01*
X11435000Y-7762000D02*
G75*
G03*
X11435000Y-7762000I-35000J0D01*
G01*
X11685000Y-7150000D02*
G75*
G03*
X11685000Y-7150000I-35000J0D01*
G01*
X11685000Y-7658000D02*
G75*
G03*
X11685000Y-7658000I-35000J0D01*
G01*
X10000000Y-7660000D02*
X10000000Y-7740000D01*
X9960000Y-7700000D02*
X10040000Y-7700000D01*
X10762000Y-7660000D02*
X10762000Y-7740000D01*
X10722000Y-7700000D02*
X10802000Y-7700000D01*
X10000000Y-3660000D02*
X10000000Y-3740000D01*
X9960000Y-3700000D02*
X10040000Y-3700000D01*
X10762000Y-3660000D02*
X10762000Y-3740000D01*
X10722000Y-3700000D02*
X10802000Y-3700000D01*
X12035356Y-4085356D02*
X12035356Y-4014644D01*
X11964644Y-4014644D01*
X11964644Y-4085356D01*
X12035356Y-4085356D01*
X12535356Y-4085356D02*
X12535356Y-4014644D01*
X12464644Y-4014644D01*
X12464644Y-4085356D01*
X12535356Y-4085356D01*
X11985356Y-7385356D02*
X11985356Y-7314644D01*
X11914644Y-7314644D01*
X11914644Y-7385356D01*
X11985356Y-7385356D01*
X12485356Y-7385356D02*
X12485356Y-7314644D01*
X12414644Y-7314644D01*
X12414644Y-7385356D01*
X12485356Y-7385356D01*
X7635356Y-6735356D02*
X7635356Y-6664644D01*
X7564644Y-6664644D01*
X7564644Y-6735356D01*
X7635356Y-6735356D01*
X8135356Y-6735356D02*
X8135356Y-6664644D01*
X8064644Y-6664644D01*
X8064644Y-6735356D01*
X8135356Y-6735356D01*
X6835356Y-6284106D02*
X6835356Y-6213394D01*
X6764644Y-6213394D01*
X6764644Y-6284106D01*
X6835356Y-6284106D01*
X6835356Y-7034106D02*
X6835356Y-6963394D01*
X6764644Y-6963394D01*
X6764644Y-7034106D01*
X6835356Y-7034106D01*
X8750000Y-3805000D02*
X8805000Y-3750000D01*
X8750000Y-3695000D01*
X8695000Y-3750000D01*
X8750000Y-3805000D01*
X9258000Y-3805000D02*
X9313000Y-3750000D01*
X9258000Y-3695000D01*
X9203000Y-3750000D01*
X9258000Y-3805000D01*
X7285000Y-7385000D02*
X7415000Y-7515000D01*
X7415000Y-7385000D02*
X7285000Y-7515000D01*
X7415000Y-7450000D02*
G75*
G03*
X7415000Y-7450000I-65000J0D01*
G01*
X8035000Y-7135000D02*
X8165000Y-7265000D01*
X8165000Y-7135000D02*
X8035000Y-7265000D01*
X8165000Y-7200000D02*
G75*
G03*
X8165000Y-7200000I-65000J0D01*
G01*
X8035000Y-7635000D02*
X8165000Y-7765000D01*
X8165000Y-7635000D02*
X8035000Y-7765000D01*
X8165000Y-7700000D02*
G75*
G03*
X8165000Y-7700000I-65000J0D01*
G01*
X8585000Y-7035000D02*
X8715000Y-7165000D01*
X8715000Y-7035000D02*
X8585000Y-7165000D01*
X8715000Y-7100000D02*
G75*
G03*
X8715000Y-7100000I-65000J0D01*
G01*
X9585000Y-6535000D02*
X9715000Y-6665000D01*
X9715000Y-6535000D02*
X9585000Y-6665000D01*
X9715000Y-6600000D02*
G75*
G03*
X9715000Y-6600000I-65000J0D01*
G01*
X9585000Y-7535000D02*
X9715000Y-7665000D01*
X9715000Y-7535000D02*
X9585000Y-7665000D01*
X9715000Y-7600000D02*
G75*
G03*
X9715000Y-7600000I-65000J0D01*
G01*
X11000000Y-4450000D02*
X11200000Y-4650000D01*
X11200000Y-4450000D02*
X11000000Y-4650000D01*
X11100000Y-4450000D02*
X11100000Y-4650000D01*
X11000000Y-4550000D02*
X11200000Y-4550000D01*
X11000000Y-5600000D02*
X11200000Y-5800000D01*
X11200000Y-5600000D02*
X11000000Y-5800000D01*
X11100000Y-5600000D02*
X11100000Y-5800000D01*
X11000000Y-5700000D02*
X11200000Y-5700000D01*
X11190000Y-5800000D02*
X11190000Y-5600000D01*
X11010000Y-5800000D02*
X11010000Y-5600000D01*
X11190000Y-5600000D02*
G75*
G03*
X11010000Y-5600000I-90000J0D01*
G01*
X11010000Y-5800000D02*
G75*
G03*
X11190000Y-5800000I90000J0D01*
G01*
X11000000Y-6750000D02*
X11200000Y-6950000D01*
X11200000Y-6750000D02*
X11000000Y-6950000D01*
X11100000Y-6750000D02*
X11100000Y-6950000D01*
X11000000Y-6850000D02*
X11200000Y-6850000D01*
X12940000Y-4590000D02*
X13160000Y-4810000D01*
X13160000Y-4590000D02*
X12940000Y-4810000D01*
X13127782Y-4777783D02*
X13127782Y-4622218D01*
X12972217Y-4622218D01*
X12972217Y-4777783D01*
X13127782Y-4777783D01*
X7440000Y-5590000D02*
X7660000Y-5810000D01*
X7660000Y-5590000D02*
X7440000Y-5810000D01*
X7627782Y-5777782D02*
X7627782Y-5622217D01*
X7472217Y-5622217D01*
X7472217Y-5777782D01*
X7627782Y-5777782D01*
X15590000Y-7590000D02*
X15810000Y-7810000D01*
X15810000Y-7590000D02*
X15590000Y-7810000D01*
X15777782Y-7777782D02*
X15777782Y-7622217D01*
X15622217Y-7622217D01*
X15622217Y-7777782D01*
X15777782Y-7777782D01*
X12940000Y-6590000D02*
X13160000Y-6810000D01*
X13160000Y-6590000D02*
X12940000Y-6810000D01*
X13127782Y-6777782D02*
X13127782Y-6622217D01*
X12972217Y-6622217D01*
X12972217Y-6777782D01*
X13127782Y-6777782D01*
X5490000Y-3590000D02*
X5710000Y-3810000D01*
X5710000Y-3590000D02*
X5490000Y-3810000D01*
X5677782Y-3777782D02*
X5677782Y-3622217D01*
X5522218Y-3622217D01*
X5522218Y-3777782D01*
X5677782Y-3777782D01*
X15590000Y-3590000D02*
X15810000Y-3810000D01*
X15810000Y-3590000D02*
X15590000Y-3810000D01*
X15777782Y-3777782D02*
X15777782Y-3622217D01*
X15622217Y-3622217D01*
X15622217Y-3777782D01*
X15777782Y-3777782D01*
X13490000Y-3640000D02*
X13710000Y-3860000D01*
X13710000Y-3640000D02*
X13490000Y-3860000D01*
X13677782Y-3827782D02*
X13677782Y-3672217D01*
X13522217Y-3672217D01*
X13522217Y-3827782D01*
X13677782Y-3827782D01*
X14690000Y-7540000D02*
X14910000Y-7760000D01*
X14910000Y-7540000D02*
X14690000Y-7760000D01*
X14877782Y-7727782D02*
X14877782Y-7572217D01*
X14722217Y-7572217D01*
X14722217Y-7727782D01*
X14877782Y-7727782D01*
X13990000Y-5590000D02*
X14210000Y-5810000D01*
X14210000Y-5590000D02*
X13990000Y-5810000D01*
X14177782Y-5777782D02*
X14177782Y-5622217D01*
X14022217Y-5622217D01*
X14022217Y-5777782D01*
X14177782Y-5777782D01*
X14690000Y-3640000D02*
X14910000Y-3860000D01*
X14910000Y-3640000D02*
X14690000Y-3860000D01*
X14877782Y-3827782D02*
X14877782Y-3672217D01*
X14722217Y-3672217D01*
X14722217Y-3827782D01*
X14877782Y-3827782D01*
X5490000Y-7590000D02*
X5710000Y-7810000D01*
X5710000Y-7590000D02*
X5490000Y-7810000D01*
X5677782Y-7777782D02*
X5677782Y-7622217D01*
X5522218Y-7622217D01*
X5522218Y-7777782D01*
X5677782Y-7777782D01*
X11890000Y-4590000D02*
X12110000Y-4810000D01*
X12110000Y-4590000D02*
X11890000Y-4810000D01*
X12077782Y-4777783D02*
X12077782Y-4622218D01*
X11922217Y-4622218D01*
X11922217Y-4777783D01*
X12077782Y-4777783D01*
X11840000Y-6590000D02*
X12060000Y-6810000D01*
X12060000Y-6590000D02*
X11840000Y-6810000D01*
X12027782Y-6777782D02*
X12027782Y-6622217D01*
X11872217Y-6622217D01*
X11872217Y-6777782D01*
X12027782Y-6777782D01*
X13490000Y-7540000D02*
X13710000Y-7760000D01*
X13710000Y-7540000D02*
X13490000Y-7760000D01*
X13677782Y-7727782D02*
X13677782Y-7572217D01*
X13522217Y-7572217D01*
X13522217Y-7727782D01*
X13677782Y-7727782D01*
X15400000Y-5550000D02*
X15700000Y-5850000D01*
X15700000Y-5550000D02*
X15400000Y-5850000D01*
X15550000Y-5850000D02*
X15700000Y-5700000D01*
X15550000Y-5550000D01*
X15400000Y-5700000D01*
X15550000Y-5850000D01*
X5500000Y-5550000D02*
X5800000Y-5850000D01*
X5800000Y-5550000D02*
X5500000Y-5850000D01*
X5650000Y-5850000D02*
X5800000Y-5700000D01*
X5650000Y-5550000D01*
X5500000Y-5700000D01*
X5650000Y-5850000D01*
X15550000Y-4275000D02*
X15550000Y-4625000D01*
X15375000Y-4450000D02*
X15725000Y-4450000D01*
X15725000Y-4450000D02*
G75*
G03*
X15725000Y-4450000I-175000J0D01*
G01*
X15550000Y-6775000D02*
X15550000Y-7125000D01*
X15375000Y-6950000D02*
X15725000Y-6950000D01*
X15725000Y-6950000D02*
G75*
G03*
X15725000Y-6950000I-175000J0D01*
G01*
X5650000Y-4275000D02*
X5650000Y-4625000D01*
X5475000Y-4450000D02*
X5825000Y-4450000D01*
X5825000Y-4450000D02*
G75*
G03*
X5825000Y-4450000I-175000J0D01*
G01*
X5650000Y-6775000D02*
X5650000Y-7125000D01*
X5475000Y-6950000D02*
X5825000Y-6950000D01*
X5825000Y-6950000D02*
G75*
G03*
X5825000Y-6950000I-175000J0D01*
G01*
X7991423Y-7591423D02*
X7991423Y-7308577D01*
X7708577Y-7308577D01*
X7708577Y-7591423D01*
X7991423Y-7591423D01*
X8050000Y-7450000D02*
G75*
G03*
X8050000Y-7450000I-200000J0D01*
G01*
X9291423Y-7241423D02*
X9291423Y-6958577D01*
X9008577Y-6958577D01*
X9008577Y-7241423D01*
X9291423Y-7241423D01*
X9350000Y-7100000D02*
G75*
G03*
X9350000Y-7100000I-200000J0D01*
G01*
D12*
X5533928Y-8468214D02*
X5533928Y-8168214D01*
X5605357Y-8168214D01*
X5648214Y-8182500D01*
X5676786Y-8211071D01*
X5691071Y-8239643D01*
X5705357Y-8296786D01*
X5705357Y-8339643D01*
X5691071Y-8396786D01*
X5676786Y-8425357D01*
X5648214Y-8453929D01*
X5605357Y-8468214D01*
X5533928Y-8468214D01*
X5833928Y-8468214D02*
X5833928Y-8268214D01*
X5833928Y-8325357D02*
X5848214Y-8296786D01*
X5862500Y-8282500D01*
X5891071Y-8268214D01*
X5919643Y-8268214D01*
X6019643Y-8468214D02*
X6019643Y-8268214D01*
X6019643Y-8168214D02*
X6005357Y-8182500D01*
X6019643Y-8196786D01*
X6033928Y-8182500D01*
X6019643Y-8168214D01*
X6019643Y-8196786D01*
X6205357Y-8468214D02*
X6176786Y-8453929D01*
X6162500Y-8425357D01*
X6162500Y-8168214D01*
X6362500Y-8468214D02*
X6333928Y-8453929D01*
X6319643Y-8425357D01*
X6319643Y-8168214D01*
X6705357Y-8468214D02*
X6705357Y-8168214D01*
X6805357Y-8382500D01*
X6905357Y-8168214D01*
X6905357Y-8468214D01*
X7176786Y-8468214D02*
X7176786Y-8311071D01*
X7162500Y-8282500D01*
X7133928Y-8268214D01*
X7076786Y-8268214D01*
X7048214Y-8282500D01*
X7176786Y-8453929D02*
X7148214Y-8468214D01*
X7076786Y-8468214D01*
X7048214Y-8453929D01*
X7033928Y-8425357D01*
X7033928Y-8396786D01*
X7048214Y-8368214D01*
X7076786Y-8353929D01*
X7148214Y-8353929D01*
X7176786Y-8339643D01*
X7319643Y-8268214D02*
X7319643Y-8568214D01*
X7319643Y-8282500D02*
X7348214Y-8268214D01*
X7405357Y-8268214D01*
X7433928Y-8282500D01*
X7448214Y-8296786D01*
X7462500Y-8325357D01*
X7462500Y-8411072D01*
X7448214Y-8439643D01*
X7433928Y-8453929D01*
X7405357Y-8468214D01*
X7348214Y-8468214D01*
X7319643Y-8453929D01*
X7591071Y-8439643D02*
X7605357Y-8453929D01*
X7591071Y-8468214D01*
X7576786Y-8453929D01*
X7591071Y-8439643D01*
X7591071Y-8468214D01*
X7591071Y-8282500D02*
X7605357Y-8296786D01*
X7591071Y-8311071D01*
X7576786Y-8296786D01*
X7591071Y-8282500D01*
X7591071Y-8311071D01*
X5197500Y-8937500D02*
X5247500Y-8987500D01*
X5247500Y-8937500D02*
X5197500Y-8987500D01*
X5591071Y-8798214D02*
X5619643Y-8798214D01*
X5648214Y-8812500D01*
X5662500Y-8826786D01*
X5676786Y-8855357D01*
X5691071Y-8912500D01*
X5691071Y-8983929D01*
X5676786Y-9041072D01*
X5662500Y-9069643D01*
X5648214Y-9083929D01*
X5619643Y-9098214D01*
X5591071Y-9098214D01*
X5562500Y-9083929D01*
X5548214Y-9069643D01*
X5533928Y-9041072D01*
X5519643Y-8983929D01*
X5519643Y-8912500D01*
X5533928Y-8855357D01*
X5548214Y-8826786D01*
X5562500Y-8812500D01*
X5591071Y-8798214D01*
X5819643Y-9069643D02*
X5833928Y-9083929D01*
X5819643Y-9098214D01*
X5805357Y-9083929D01*
X5819643Y-9069643D01*
X5819643Y-9098214D01*
X6105357Y-8798214D02*
X5962500Y-8798214D01*
X5948214Y-8941072D01*
X5962500Y-8926786D01*
X5991071Y-8912500D01*
X6062500Y-8912500D01*
X6091071Y-8926786D01*
X6105357Y-8941072D01*
X6119643Y-8969643D01*
X6119643Y-9041072D01*
X6105357Y-9069643D01*
X6091071Y-9083929D01*
X6062500Y-9098214D01*
X5991071Y-9098214D01*
X5962500Y-9083929D01*
X5948214Y-9069643D01*
X6305357Y-8798214D02*
X6333928Y-8798214D01*
X6362500Y-8812500D01*
X6376786Y-8826786D01*
X6391071Y-8855357D01*
X6405357Y-8912500D01*
X6405357Y-8983929D01*
X6391071Y-9041072D01*
X6376786Y-9069643D01*
X6362500Y-9083929D01*
X6333928Y-9098214D01*
X6305357Y-9098214D01*
X6276786Y-9083929D01*
X6262500Y-9069643D01*
X6248214Y-9041072D01*
X6233928Y-8983929D01*
X6233928Y-8912500D01*
X6248214Y-8855357D01*
X6262500Y-8826786D01*
X6276786Y-8812500D01*
X6305357Y-8798214D01*
X6533928Y-9098214D02*
X6533928Y-8898214D01*
X6533928Y-8926786D02*
X6548214Y-8912500D01*
X6576786Y-8898214D01*
X6619643Y-8898214D01*
X6648214Y-8912500D01*
X6662500Y-8941072D01*
X6662500Y-9098214D01*
X6662500Y-8941072D02*
X6676786Y-8912500D01*
X6705357Y-8898214D01*
X6748214Y-8898214D01*
X6776786Y-8912500D01*
X6791071Y-8941072D01*
X6791071Y-9098214D01*
X6933928Y-9098214D02*
X6933928Y-8898214D01*
X6933928Y-8926786D02*
X6948214Y-8912500D01*
X6976786Y-8898214D01*
X7019643Y-8898214D01*
X7048214Y-8912500D01*
X7062500Y-8941072D01*
X7062500Y-9098214D01*
X7062500Y-8941072D02*
X7076786Y-8912500D01*
X7105357Y-8898214D01*
X7148214Y-8898214D01*
X7176786Y-8912500D01*
X7191071Y-8941072D01*
X7191071Y-9098214D01*
X7776786Y-8783929D02*
X7519643Y-9169643D01*
X8162500Y-8798214D02*
X8191071Y-8798214D01*
X8219643Y-8812500D01*
X8233928Y-8826786D01*
X8248214Y-8855357D01*
X8262500Y-8912500D01*
X8262500Y-8983929D01*
X8248214Y-9041072D01*
X8233928Y-9069643D01*
X8219643Y-9083929D01*
X8191071Y-9098214D01*
X8162500Y-9098214D01*
X8133928Y-9083929D01*
X8119643Y-9069643D01*
X8105357Y-9041072D01*
X8091071Y-8983929D01*
X8091071Y-8912500D01*
X8105357Y-8855357D01*
X8119643Y-8826786D01*
X8133928Y-8812500D01*
X8162500Y-8798214D01*
X8391071Y-9069643D02*
X8405357Y-9083929D01*
X8391071Y-9098214D01*
X8376786Y-9083929D01*
X8391071Y-9069643D01*
X8391071Y-9098214D01*
X8591071Y-8798214D02*
X8619643Y-8798214D01*
X8648214Y-8812500D01*
X8662500Y-8826786D01*
X8676786Y-8855357D01*
X8691071Y-8912500D01*
X8691071Y-8983929D01*
X8676786Y-9041072D01*
X8662500Y-9069643D01*
X8648214Y-9083929D01*
X8619643Y-9098214D01*
X8591071Y-9098214D01*
X8562500Y-9083929D01*
X8548214Y-9069643D01*
X8533928Y-9041072D01*
X8519643Y-8983929D01*
X8519643Y-8912500D01*
X8533928Y-8855357D01*
X8548214Y-8826786D01*
X8562500Y-8812500D01*
X8591071Y-8798214D01*
X8805357Y-8826786D02*
X8819643Y-8812500D01*
X8848214Y-8798214D01*
X8919643Y-8798214D01*
X8948214Y-8812500D01*
X8962500Y-8826786D01*
X8976786Y-8855357D01*
X8976786Y-8883929D01*
X8962500Y-8926786D01*
X8791071Y-9098214D01*
X8976786Y-9098214D01*
X9162500Y-8798214D02*
X9191071Y-8798214D01*
X9219643Y-8812500D01*
X9233928Y-8826786D01*
X9248214Y-8855357D01*
X9262500Y-8912500D01*
X9262500Y-8983929D01*
X9248214Y-9041072D01*
X9233928Y-9069643D01*
X9219643Y-9083929D01*
X9191071Y-9098214D01*
X9162500Y-9098214D01*
X9133928Y-9083929D01*
X9119643Y-9069643D01*
X9105357Y-9041072D01*
X9091071Y-8983929D01*
X9091071Y-8912500D01*
X9105357Y-8855357D01*
X9119643Y-8826786D01*
X9133928Y-8812500D01*
X9162500Y-8798214D01*
X9376786Y-8798214D02*
X9376786Y-8855357D01*
X9491071Y-8798214D02*
X9491071Y-8855357D01*
X9933928Y-9212500D02*
X9919643Y-9198214D01*
X9891071Y-9155357D01*
X9876786Y-9126786D01*
X9862500Y-9083929D01*
X9848214Y-9012500D01*
X9848214Y-8955357D01*
X9862500Y-8883929D01*
X9876786Y-8841072D01*
X9891071Y-8812500D01*
X9919643Y-8769643D01*
X9933928Y-8755357D01*
X10019643Y-8798214D02*
X10205357Y-8798214D01*
X10105357Y-8912500D01*
X10148214Y-8912500D01*
X10176786Y-8926786D01*
X10191071Y-8941072D01*
X10205357Y-8969643D01*
X10205357Y-9041072D01*
X10191071Y-9069643D01*
X10176786Y-9083929D01*
X10148214Y-9098214D01*
X10062500Y-9098214D01*
X10033928Y-9083929D01*
X10019643Y-9069643D01*
X10562500Y-9098214D02*
X10562500Y-8798214D01*
X10691071Y-9098214D02*
X10691071Y-8941072D01*
X10676786Y-8912500D01*
X10648214Y-8898214D01*
X10605357Y-8898214D01*
X10576786Y-8912500D01*
X10562500Y-8926786D01*
X10876786Y-9098214D02*
X10848214Y-9083929D01*
X10833928Y-9069643D01*
X10819643Y-9041072D01*
X10819643Y-8955357D01*
X10833928Y-8926786D01*
X10848214Y-8912500D01*
X10876786Y-8898214D01*
X10919643Y-8898214D01*
X10948214Y-8912500D01*
X10962500Y-8926786D01*
X10976786Y-8955357D01*
X10976786Y-9041072D01*
X10962500Y-9069643D01*
X10948214Y-9083929D01*
X10919643Y-9098214D01*
X10876786Y-9098214D01*
X11148214Y-9098214D02*
X11119643Y-9083929D01*
X11105357Y-9055357D01*
X11105357Y-8798214D01*
X11376786Y-9083929D02*
X11348214Y-9098214D01*
X11291071Y-9098214D01*
X11262500Y-9083929D01*
X11248214Y-9055357D01*
X11248214Y-8941072D01*
X11262500Y-8912500D01*
X11291071Y-8898214D01*
X11348214Y-8898214D01*
X11376786Y-8912500D01*
X11391071Y-8941072D01*
X11391071Y-8969643D01*
X11248214Y-8998214D01*
X11505357Y-9083929D02*
X11533928Y-9098214D01*
X11591071Y-9098214D01*
X11619643Y-9083929D01*
X11633928Y-9055357D01*
X11633928Y-9041072D01*
X11619643Y-9012500D01*
X11591071Y-8998214D01*
X11548214Y-8998214D01*
X11519643Y-8983929D01*
X11505357Y-8955357D01*
X11505357Y-8941072D01*
X11519643Y-8912500D01*
X11548214Y-8898214D01*
X11591071Y-8898214D01*
X11619643Y-8912500D01*
X11733928Y-9212500D02*
X11748214Y-9198214D01*
X11776786Y-9155357D01*
X11791071Y-9126786D01*
X11805357Y-9083929D01*
X11819643Y-9012500D01*
X11819643Y-8955357D01*
X11805357Y-8883929D01*
X11791071Y-8841072D01*
X11776786Y-8812500D01*
X11748214Y-8769643D01*
X11733928Y-8755357D01*
X5247500Y-9358500D02*
G75*
G03*
X5247500Y-9358500I-35000J0D01*
G01*
X5591071Y-9194214D02*
X5619643Y-9194214D01*
X5648214Y-9208500D01*
X5662500Y-9222786D01*
X5676786Y-9251357D01*
X5691071Y-9308500D01*
X5691071Y-9379929D01*
X5676786Y-9437072D01*
X5662500Y-9465643D01*
X5648214Y-9479929D01*
X5619643Y-9494214D01*
X5591071Y-9494214D01*
X5562500Y-9479929D01*
X5548214Y-9465643D01*
X5533928Y-9437072D01*
X5519643Y-9379929D01*
X5519643Y-9308500D01*
X5533928Y-9251357D01*
X5548214Y-9222786D01*
X5562500Y-9208500D01*
X5591071Y-9194214D01*
X5819643Y-9465643D02*
X5833928Y-9479929D01*
X5819643Y-9494214D01*
X5805357Y-9479929D01*
X5819643Y-9465643D01*
X5819643Y-9494214D01*
X5933928Y-9194214D02*
X6133928Y-9194214D01*
X6005357Y-9494214D01*
X6305357Y-9194214D02*
X6333928Y-9194214D01*
X6362500Y-9208500D01*
X6376786Y-9222786D01*
X6391071Y-9251357D01*
X6405357Y-9308500D01*
X6405357Y-9379929D01*
X6391071Y-9437072D01*
X6376786Y-9465643D01*
X6362500Y-9479929D01*
X6333928Y-9494214D01*
X6305357Y-9494214D01*
X6276786Y-9479929D01*
X6262500Y-9465643D01*
X6248214Y-9437072D01*
X6233928Y-9379929D01*
X6233928Y-9308500D01*
X6248214Y-9251357D01*
X6262500Y-9222786D01*
X6276786Y-9208500D01*
X6305357Y-9194214D01*
X6533928Y-9494214D02*
X6533928Y-9294214D01*
X6533928Y-9322786D02*
X6548214Y-9308500D01*
X6576786Y-9294214D01*
X6619643Y-9294214D01*
X6648214Y-9308500D01*
X6662500Y-9337072D01*
X6662500Y-9494214D01*
X6662500Y-9337072D02*
X6676786Y-9308500D01*
X6705357Y-9294214D01*
X6748214Y-9294214D01*
X6776786Y-9308500D01*
X6791071Y-9337072D01*
X6791071Y-9494214D01*
X6933928Y-9494214D02*
X6933928Y-9294214D01*
X6933928Y-9322786D02*
X6948214Y-9308500D01*
X6976786Y-9294214D01*
X7019643Y-9294214D01*
X7048214Y-9308500D01*
X7062500Y-9337072D01*
X7062500Y-9494214D01*
X7062500Y-9337072D02*
X7076786Y-9308500D01*
X7105357Y-9294214D01*
X7148214Y-9294214D01*
X7176786Y-9308500D01*
X7191071Y-9337072D01*
X7191071Y-9494214D01*
X7776786Y-9179929D02*
X7519643Y-9565643D01*
X8162500Y-9194214D02*
X8191071Y-9194214D01*
X8219643Y-9208500D01*
X8233928Y-9222786D01*
X8248214Y-9251357D01*
X8262500Y-9308500D01*
X8262500Y-9379929D01*
X8248214Y-9437072D01*
X8233928Y-9465643D01*
X8219643Y-9479929D01*
X8191071Y-9494214D01*
X8162500Y-9494214D01*
X8133928Y-9479929D01*
X8119643Y-9465643D01*
X8105357Y-9437072D01*
X8091071Y-9379929D01*
X8091071Y-9308500D01*
X8105357Y-9251357D01*
X8119643Y-9222786D01*
X8133928Y-9208500D01*
X8162500Y-9194214D01*
X8391071Y-9465643D02*
X8405357Y-9479929D01*
X8391071Y-9494214D01*
X8376786Y-9479929D01*
X8391071Y-9465643D01*
X8391071Y-9494214D01*
X8591071Y-9194214D02*
X8619643Y-9194214D01*
X8648214Y-9208500D01*
X8662500Y-9222786D01*
X8676786Y-9251357D01*
X8691071Y-9308500D01*
X8691071Y-9379929D01*
X8676786Y-9437072D01*
X8662500Y-9465643D01*
X8648214Y-9479929D01*
X8619643Y-9494214D01*
X8591071Y-9494214D01*
X8562500Y-9479929D01*
X8548214Y-9465643D01*
X8533928Y-9437072D01*
X8519643Y-9379929D01*
X8519643Y-9308500D01*
X8533928Y-9251357D01*
X8548214Y-9222786D01*
X8562500Y-9208500D01*
X8591071Y-9194214D01*
X8805357Y-9222786D02*
X8819643Y-9208500D01*
X8848214Y-9194214D01*
X8919643Y-9194214D01*
X8948214Y-9208500D01*
X8962500Y-9222786D01*
X8976786Y-9251357D01*
X8976786Y-9279929D01*
X8962500Y-9322786D01*
X8791071Y-9494214D01*
X8976786Y-9494214D01*
X9148214Y-9322786D02*
X9119643Y-9308500D01*
X9105357Y-9294214D01*
X9091071Y-9265643D01*
X9091071Y-9251357D01*
X9105357Y-9222786D01*
X9119643Y-9208500D01*
X9148214Y-9194214D01*
X9205357Y-9194214D01*
X9233928Y-9208500D01*
X9248214Y-9222786D01*
X9262500Y-9251357D01*
X9262500Y-9265643D01*
X9248214Y-9294214D01*
X9233928Y-9308500D01*
X9205357Y-9322786D01*
X9148214Y-9322786D01*
X9119643Y-9337072D01*
X9105357Y-9351357D01*
X9091071Y-9379929D01*
X9091071Y-9437072D01*
X9105357Y-9465643D01*
X9119643Y-9479929D01*
X9148214Y-9494214D01*
X9205357Y-9494214D01*
X9233928Y-9479929D01*
X9248214Y-9465643D01*
X9262500Y-9437072D01*
X9262500Y-9379929D01*
X9248214Y-9351357D01*
X9233928Y-9337072D01*
X9205357Y-9322786D01*
X9376786Y-9194214D02*
X9376786Y-9251357D01*
X9491071Y-9194214D02*
X9491071Y-9251357D01*
X9933928Y-9608500D02*
X9919643Y-9594214D01*
X9891071Y-9551357D01*
X9876786Y-9522786D01*
X9862500Y-9479929D01*
X9848214Y-9408500D01*
X9848214Y-9351357D01*
X9862500Y-9279929D01*
X9876786Y-9237072D01*
X9891071Y-9208500D01*
X9919643Y-9165643D01*
X9933928Y-9151357D01*
X10205357Y-9494214D02*
X10033928Y-9494214D01*
X10119643Y-9494214D02*
X10119643Y-9194214D01*
X10091071Y-9237072D01*
X10062500Y-9265643D01*
X10033928Y-9279929D01*
X10319643Y-9222786D02*
X10333928Y-9208500D01*
X10362500Y-9194214D01*
X10433928Y-9194214D01*
X10462500Y-9208500D01*
X10476786Y-9222786D01*
X10491071Y-9251357D01*
X10491071Y-9279929D01*
X10476786Y-9322786D01*
X10305357Y-9494214D01*
X10491071Y-9494214D01*
X10848214Y-9494214D02*
X10848214Y-9194214D01*
X10976786Y-9494214D02*
X10976786Y-9337072D01*
X10962500Y-9308500D01*
X10933928Y-9294214D01*
X10891071Y-9294214D01*
X10862500Y-9308500D01*
X10848214Y-9322786D01*
X11162500Y-9494214D02*
X11133928Y-9479929D01*
X11119643Y-9465643D01*
X11105357Y-9437072D01*
X11105357Y-9351357D01*
X11119643Y-9322786D01*
X11133928Y-9308500D01*
X11162500Y-9294214D01*
X11205357Y-9294214D01*
X11233928Y-9308500D01*
X11248214Y-9322786D01*
X11262500Y-9351357D01*
X11262500Y-9437072D01*
X11248214Y-9465643D01*
X11233928Y-9479929D01*
X11205357Y-9494214D01*
X11162500Y-9494214D01*
X11433928Y-9494214D02*
X11405357Y-9479929D01*
X11391071Y-9451357D01*
X11391071Y-9194214D01*
X11662500Y-9479929D02*
X11633928Y-9494214D01*
X11576786Y-9494214D01*
X11548214Y-9479929D01*
X11533928Y-9451357D01*
X11533928Y-9337072D01*
X11548214Y-9308500D01*
X11576786Y-9294214D01*
X11633928Y-9294214D01*
X11662500Y-9308500D01*
X11676786Y-9337072D01*
X11676786Y-9365643D01*
X11533928Y-9394214D01*
X11791071Y-9479929D02*
X11819643Y-9494214D01*
X11876786Y-9494214D01*
X11905357Y-9479929D01*
X11919643Y-9451357D01*
X11919643Y-9437072D01*
X11905357Y-9408500D01*
X11876786Y-9394214D01*
X11833928Y-9394214D01*
X11805357Y-9379929D01*
X11791071Y-9351357D01*
X11791071Y-9337072D01*
X11805357Y-9308500D01*
X11833928Y-9294214D01*
X11876786Y-9294214D01*
X11905357Y-9308500D01*
X12019643Y-9608500D02*
X12033928Y-9594214D01*
X12062500Y-9551357D01*
X12076786Y-9522786D01*
X12091071Y-9479929D01*
X12105357Y-9408500D01*
X12105357Y-9351357D01*
X12091071Y-9279929D01*
X12076786Y-9237072D01*
X12062500Y-9208500D01*
X12033928Y-9165643D01*
X12019643Y-9151357D01*
X5207500Y-9714500D02*
X5207500Y-9794500D01*
X5167500Y-9754500D02*
X5247500Y-9754500D01*
X5591071Y-9590214D02*
X5619643Y-9590214D01*
X5648214Y-9604500D01*
X5662500Y-9618786D01*
X5676786Y-9647357D01*
X5691071Y-9704500D01*
X5691071Y-9775929D01*
X5676786Y-9833072D01*
X5662500Y-9861643D01*
X5648214Y-9875929D01*
X5619643Y-9890214D01*
X5591071Y-9890214D01*
X5562500Y-9875929D01*
X5548214Y-9861643D01*
X5533928Y-9833072D01*
X5519643Y-9775929D01*
X5519643Y-9704500D01*
X5533928Y-9647357D01*
X5548214Y-9618786D01*
X5562500Y-9604500D01*
X5591071Y-9590214D01*
X5819643Y-9861643D02*
X5833928Y-9875929D01*
X5819643Y-9890214D01*
X5805357Y-9875929D01*
X5819643Y-9861643D01*
X5819643Y-9890214D01*
X6005357Y-9718786D02*
X5976786Y-9704500D01*
X5962500Y-9690214D01*
X5948214Y-9661643D01*
X5948214Y-9647357D01*
X5962500Y-9618786D01*
X5976786Y-9604500D01*
X6005357Y-9590214D01*
X6062500Y-9590214D01*
X6091071Y-9604500D01*
X6105357Y-9618786D01*
X6119643Y-9647357D01*
X6119643Y-9661643D01*
X6105357Y-9690214D01*
X6091071Y-9704500D01*
X6062500Y-9718786D01*
X6005357Y-9718786D01*
X5976786Y-9733072D01*
X5962500Y-9747357D01*
X5948214Y-9775929D01*
X5948214Y-9833072D01*
X5962500Y-9861643D01*
X5976786Y-9875929D01*
X6005357Y-9890214D01*
X6062500Y-9890214D01*
X6091071Y-9875929D01*
X6105357Y-9861643D01*
X6119643Y-9833072D01*
X6119643Y-9775929D01*
X6105357Y-9747357D01*
X6091071Y-9733072D01*
X6062500Y-9718786D01*
X6305357Y-9590214D02*
X6333928Y-9590214D01*
X6362500Y-9604500D01*
X6376786Y-9618786D01*
X6391071Y-9647357D01*
X6405357Y-9704500D01*
X6405357Y-9775929D01*
X6391071Y-9833072D01*
X6376786Y-9861643D01*
X6362500Y-9875929D01*
X6333928Y-9890214D01*
X6305357Y-9890214D01*
X6276786Y-9875929D01*
X6262500Y-9861643D01*
X6248214Y-9833072D01*
X6233928Y-9775929D01*
X6233928Y-9704500D01*
X6248214Y-9647357D01*
X6262500Y-9618786D01*
X6276786Y-9604500D01*
X6305357Y-9590214D01*
X6533928Y-9890214D02*
X6533928Y-9690214D01*
X6533928Y-9718786D02*
X6548214Y-9704500D01*
X6576786Y-9690214D01*
X6619643Y-9690214D01*
X6648214Y-9704500D01*
X6662500Y-9733072D01*
X6662500Y-9890214D01*
X6662500Y-9733072D02*
X6676786Y-9704500D01*
X6705357Y-9690214D01*
X6748214Y-9690214D01*
X6776786Y-9704500D01*
X6791071Y-9733072D01*
X6791071Y-9890214D01*
X6933928Y-9890214D02*
X6933928Y-9690214D01*
X6933928Y-9718786D02*
X6948214Y-9704500D01*
X6976786Y-9690214D01*
X7019643Y-9690214D01*
X7048214Y-9704500D01*
X7062500Y-9733072D01*
X7062500Y-9890214D01*
X7062500Y-9733072D02*
X7076786Y-9704500D01*
X7105357Y-9690214D01*
X7148214Y-9690214D01*
X7176786Y-9704500D01*
X7191071Y-9733072D01*
X7191071Y-9890214D01*
X7776786Y-9575929D02*
X7519643Y-9961643D01*
X8162500Y-9590214D02*
X8191071Y-9590214D01*
X8219643Y-9604500D01*
X8233928Y-9618786D01*
X8248214Y-9647357D01*
X8262500Y-9704500D01*
X8262500Y-9775929D01*
X8248214Y-9833072D01*
X8233928Y-9861643D01*
X8219643Y-9875929D01*
X8191071Y-9890214D01*
X8162500Y-9890214D01*
X8133928Y-9875929D01*
X8119643Y-9861643D01*
X8105357Y-9833072D01*
X8091071Y-9775929D01*
X8091071Y-9704500D01*
X8105357Y-9647357D01*
X8119643Y-9618786D01*
X8133928Y-9604500D01*
X8162500Y-9590214D01*
X8391071Y-9861643D02*
X8405357Y-9875929D01*
X8391071Y-9890214D01*
X8376786Y-9875929D01*
X8391071Y-9861643D01*
X8391071Y-9890214D01*
X8591071Y-9590214D02*
X8619643Y-9590214D01*
X8648214Y-9604500D01*
X8662500Y-9618786D01*
X8676786Y-9647357D01*
X8691071Y-9704500D01*
X8691071Y-9775929D01*
X8676786Y-9833072D01*
X8662500Y-9861643D01*
X8648214Y-9875929D01*
X8619643Y-9890214D01*
X8591071Y-9890214D01*
X8562500Y-9875929D01*
X8548214Y-9861643D01*
X8533928Y-9833072D01*
X8519643Y-9775929D01*
X8519643Y-9704500D01*
X8533928Y-9647357D01*
X8548214Y-9618786D01*
X8562500Y-9604500D01*
X8591071Y-9590214D01*
X8791071Y-9590214D02*
X8976786Y-9590214D01*
X8876786Y-9704500D01*
X8919643Y-9704500D01*
X8948214Y-9718786D01*
X8962500Y-9733072D01*
X8976786Y-9761643D01*
X8976786Y-9833072D01*
X8962500Y-9861643D01*
X8948214Y-9875929D01*
X8919643Y-9890214D01*
X8833928Y-9890214D01*
X8805357Y-9875929D01*
X8791071Y-9861643D01*
X9262500Y-9890214D02*
X9091071Y-9890214D01*
X9176786Y-9890214D02*
X9176786Y-9590214D01*
X9148214Y-9633072D01*
X9119643Y-9661643D01*
X9091071Y-9675929D01*
X9376786Y-9590214D02*
X9376786Y-9647357D01*
X9491071Y-9590214D02*
X9491071Y-9647357D01*
X9933928Y-10004500D02*
X9919643Y-9990214D01*
X9891071Y-9947357D01*
X9876786Y-9918786D01*
X9862500Y-9875929D01*
X9848214Y-9804500D01*
X9848214Y-9747357D01*
X9862500Y-9675929D01*
X9876786Y-9633072D01*
X9891071Y-9604500D01*
X9919643Y-9561643D01*
X9933928Y-9547357D01*
X10176786Y-9690214D02*
X10176786Y-9890214D01*
X10105357Y-9575929D02*
X10033928Y-9790214D01*
X10219643Y-9790214D01*
X10562500Y-9890214D02*
X10562500Y-9590214D01*
X10691071Y-9890214D02*
X10691071Y-9733072D01*
X10676786Y-9704500D01*
X10648214Y-9690214D01*
X10605357Y-9690214D01*
X10576786Y-9704500D01*
X10562500Y-9718786D01*
X10876786Y-9890214D02*
X10848214Y-9875929D01*
X10833928Y-9861643D01*
X10819643Y-9833072D01*
X10819643Y-9747357D01*
X10833928Y-9718786D01*
X10848214Y-9704500D01*
X10876786Y-9690214D01*
X10919643Y-9690214D01*
X10948214Y-9704500D01*
X10962500Y-9718786D01*
X10976786Y-9747357D01*
X10976786Y-9833072D01*
X10962500Y-9861643D01*
X10948214Y-9875929D01*
X10919643Y-9890214D01*
X10876786Y-9890214D01*
X11148214Y-9890214D02*
X11119643Y-9875929D01*
X11105357Y-9847357D01*
X11105357Y-9590214D01*
X11376786Y-9875929D02*
X11348214Y-9890214D01*
X11291071Y-9890214D01*
X11262500Y-9875929D01*
X11248214Y-9847357D01*
X11248214Y-9733072D01*
X11262500Y-9704500D01*
X11291071Y-9690214D01*
X11348214Y-9690214D01*
X11376786Y-9704500D01*
X11391071Y-9733072D01*
X11391071Y-9761643D01*
X11248214Y-9790214D01*
X11505357Y-9875929D02*
X11533928Y-9890214D01*
X11591071Y-9890214D01*
X11619643Y-9875929D01*
X11633928Y-9847357D01*
X11633928Y-9833072D01*
X11619643Y-9804500D01*
X11591071Y-9790214D01*
X11548214Y-9790214D01*
X11519643Y-9775929D01*
X11505357Y-9747357D01*
X11505357Y-9733072D01*
X11519643Y-9704500D01*
X11548214Y-9690214D01*
X11591071Y-9690214D01*
X11619643Y-9704500D01*
X11733928Y-10004500D02*
X11748214Y-9990214D01*
X11776786Y-9947357D01*
X11791071Y-9918786D01*
X11805357Y-9875929D01*
X11819643Y-9804500D01*
X11819643Y-9747357D01*
X11805357Y-9675929D01*
X11791071Y-9633072D01*
X11776786Y-9604500D01*
X11748214Y-9561643D01*
X11733928Y-9547357D01*
X5232856Y-10185856D02*
X5232856Y-10115144D01*
X5162144Y-10115144D01*
X5162144Y-10185856D01*
X5232856Y-10185856D01*
X5691071Y-10286214D02*
X5519643Y-10286214D01*
X5605357Y-10286214D02*
X5605357Y-9986214D01*
X5576786Y-10029072D01*
X5548214Y-10057643D01*
X5519643Y-10071929D01*
X5819643Y-10257643D02*
X5833928Y-10271929D01*
X5819643Y-10286214D01*
X5805357Y-10271929D01*
X5819643Y-10257643D01*
X5819643Y-10286214D01*
X6019643Y-9986214D02*
X6048214Y-9986214D01*
X6076786Y-10000500D01*
X6091071Y-10014786D01*
X6105357Y-10043357D01*
X6119643Y-10100500D01*
X6119643Y-10171929D01*
X6105357Y-10229072D01*
X6091071Y-10257643D01*
X6076786Y-10271929D01*
X6048214Y-10286214D01*
X6019643Y-10286214D01*
X5991071Y-10271929D01*
X5976786Y-10257643D01*
X5962500Y-10229072D01*
X5948214Y-10171929D01*
X5948214Y-10100500D01*
X5962500Y-10043357D01*
X5976786Y-10014786D01*
X5991071Y-10000500D01*
X6019643Y-9986214D01*
X6305357Y-9986214D02*
X6333928Y-9986214D01*
X6362500Y-10000500D01*
X6376786Y-10014786D01*
X6391071Y-10043357D01*
X6405357Y-10100500D01*
X6405357Y-10171929D01*
X6391071Y-10229072D01*
X6376786Y-10257643D01*
X6362500Y-10271929D01*
X6333928Y-10286214D01*
X6305357Y-10286214D01*
X6276786Y-10271929D01*
X6262500Y-10257643D01*
X6248214Y-10229072D01*
X6233928Y-10171929D01*
X6233928Y-10100500D01*
X6248214Y-10043357D01*
X6262500Y-10014786D01*
X6276786Y-10000500D01*
X6305357Y-9986214D01*
X6533928Y-10286214D02*
X6533928Y-10086214D01*
X6533928Y-10114786D02*
X6548214Y-10100500D01*
X6576786Y-10086214D01*
X6619643Y-10086214D01*
X6648214Y-10100500D01*
X6662500Y-10129072D01*
X6662500Y-10286214D01*
X6662500Y-10129072D02*
X6676786Y-10100500D01*
X6705357Y-10086214D01*
X6748214Y-10086214D01*
X6776786Y-10100500D01*
X6791071Y-10129072D01*
X6791071Y-10286214D01*
X6933928Y-10286214D02*
X6933928Y-10086214D01*
X6933928Y-10114786D02*
X6948214Y-10100500D01*
X6976786Y-10086214D01*
X7019643Y-10086214D01*
X7048214Y-10100500D01*
X7062500Y-10129072D01*
X7062500Y-10286214D01*
X7062500Y-10129072D02*
X7076786Y-10100500D01*
X7105357Y-10086214D01*
X7148214Y-10086214D01*
X7176786Y-10100500D01*
X7191071Y-10129072D01*
X7191071Y-10286214D01*
X7776786Y-9971929D02*
X7519643Y-10357643D01*
X8162500Y-9986214D02*
X8191071Y-9986214D01*
X8219643Y-10000500D01*
X8233928Y-10014786D01*
X8248214Y-10043357D01*
X8262500Y-10100500D01*
X8262500Y-10171929D01*
X8248214Y-10229072D01*
X8233928Y-10257643D01*
X8219643Y-10271929D01*
X8191071Y-10286214D01*
X8162500Y-10286214D01*
X8133928Y-10271929D01*
X8119643Y-10257643D01*
X8105357Y-10229072D01*
X8091071Y-10171929D01*
X8091071Y-10100500D01*
X8105357Y-10043357D01*
X8119643Y-10014786D01*
X8133928Y-10000500D01*
X8162500Y-9986214D01*
X8391071Y-10257643D02*
X8405357Y-10271929D01*
X8391071Y-10286214D01*
X8376786Y-10271929D01*
X8391071Y-10257643D01*
X8391071Y-10286214D01*
X8591071Y-9986214D02*
X8619643Y-9986214D01*
X8648214Y-10000500D01*
X8662500Y-10014786D01*
X8676786Y-10043357D01*
X8691071Y-10100500D01*
X8691071Y-10171929D01*
X8676786Y-10229072D01*
X8662500Y-10257643D01*
X8648214Y-10271929D01*
X8619643Y-10286214D01*
X8591071Y-10286214D01*
X8562500Y-10271929D01*
X8548214Y-10257643D01*
X8533928Y-10229072D01*
X8519643Y-10171929D01*
X8519643Y-10100500D01*
X8533928Y-10043357D01*
X8548214Y-10014786D01*
X8562500Y-10000500D01*
X8591071Y-9986214D01*
X8791071Y-9986214D02*
X8976786Y-9986214D01*
X8876786Y-10100500D01*
X8919643Y-10100500D01*
X8948214Y-10114786D01*
X8962500Y-10129072D01*
X8976786Y-10157643D01*
X8976786Y-10229072D01*
X8962500Y-10257643D01*
X8948214Y-10271929D01*
X8919643Y-10286214D01*
X8833928Y-10286214D01*
X8805357Y-10271929D01*
X8791071Y-10257643D01*
X9119643Y-10286214D02*
X9176786Y-10286214D01*
X9205357Y-10271929D01*
X9219643Y-10257643D01*
X9248214Y-10214786D01*
X9262500Y-10157643D01*
X9262500Y-10043357D01*
X9248214Y-10014786D01*
X9233928Y-10000500D01*
X9205357Y-9986214D01*
X9148214Y-9986214D01*
X9119643Y-10000500D01*
X9105357Y-10014786D01*
X9091071Y-10043357D01*
X9091071Y-10114786D01*
X9105357Y-10143357D01*
X9119643Y-10157643D01*
X9148214Y-10171929D01*
X9205357Y-10171929D01*
X9233928Y-10157643D01*
X9248214Y-10143357D01*
X9262500Y-10114786D01*
X9376786Y-9986214D02*
X9376786Y-10043357D01*
X9491071Y-9986214D02*
X9491071Y-10043357D01*
X9933928Y-10400500D02*
X9919643Y-10386214D01*
X9891071Y-10343357D01*
X9876786Y-10314786D01*
X9862500Y-10271929D01*
X9848214Y-10200500D01*
X9848214Y-10143357D01*
X9862500Y-10071929D01*
X9876786Y-10029072D01*
X9891071Y-10000500D01*
X9919643Y-9957643D01*
X9933928Y-9943357D01*
X10091071Y-10114786D02*
X10062500Y-10100500D01*
X10048214Y-10086214D01*
X10033928Y-10057643D01*
X10033928Y-10043357D01*
X10048214Y-10014786D01*
X10062500Y-10000500D01*
X10091071Y-9986214D01*
X10148214Y-9986214D01*
X10176786Y-10000500D01*
X10191071Y-10014786D01*
X10205357Y-10043357D01*
X10205357Y-10057643D01*
X10191071Y-10086214D01*
X10176786Y-10100500D01*
X10148214Y-10114786D01*
X10091071Y-10114786D01*
X10062500Y-10129072D01*
X10048214Y-10143357D01*
X10033928Y-10171929D01*
X10033928Y-10229072D01*
X10048214Y-10257643D01*
X10062500Y-10271929D01*
X10091071Y-10286214D01*
X10148214Y-10286214D01*
X10176786Y-10271929D01*
X10191071Y-10257643D01*
X10205357Y-10229072D01*
X10205357Y-10171929D01*
X10191071Y-10143357D01*
X10176786Y-10129072D01*
X10148214Y-10114786D01*
X10562500Y-10286214D02*
X10562500Y-9986214D01*
X10691071Y-10286214D02*
X10691071Y-10129072D01*
X10676786Y-10100500D01*
X10648214Y-10086214D01*
X10605357Y-10086214D01*
X10576786Y-10100500D01*
X10562500Y-10114786D01*
X10876786Y-10286214D02*
X10848214Y-10271929D01*
X10833928Y-10257643D01*
X10819643Y-10229072D01*
X10819643Y-10143357D01*
X10833928Y-10114786D01*
X10848214Y-10100500D01*
X10876786Y-10086214D01*
X10919643Y-10086214D01*
X10948214Y-10100500D01*
X10962500Y-10114786D01*
X10976786Y-10143357D01*
X10976786Y-10229072D01*
X10962500Y-10257643D01*
X10948214Y-10271929D01*
X10919643Y-10286214D01*
X10876786Y-10286214D01*
X11148214Y-10286214D02*
X11119643Y-10271929D01*
X11105357Y-10243357D01*
X11105357Y-9986214D01*
X11376786Y-10271929D02*
X11348214Y-10286214D01*
X11291071Y-10286214D01*
X11262500Y-10271929D01*
X11248214Y-10243357D01*
X11248214Y-10129072D01*
X11262500Y-10100500D01*
X11291071Y-10086214D01*
X11348214Y-10086214D01*
X11376786Y-10100500D01*
X11391071Y-10129072D01*
X11391071Y-10157643D01*
X11248214Y-10186214D01*
X11505357Y-10271929D02*
X11533928Y-10286214D01*
X11591071Y-10286214D01*
X11619643Y-10271929D01*
X11633928Y-10243357D01*
X11633928Y-10229072D01*
X11619643Y-10200500D01*
X11591071Y-10186214D01*
X11548214Y-10186214D01*
X11519643Y-10171929D01*
X11505357Y-10143357D01*
X11505357Y-10129072D01*
X11519643Y-10100500D01*
X11548214Y-10086214D01*
X11591071Y-10086214D01*
X11619643Y-10100500D01*
X11733928Y-10400500D02*
X11748214Y-10386214D01*
X11776786Y-10343357D01*
X11791071Y-10314786D01*
X11805357Y-10271929D01*
X11819643Y-10200500D01*
X11819643Y-10143357D01*
X11805357Y-10071929D01*
X11791071Y-10029072D01*
X11776786Y-10000500D01*
X11748214Y-9957643D01*
X11733928Y-9943357D01*
X5192500Y-10601500D02*
X5247500Y-10546500D01*
X5192500Y-10491500D01*
X5137500Y-10546500D01*
X5192500Y-10601500D01*
X5691071Y-10682214D02*
X5519643Y-10682214D01*
X5605357Y-10682214D02*
X5605357Y-10382214D01*
X5576786Y-10425072D01*
X5548214Y-10453643D01*
X5519643Y-10467929D01*
X5819643Y-10653643D02*
X5833928Y-10667929D01*
X5819643Y-10682214D01*
X5805357Y-10667929D01*
X5819643Y-10653643D01*
X5819643Y-10682214D01*
X6119643Y-10682214D02*
X5948214Y-10682214D01*
X6033928Y-10682214D02*
X6033928Y-10382214D01*
X6005357Y-10425072D01*
X5976786Y-10453643D01*
X5948214Y-10467929D01*
X6305357Y-10382214D02*
X6333928Y-10382214D01*
X6362500Y-10396500D01*
X6376786Y-10410786D01*
X6391071Y-10439357D01*
X6405357Y-10496500D01*
X6405357Y-10567929D01*
X6391071Y-10625072D01*
X6376786Y-10653643D01*
X6362500Y-10667929D01*
X6333928Y-10682214D01*
X6305357Y-10682214D01*
X6276786Y-10667929D01*
X6262500Y-10653643D01*
X6248214Y-10625072D01*
X6233928Y-10567929D01*
X6233928Y-10496500D01*
X6248214Y-10439357D01*
X6262500Y-10410786D01*
X6276786Y-10396500D01*
X6305357Y-10382214D01*
X6533928Y-10682214D02*
X6533928Y-10482214D01*
X6533928Y-10510786D02*
X6548214Y-10496500D01*
X6576786Y-10482214D01*
X6619643Y-10482214D01*
X6648214Y-10496500D01*
X6662500Y-10525072D01*
X6662500Y-10682214D01*
X6662500Y-10525072D02*
X6676786Y-10496500D01*
X6705357Y-10482214D01*
X6748214Y-10482214D01*
X6776786Y-10496500D01*
X6791071Y-10525072D01*
X6791071Y-10682214D01*
X6933928Y-10682214D02*
X6933928Y-10482214D01*
X6933928Y-10510786D02*
X6948214Y-10496500D01*
X6976786Y-10482214D01*
X7019643Y-10482214D01*
X7048214Y-10496500D01*
X7062500Y-10525072D01*
X7062500Y-10682214D01*
X7062500Y-10525072D02*
X7076786Y-10496500D01*
X7105357Y-10482214D01*
X7148214Y-10482214D01*
X7176786Y-10496500D01*
X7191071Y-10525072D01*
X7191071Y-10682214D01*
X7776786Y-10367929D02*
X7519643Y-10753643D01*
X8162500Y-10382214D02*
X8191071Y-10382214D01*
X8219643Y-10396500D01*
X8233928Y-10410786D01*
X8248214Y-10439357D01*
X8262500Y-10496500D01*
X8262500Y-10567929D01*
X8248214Y-10625072D01*
X8233928Y-10653643D01*
X8219643Y-10667929D01*
X8191071Y-10682214D01*
X8162500Y-10682214D01*
X8133928Y-10667929D01*
X8119643Y-10653643D01*
X8105357Y-10625072D01*
X8091071Y-10567929D01*
X8091071Y-10496500D01*
X8105357Y-10439357D01*
X8119643Y-10410786D01*
X8133928Y-10396500D01*
X8162500Y-10382214D01*
X8391071Y-10653643D02*
X8405357Y-10667929D01*
X8391071Y-10682214D01*
X8376786Y-10667929D01*
X8391071Y-10653643D01*
X8391071Y-10682214D01*
X8591071Y-10382214D02*
X8619643Y-10382214D01*
X8648214Y-10396500D01*
X8662500Y-10410786D01*
X8676786Y-10439357D01*
X8691071Y-10496500D01*
X8691071Y-10567929D01*
X8676786Y-10625072D01*
X8662500Y-10653643D01*
X8648214Y-10667929D01*
X8619643Y-10682214D01*
X8591071Y-10682214D01*
X8562500Y-10667929D01*
X8548214Y-10653643D01*
X8533928Y-10625072D01*
X8519643Y-10567929D01*
X8519643Y-10496500D01*
X8533928Y-10439357D01*
X8548214Y-10410786D01*
X8562500Y-10396500D01*
X8591071Y-10382214D01*
X8948214Y-10482214D02*
X8948214Y-10682214D01*
X8876786Y-10367929D02*
X8805357Y-10582214D01*
X8991071Y-10582214D01*
X9076786Y-10382214D02*
X9262500Y-10382214D01*
X9162500Y-10496500D01*
X9205357Y-10496500D01*
X9233928Y-10510786D01*
X9248214Y-10525072D01*
X9262500Y-10553643D01*
X9262500Y-10625072D01*
X9248214Y-10653643D01*
X9233928Y-10667929D01*
X9205357Y-10682214D01*
X9119643Y-10682214D01*
X9091071Y-10667929D01*
X9076786Y-10653643D01*
X9376786Y-10382214D02*
X9376786Y-10439357D01*
X9491071Y-10382214D02*
X9491071Y-10439357D01*
X9933928Y-10796500D02*
X9919643Y-10782214D01*
X9891071Y-10739357D01*
X9876786Y-10710786D01*
X9862500Y-10667929D01*
X9848214Y-10596500D01*
X9848214Y-10539357D01*
X9862500Y-10467929D01*
X9876786Y-10425072D01*
X9891071Y-10396500D01*
X9919643Y-10353643D01*
X9933928Y-10339357D01*
X10033928Y-10410786D02*
X10048214Y-10396500D01*
X10076786Y-10382214D01*
X10148214Y-10382214D01*
X10176786Y-10396500D01*
X10191071Y-10410786D01*
X10205357Y-10439357D01*
X10205357Y-10467929D01*
X10191071Y-10510786D01*
X10019643Y-10682214D01*
X10205357Y-10682214D01*
X10562500Y-10682214D02*
X10562500Y-10382214D01*
X10691071Y-10682214D02*
X10691071Y-10525072D01*
X10676786Y-10496500D01*
X10648214Y-10482214D01*
X10605357Y-10482214D01*
X10576786Y-10496500D01*
X10562500Y-10510786D01*
X10876786Y-10682214D02*
X10848214Y-10667929D01*
X10833928Y-10653643D01*
X10819643Y-10625072D01*
X10819643Y-10539357D01*
X10833928Y-10510786D01*
X10848214Y-10496500D01*
X10876786Y-10482214D01*
X10919643Y-10482214D01*
X10948214Y-10496500D01*
X10962500Y-10510786D01*
X10976786Y-10539357D01*
X10976786Y-10625072D01*
X10962500Y-10653643D01*
X10948214Y-10667929D01*
X10919643Y-10682214D01*
X10876786Y-10682214D01*
X11148214Y-10682214D02*
X11119643Y-10667929D01*
X11105357Y-10639357D01*
X11105357Y-10382214D01*
X11376786Y-10667929D02*
X11348214Y-10682214D01*
X11291071Y-10682214D01*
X11262500Y-10667929D01*
X11248214Y-10639357D01*
X11248214Y-10525072D01*
X11262500Y-10496500D01*
X11291071Y-10482214D01*
X11348214Y-10482214D01*
X11376786Y-10496500D01*
X11391071Y-10525072D01*
X11391071Y-10553643D01*
X11248214Y-10582214D01*
X11505357Y-10667929D02*
X11533928Y-10682214D01*
X11591071Y-10682214D01*
X11619643Y-10667929D01*
X11633928Y-10639357D01*
X11633928Y-10625072D01*
X11619643Y-10596500D01*
X11591071Y-10582214D01*
X11548214Y-10582214D01*
X11519643Y-10567929D01*
X11505357Y-10539357D01*
X11505357Y-10525072D01*
X11519643Y-10496500D01*
X11548214Y-10482214D01*
X11591071Y-10482214D01*
X11619643Y-10496500D01*
X11733928Y-10796500D02*
X11748214Y-10782214D01*
X11776786Y-10739357D01*
X11791071Y-10710786D01*
X11805357Y-10667929D01*
X11819643Y-10596500D01*
X11819643Y-10539357D01*
X11805357Y-10467929D01*
X11791071Y-10425072D01*
X11776786Y-10396500D01*
X11748214Y-10353643D01*
X11733928Y-10339357D01*
X5117500Y-10877500D02*
X5247500Y-11007500D01*
X5247500Y-10877500D02*
X5117500Y-11007500D01*
X5247500Y-10942500D02*
G75*
G03*
X5247500Y-10942500I-65000J0D01*
G01*
X5691071Y-11078214D02*
X5519643Y-11078214D01*
X5605357Y-11078214D02*
X5605357Y-10778214D01*
X5576786Y-10821072D01*
X5548214Y-10849643D01*
X5519643Y-10863929D01*
X5819643Y-11049643D02*
X5833928Y-11063929D01*
X5819643Y-11078214D01*
X5805357Y-11063929D01*
X5819643Y-11049643D01*
X5819643Y-11078214D01*
X5933928Y-10778214D02*
X6119643Y-10778214D01*
X6019643Y-10892500D01*
X6062500Y-10892500D01*
X6091071Y-10906786D01*
X6105357Y-10921072D01*
X6119643Y-10949643D01*
X6119643Y-11021072D01*
X6105357Y-11049643D01*
X6091071Y-11063929D01*
X6062500Y-11078214D01*
X5976786Y-11078214D01*
X5948214Y-11063929D01*
X5933928Y-11049643D01*
X6305357Y-10778214D02*
X6333928Y-10778214D01*
X6362500Y-10792500D01*
X6376786Y-10806786D01*
X6391071Y-10835357D01*
X6405357Y-10892500D01*
X6405357Y-10963929D01*
X6391071Y-11021072D01*
X6376786Y-11049643D01*
X6362500Y-11063929D01*
X6333928Y-11078214D01*
X6305357Y-11078214D01*
X6276786Y-11063929D01*
X6262500Y-11049643D01*
X6248214Y-11021072D01*
X6233928Y-10963929D01*
X6233928Y-10892500D01*
X6248214Y-10835357D01*
X6262500Y-10806786D01*
X6276786Y-10792500D01*
X6305357Y-10778214D01*
X6533928Y-11078214D02*
X6533928Y-10878214D01*
X6533928Y-10906786D02*
X6548214Y-10892500D01*
X6576786Y-10878214D01*
X6619643Y-10878214D01*
X6648214Y-10892500D01*
X6662500Y-10921072D01*
X6662500Y-11078214D01*
X6662500Y-10921072D02*
X6676786Y-10892500D01*
X6705357Y-10878214D01*
X6748214Y-10878214D01*
X6776786Y-10892500D01*
X6791071Y-10921072D01*
X6791071Y-11078214D01*
X6933928Y-11078214D02*
X6933928Y-10878214D01*
X6933928Y-10906786D02*
X6948214Y-10892500D01*
X6976786Y-10878214D01*
X7019643Y-10878214D01*
X7048214Y-10892500D01*
X7062500Y-10921072D01*
X7062500Y-11078214D01*
X7062500Y-10921072D02*
X7076786Y-10892500D01*
X7105357Y-10878214D01*
X7148214Y-10878214D01*
X7176786Y-10892500D01*
X7191071Y-10921072D01*
X7191071Y-11078214D01*
X7776786Y-10763929D02*
X7519643Y-11149643D01*
X8162500Y-10778214D02*
X8191071Y-10778214D01*
X8219643Y-10792500D01*
X8233928Y-10806786D01*
X8248214Y-10835357D01*
X8262500Y-10892500D01*
X8262500Y-10963929D01*
X8248214Y-11021072D01*
X8233928Y-11049643D01*
X8219643Y-11063929D01*
X8191071Y-11078214D01*
X8162500Y-11078214D01*
X8133928Y-11063929D01*
X8119643Y-11049643D01*
X8105357Y-11021072D01*
X8091071Y-10963929D01*
X8091071Y-10892500D01*
X8105357Y-10835357D01*
X8119643Y-10806786D01*
X8133928Y-10792500D01*
X8162500Y-10778214D01*
X8391071Y-11049643D02*
X8405357Y-11063929D01*
X8391071Y-11078214D01*
X8376786Y-11063929D01*
X8391071Y-11049643D01*
X8391071Y-11078214D01*
X8591071Y-10778214D02*
X8619643Y-10778214D01*
X8648214Y-10792500D01*
X8662500Y-10806786D01*
X8676786Y-10835357D01*
X8691071Y-10892500D01*
X8691071Y-10963929D01*
X8676786Y-11021072D01*
X8662500Y-11049643D01*
X8648214Y-11063929D01*
X8619643Y-11078214D01*
X8591071Y-11078214D01*
X8562500Y-11063929D01*
X8548214Y-11049643D01*
X8533928Y-11021072D01*
X8519643Y-10963929D01*
X8519643Y-10892500D01*
X8533928Y-10835357D01*
X8548214Y-10806786D01*
X8562500Y-10792500D01*
X8591071Y-10778214D01*
X8962500Y-10778214D02*
X8819643Y-10778214D01*
X8805357Y-10921072D01*
X8819643Y-10906786D01*
X8848214Y-10892500D01*
X8919643Y-10892500D01*
X8948214Y-10906786D01*
X8962500Y-10921072D01*
X8976786Y-10949643D01*
X8976786Y-11021072D01*
X8962500Y-11049643D01*
X8948214Y-11063929D01*
X8919643Y-11078214D01*
X8848214Y-11078214D01*
X8819643Y-11063929D01*
X8805357Y-11049643D01*
X9262500Y-11078214D02*
X9091071Y-11078214D01*
X9176786Y-11078214D02*
X9176786Y-10778214D01*
X9148214Y-10821072D01*
X9119643Y-10849643D01*
X9091071Y-10863929D01*
X9376786Y-10778214D02*
X9376786Y-10835357D01*
X9491071Y-10778214D02*
X9491071Y-10835357D01*
X9933928Y-11192500D02*
X9919643Y-11178214D01*
X9891071Y-11135357D01*
X9876786Y-11106786D01*
X9862500Y-11063929D01*
X9848214Y-10992500D01*
X9848214Y-10935357D01*
X9862500Y-10863929D01*
X9876786Y-10821072D01*
X9891071Y-10792500D01*
X9919643Y-10749643D01*
X9933928Y-10735357D01*
X10176786Y-10778214D02*
X10119643Y-10778214D01*
X10091071Y-10792500D01*
X10076786Y-10806786D01*
X10048214Y-10849643D01*
X10033928Y-10906786D01*
X10033928Y-11021072D01*
X10048214Y-11049643D01*
X10062500Y-11063929D01*
X10091071Y-11078214D01*
X10148214Y-11078214D01*
X10176786Y-11063929D01*
X10191071Y-11049643D01*
X10205357Y-11021072D01*
X10205357Y-10949643D01*
X10191071Y-10921072D01*
X10176786Y-10906786D01*
X10148214Y-10892500D01*
X10091071Y-10892500D01*
X10062500Y-10906786D01*
X10048214Y-10921072D01*
X10033928Y-10949643D01*
X10562500Y-11078214D02*
X10562500Y-10778214D01*
X10691071Y-11078214D02*
X10691071Y-10921072D01*
X10676786Y-10892500D01*
X10648214Y-10878214D01*
X10605357Y-10878214D01*
X10576786Y-10892500D01*
X10562500Y-10906786D01*
X10876786Y-11078214D02*
X10848214Y-11063929D01*
X10833928Y-11049643D01*
X10819643Y-11021072D01*
X10819643Y-10935357D01*
X10833928Y-10906786D01*
X10848214Y-10892500D01*
X10876786Y-10878214D01*
X10919643Y-10878214D01*
X10948214Y-10892500D01*
X10962500Y-10906786D01*
X10976786Y-10935357D01*
X10976786Y-11021072D01*
X10962500Y-11049643D01*
X10948214Y-11063929D01*
X10919643Y-11078214D01*
X10876786Y-11078214D01*
X11148214Y-11078214D02*
X11119643Y-11063929D01*
X11105357Y-11035357D01*
X11105357Y-10778214D01*
X11376786Y-11063929D02*
X11348214Y-11078214D01*
X11291071Y-11078214D01*
X11262500Y-11063929D01*
X11248214Y-11035357D01*
X11248214Y-10921072D01*
X11262500Y-10892500D01*
X11291071Y-10878214D01*
X11348214Y-10878214D01*
X11376786Y-10892500D01*
X11391071Y-10921072D01*
X11391071Y-10949643D01*
X11248214Y-10978214D01*
X11505357Y-11063929D02*
X11533928Y-11078214D01*
X11591071Y-11078214D01*
X11619643Y-11063929D01*
X11633928Y-11035357D01*
X11633928Y-11021072D01*
X11619643Y-10992500D01*
X11591071Y-10978214D01*
X11548214Y-10978214D01*
X11519643Y-10963929D01*
X11505357Y-10935357D01*
X11505357Y-10921072D01*
X11519643Y-10892500D01*
X11548214Y-10878214D01*
X11591071Y-10878214D01*
X11619643Y-10892500D01*
X11733928Y-11192500D02*
X11748214Y-11178214D01*
X11776786Y-11135357D01*
X11791071Y-11106786D01*
X11805357Y-11063929D01*
X11819643Y-10992500D01*
X11819643Y-10935357D01*
X11805357Y-10863929D01*
X11791071Y-10821072D01*
X11776786Y-10792500D01*
X11748214Y-10749643D01*
X11733928Y-10735357D01*
X5047500Y-11238500D02*
X5247500Y-11438500D01*
X5247500Y-11238500D02*
X5047500Y-11438500D01*
X5147500Y-11238500D02*
X5147500Y-11438500D01*
X5047500Y-11338500D02*
X5247500Y-11338500D01*
X5519643Y-11202786D02*
X5533928Y-11188500D01*
X5562500Y-11174214D01*
X5633928Y-11174214D01*
X5662500Y-11188500D01*
X5676786Y-11202786D01*
X5691071Y-11231357D01*
X5691071Y-11259929D01*
X5676786Y-11302786D01*
X5505357Y-11474214D01*
X5691071Y-11474214D01*
X5819643Y-11445643D02*
X5833928Y-11459929D01*
X5819643Y-11474214D01*
X5805357Y-11459929D01*
X5819643Y-11445643D01*
X5819643Y-11474214D01*
X6019643Y-11174214D02*
X6048214Y-11174214D01*
X6076786Y-11188500D01*
X6091071Y-11202786D01*
X6105357Y-11231357D01*
X6119643Y-11288500D01*
X6119643Y-11359929D01*
X6105357Y-11417071D01*
X6091071Y-11445643D01*
X6076786Y-11459929D01*
X6048214Y-11474214D01*
X6019643Y-11474214D01*
X5991071Y-11459929D01*
X5976786Y-11445643D01*
X5962500Y-11417071D01*
X5948214Y-11359929D01*
X5948214Y-11288500D01*
X5962500Y-11231357D01*
X5976786Y-11202786D01*
X5991071Y-11188500D01*
X6019643Y-11174214D01*
X6305357Y-11174214D02*
X6333928Y-11174214D01*
X6362500Y-11188500D01*
X6376786Y-11202786D01*
X6391071Y-11231357D01*
X6405357Y-11288500D01*
X6405357Y-11359929D01*
X6391071Y-11417071D01*
X6376786Y-11445643D01*
X6362500Y-11459929D01*
X6333928Y-11474214D01*
X6305357Y-11474214D01*
X6276786Y-11459929D01*
X6262500Y-11445643D01*
X6248214Y-11417071D01*
X6233928Y-11359929D01*
X6233928Y-11288500D01*
X6248214Y-11231357D01*
X6262500Y-11202786D01*
X6276786Y-11188500D01*
X6305357Y-11174214D01*
X6533928Y-11474214D02*
X6533928Y-11274214D01*
X6533928Y-11302786D02*
X6548214Y-11288500D01*
X6576786Y-11274214D01*
X6619643Y-11274214D01*
X6648214Y-11288500D01*
X6662500Y-11317071D01*
X6662500Y-11474214D01*
X6662500Y-11317071D02*
X6676786Y-11288500D01*
X6705357Y-11274214D01*
X6748214Y-11274214D01*
X6776786Y-11288500D01*
X6791071Y-11317071D01*
X6791071Y-11474214D01*
X6933928Y-11474214D02*
X6933928Y-11274214D01*
X6933928Y-11302786D02*
X6948214Y-11288500D01*
X6976786Y-11274214D01*
X7019643Y-11274214D01*
X7048214Y-11288500D01*
X7062500Y-11317071D01*
X7062500Y-11474214D01*
X7062500Y-11317071D02*
X7076786Y-11288500D01*
X7105357Y-11274214D01*
X7148214Y-11274214D01*
X7176786Y-11288500D01*
X7191071Y-11317071D01*
X7191071Y-11474214D01*
X7776786Y-11159929D02*
X7519643Y-11545643D01*
X8162500Y-11174214D02*
X8191071Y-11174214D01*
X8219643Y-11188500D01*
X8233928Y-11202786D01*
X8248214Y-11231357D01*
X8262500Y-11288500D01*
X8262500Y-11359929D01*
X8248214Y-11417071D01*
X8233928Y-11445643D01*
X8219643Y-11459929D01*
X8191071Y-11474214D01*
X8162500Y-11474214D01*
X8133928Y-11459929D01*
X8119643Y-11445643D01*
X8105357Y-11417071D01*
X8091071Y-11359929D01*
X8091071Y-11288500D01*
X8105357Y-11231357D01*
X8119643Y-11202786D01*
X8133928Y-11188500D01*
X8162500Y-11174214D01*
X8391071Y-11445643D02*
X8405357Y-11459929D01*
X8391071Y-11474214D01*
X8376786Y-11459929D01*
X8391071Y-11445643D01*
X8391071Y-11474214D01*
X8591071Y-11174214D02*
X8619643Y-11174214D01*
X8648214Y-11188500D01*
X8662500Y-11202786D01*
X8676786Y-11231357D01*
X8691071Y-11288500D01*
X8691071Y-11359929D01*
X8676786Y-11417071D01*
X8662500Y-11445643D01*
X8648214Y-11459929D01*
X8619643Y-11474214D01*
X8591071Y-11474214D01*
X8562500Y-11459929D01*
X8548214Y-11445643D01*
X8533928Y-11417071D01*
X8519643Y-11359929D01*
X8519643Y-11288500D01*
X8533928Y-11231357D01*
X8548214Y-11202786D01*
X8562500Y-11188500D01*
X8591071Y-11174214D01*
X8791071Y-11174214D02*
X8991071Y-11174214D01*
X8862500Y-11474214D01*
X9119643Y-11474214D02*
X9176786Y-11474214D01*
X9205357Y-11459929D01*
X9219643Y-11445643D01*
X9248214Y-11402786D01*
X9262500Y-11345643D01*
X9262500Y-11231357D01*
X9248214Y-11202786D01*
X9233928Y-11188500D01*
X9205357Y-11174214D01*
X9148214Y-11174214D01*
X9119643Y-11188500D01*
X9105357Y-11202786D01*
X9091071Y-11231357D01*
X9091071Y-11302786D01*
X9105357Y-11331357D01*
X9119643Y-11345643D01*
X9148214Y-11359929D01*
X9205357Y-11359929D01*
X9233928Y-11345643D01*
X9248214Y-11331357D01*
X9262500Y-11302786D01*
X9376786Y-11174214D02*
X9376786Y-11231357D01*
X9491071Y-11174214D02*
X9491071Y-11231357D01*
X9933928Y-11588500D02*
X9919643Y-11574214D01*
X9891071Y-11531357D01*
X9876786Y-11502786D01*
X9862500Y-11459929D01*
X9848214Y-11388500D01*
X9848214Y-11331357D01*
X9862500Y-11259929D01*
X9876786Y-11217071D01*
X9891071Y-11188500D01*
X9919643Y-11145643D01*
X9933928Y-11131357D01*
X10033928Y-11202786D02*
X10048214Y-11188500D01*
X10076786Y-11174214D01*
X10148214Y-11174214D01*
X10176786Y-11188500D01*
X10191071Y-11202786D01*
X10205357Y-11231357D01*
X10205357Y-11259929D01*
X10191071Y-11302786D01*
X10019643Y-11474214D01*
X10205357Y-11474214D01*
X10562500Y-11474214D02*
X10562500Y-11174214D01*
X10691071Y-11474214D02*
X10691071Y-11317071D01*
X10676786Y-11288500D01*
X10648214Y-11274214D01*
X10605357Y-11274214D01*
X10576786Y-11288500D01*
X10562500Y-11302786D01*
X10876786Y-11474214D02*
X10848214Y-11459929D01*
X10833928Y-11445643D01*
X10819643Y-11417071D01*
X10819643Y-11331357D01*
X10833928Y-11302786D01*
X10848214Y-11288500D01*
X10876786Y-11274214D01*
X10919643Y-11274214D01*
X10948214Y-11288500D01*
X10962500Y-11302786D01*
X10976786Y-11331357D01*
X10976786Y-11417071D01*
X10962500Y-11445643D01*
X10948214Y-11459929D01*
X10919643Y-11474214D01*
X10876786Y-11474214D01*
X11148214Y-11474214D02*
X11119643Y-11459929D01*
X11105357Y-11431357D01*
X11105357Y-11174214D01*
X11376786Y-11459929D02*
X11348214Y-11474214D01*
X11291071Y-11474214D01*
X11262500Y-11459929D01*
X11248214Y-11431357D01*
X11248214Y-11317071D01*
X11262500Y-11288500D01*
X11291071Y-11274214D01*
X11348214Y-11274214D01*
X11376786Y-11288500D01*
X11391071Y-11317071D01*
X11391071Y-11345643D01*
X11248214Y-11374214D01*
X11505357Y-11459929D02*
X11533928Y-11474214D01*
X11591071Y-11474214D01*
X11619643Y-11459929D01*
X11633928Y-11431357D01*
X11633928Y-11417071D01*
X11619643Y-11388500D01*
X11591071Y-11374214D01*
X11548214Y-11374214D01*
X11519643Y-11359929D01*
X11505357Y-11331357D01*
X11505357Y-11317071D01*
X11519643Y-11288500D01*
X11548214Y-11274214D01*
X11591071Y-11274214D01*
X11619643Y-11288500D01*
X11991071Y-11359929D02*
X12219643Y-11359929D01*
X12105357Y-11474214D02*
X12105357Y-11245643D01*
X12748214Y-11474214D02*
X12576786Y-11474214D01*
X12662500Y-11474214D02*
X12662500Y-11174214D01*
X12633928Y-11217071D01*
X12605357Y-11245643D01*
X12576786Y-11259929D01*
X13091071Y-11459929D02*
X13119643Y-11474214D01*
X13176786Y-11474214D01*
X13205357Y-11459929D01*
X13219643Y-11431357D01*
X13219643Y-11417071D01*
X13205357Y-11388500D01*
X13176786Y-11374214D01*
X13133928Y-11374214D01*
X13105357Y-11359929D01*
X13091071Y-11331357D01*
X13091071Y-11317071D01*
X13105357Y-11288500D01*
X13133928Y-11274214D01*
X13176786Y-11274214D01*
X13205357Y-11288500D01*
X13391071Y-11474214D02*
X13362500Y-11459929D01*
X13348214Y-11431357D01*
X13348214Y-11174214D01*
X13548214Y-11474214D02*
X13519643Y-11459929D01*
X13505357Y-11445643D01*
X13491071Y-11417071D01*
X13491071Y-11331357D01*
X13505357Y-11302786D01*
X13519643Y-11288500D01*
X13548214Y-11274214D01*
X13591071Y-11274214D01*
X13619643Y-11288500D01*
X13633928Y-11302786D01*
X13648214Y-11331357D01*
X13648214Y-11417071D01*
X13633928Y-11445643D01*
X13619643Y-11459929D01*
X13591071Y-11474214D01*
X13548214Y-11474214D01*
X13733928Y-11274214D02*
X13848214Y-11274214D01*
X13776786Y-11174214D02*
X13776786Y-11431357D01*
X13791071Y-11459929D01*
X13819643Y-11474214D01*
X13848214Y-11474214D01*
X13919643Y-11588500D02*
X13933928Y-11574214D01*
X13962500Y-11531357D01*
X13976786Y-11502786D01*
X13991071Y-11459929D01*
X14005357Y-11388500D01*
X14005357Y-11331357D01*
X13991071Y-11259929D01*
X13976786Y-11217071D01*
X13962500Y-11188500D01*
X13933928Y-11145643D01*
X13919643Y-11131357D01*
X5027500Y-11624500D02*
X5247500Y-11844500D01*
X5247500Y-11624500D02*
X5027500Y-11844500D01*
X5215282Y-11812283D02*
X5215282Y-11656718D01*
X5059717Y-11656718D01*
X5059717Y-11812283D01*
X5215282Y-11812283D01*
X5519643Y-11598786D02*
X5533928Y-11584500D01*
X5562500Y-11570214D01*
X5633928Y-11570214D01*
X5662500Y-11584500D01*
X5676786Y-11598786D01*
X5691071Y-11627357D01*
X5691071Y-11655929D01*
X5676786Y-11698786D01*
X5505357Y-11870214D01*
X5691071Y-11870214D01*
X5819643Y-11841643D02*
X5833928Y-11855929D01*
X5819643Y-11870214D01*
X5805357Y-11855929D01*
X5819643Y-11841643D01*
X5819643Y-11870214D01*
X5948214Y-11598786D02*
X5962500Y-11584500D01*
X5991071Y-11570214D01*
X6062500Y-11570214D01*
X6091071Y-11584500D01*
X6105357Y-11598786D01*
X6119643Y-11627357D01*
X6119643Y-11655929D01*
X6105357Y-11698786D01*
X5933928Y-11870214D01*
X6119643Y-11870214D01*
X6305357Y-11570214D02*
X6333928Y-11570214D01*
X6362500Y-11584500D01*
X6376786Y-11598786D01*
X6391071Y-11627357D01*
X6405357Y-11684500D01*
X6405357Y-11755929D01*
X6391071Y-11813071D01*
X6376786Y-11841643D01*
X6362500Y-11855929D01*
X6333928Y-11870214D01*
X6305357Y-11870214D01*
X6276786Y-11855929D01*
X6262500Y-11841643D01*
X6248214Y-11813071D01*
X6233928Y-11755929D01*
X6233928Y-11684500D01*
X6248214Y-11627357D01*
X6262500Y-11598786D01*
X6276786Y-11584500D01*
X6305357Y-11570214D01*
X6533928Y-11870214D02*
X6533928Y-11670214D01*
X6533928Y-11698786D02*
X6548214Y-11684500D01*
X6576786Y-11670214D01*
X6619643Y-11670214D01*
X6648214Y-11684500D01*
X6662500Y-11713071D01*
X6662500Y-11870214D01*
X6662500Y-11713071D02*
X6676786Y-11684500D01*
X6705357Y-11670214D01*
X6748214Y-11670214D01*
X6776786Y-11684500D01*
X6791071Y-11713071D01*
X6791071Y-11870214D01*
X6933928Y-11870214D02*
X6933928Y-11670214D01*
X6933928Y-11698786D02*
X6948214Y-11684500D01*
X6976786Y-11670214D01*
X7019643Y-11670214D01*
X7048214Y-11684500D01*
X7062500Y-11713071D01*
X7062500Y-11870214D01*
X7062500Y-11713071D02*
X7076786Y-11684500D01*
X7105357Y-11670214D01*
X7148214Y-11670214D01*
X7176786Y-11684500D01*
X7191071Y-11713071D01*
X7191071Y-11870214D01*
X7776786Y-11555929D02*
X7519643Y-11941643D01*
X8162500Y-11570214D02*
X8191071Y-11570214D01*
X8219643Y-11584500D01*
X8233928Y-11598786D01*
X8248214Y-11627357D01*
X8262500Y-11684500D01*
X8262500Y-11755929D01*
X8248214Y-11813071D01*
X8233928Y-11841643D01*
X8219643Y-11855929D01*
X8191071Y-11870214D01*
X8162500Y-11870214D01*
X8133928Y-11855929D01*
X8119643Y-11841643D01*
X8105357Y-11813071D01*
X8091071Y-11755929D01*
X8091071Y-11684500D01*
X8105357Y-11627357D01*
X8119643Y-11598786D01*
X8133928Y-11584500D01*
X8162500Y-11570214D01*
X8391071Y-11841643D02*
X8405357Y-11855929D01*
X8391071Y-11870214D01*
X8376786Y-11855929D01*
X8391071Y-11841643D01*
X8391071Y-11870214D01*
X8591071Y-11570214D02*
X8619643Y-11570214D01*
X8648214Y-11584500D01*
X8662500Y-11598786D01*
X8676786Y-11627357D01*
X8691071Y-11684500D01*
X8691071Y-11755929D01*
X8676786Y-11813071D01*
X8662500Y-11841643D01*
X8648214Y-11855929D01*
X8619643Y-11870214D01*
X8591071Y-11870214D01*
X8562500Y-11855929D01*
X8548214Y-11841643D01*
X8533928Y-11813071D01*
X8519643Y-11755929D01*
X8519643Y-11684500D01*
X8533928Y-11627357D01*
X8548214Y-11598786D01*
X8562500Y-11584500D01*
X8591071Y-11570214D01*
X8862500Y-11698786D02*
X8833928Y-11684500D01*
X8819643Y-11670214D01*
X8805357Y-11641643D01*
X8805357Y-11627357D01*
X8819643Y-11598786D01*
X8833928Y-11584500D01*
X8862500Y-11570214D01*
X8919643Y-11570214D01*
X8948214Y-11584500D01*
X8962500Y-11598786D01*
X8976786Y-11627357D01*
X8976786Y-11641643D01*
X8962500Y-11670214D01*
X8948214Y-11684500D01*
X8919643Y-11698786D01*
X8862500Y-11698786D01*
X8833928Y-11713071D01*
X8819643Y-11727357D01*
X8805357Y-11755929D01*
X8805357Y-11813071D01*
X8819643Y-11841643D01*
X8833928Y-11855929D01*
X8862500Y-11870214D01*
X8919643Y-11870214D01*
X8948214Y-11855929D01*
X8962500Y-11841643D01*
X8976786Y-11813071D01*
X8976786Y-11755929D01*
X8962500Y-11727357D01*
X8948214Y-11713071D01*
X8919643Y-11698786D01*
X9076786Y-11570214D02*
X9276786Y-11570214D01*
X9148214Y-11870214D01*
X9376786Y-11570214D02*
X9376786Y-11627357D01*
X9491071Y-11570214D02*
X9491071Y-11627357D01*
X9933928Y-11984500D02*
X9919643Y-11970214D01*
X9891071Y-11927357D01*
X9876786Y-11898786D01*
X9862500Y-11855929D01*
X9848214Y-11784500D01*
X9848214Y-11727357D01*
X9862500Y-11655929D01*
X9876786Y-11613071D01*
X9891071Y-11584500D01*
X9919643Y-11541643D01*
X9933928Y-11527357D01*
X10205357Y-11870214D02*
X10033928Y-11870214D01*
X10119643Y-11870214D02*
X10119643Y-11570214D01*
X10091071Y-11613071D01*
X10062500Y-11641643D01*
X10033928Y-11655929D01*
X10462500Y-11670214D02*
X10462500Y-11870214D01*
X10391071Y-11555929D02*
X10319643Y-11770214D01*
X10505357Y-11770214D01*
X10848214Y-11870214D02*
X10848214Y-11570214D01*
X10976786Y-11870214D02*
X10976786Y-11713071D01*
X10962500Y-11684500D01*
X10933928Y-11670214D01*
X10891071Y-11670214D01*
X10862500Y-11684500D01*
X10848214Y-11698786D01*
X11162500Y-11870214D02*
X11133928Y-11855929D01*
X11119643Y-11841643D01*
X11105357Y-11813071D01*
X11105357Y-11727357D01*
X11119643Y-11698786D01*
X11133928Y-11684500D01*
X11162500Y-11670214D01*
X11205357Y-11670214D01*
X11233928Y-11684500D01*
X11248214Y-11698786D01*
X11262500Y-11727357D01*
X11262500Y-11813071D01*
X11248214Y-11841643D01*
X11233928Y-11855929D01*
X11205357Y-11870214D01*
X11162500Y-11870214D01*
X11433928Y-11870214D02*
X11405357Y-11855929D01*
X11391071Y-11827357D01*
X11391071Y-11570214D01*
X11662500Y-11855929D02*
X11633928Y-11870214D01*
X11576786Y-11870214D01*
X11548214Y-11855929D01*
X11533928Y-11827357D01*
X11533928Y-11713071D01*
X11548214Y-11684500D01*
X11576786Y-11670214D01*
X11633928Y-11670214D01*
X11662500Y-11684500D01*
X11676786Y-11713071D01*
X11676786Y-11741643D01*
X11533928Y-11770214D01*
X11791071Y-11855929D02*
X11819643Y-11870214D01*
X11876786Y-11870214D01*
X11905357Y-11855929D01*
X11919643Y-11827357D01*
X11919643Y-11813071D01*
X11905357Y-11784500D01*
X11876786Y-11770214D01*
X11833928Y-11770214D01*
X11805357Y-11755929D01*
X11791071Y-11727357D01*
X11791071Y-11713071D01*
X11805357Y-11684500D01*
X11833928Y-11670214D01*
X11876786Y-11670214D01*
X11905357Y-11684500D01*
X12019643Y-11984500D02*
X12033928Y-11970214D01*
X12062500Y-11927357D01*
X12076786Y-11898786D01*
X12091071Y-11855929D01*
X12105357Y-11784500D01*
X12105357Y-11727357D01*
X12091071Y-11655929D01*
X12076786Y-11613071D01*
X12062500Y-11584500D01*
X12033928Y-11541643D01*
X12019643Y-11527357D01*
X4947500Y-11980500D02*
X5247500Y-12280500D01*
X5247500Y-11980500D02*
X4947500Y-12280500D01*
X5097500Y-12280500D02*
X5247500Y-12130500D01*
X5097500Y-11980500D01*
X4947500Y-12130500D01*
X5097500Y-12280500D01*
X5505357Y-11966214D02*
X5691071Y-11966214D01*
X5591071Y-12080500D01*
X5633928Y-12080500D01*
X5662500Y-12094786D01*
X5676786Y-12109071D01*
X5691071Y-12137643D01*
X5691071Y-12209071D01*
X5676786Y-12237643D01*
X5662500Y-12251929D01*
X5633928Y-12266214D01*
X5548214Y-12266214D01*
X5519643Y-12251929D01*
X5505357Y-12237643D01*
X5819643Y-12237643D02*
X5833928Y-12251929D01*
X5819643Y-12266214D01*
X5805357Y-12251929D01*
X5819643Y-12237643D01*
X5819643Y-12266214D01*
X6019643Y-11966214D02*
X6048214Y-11966214D01*
X6076786Y-11980500D01*
X6091071Y-11994786D01*
X6105357Y-12023357D01*
X6119643Y-12080500D01*
X6119643Y-12151929D01*
X6105357Y-12209071D01*
X6091071Y-12237643D01*
X6076786Y-12251929D01*
X6048214Y-12266214D01*
X6019643Y-12266214D01*
X5991071Y-12251929D01*
X5976786Y-12237643D01*
X5962500Y-12209071D01*
X5948214Y-12151929D01*
X5948214Y-12080500D01*
X5962500Y-12023357D01*
X5976786Y-11994786D01*
X5991071Y-11980500D01*
X6019643Y-11966214D01*
X6305357Y-11966214D02*
X6333928Y-11966214D01*
X6362500Y-11980500D01*
X6376786Y-11994786D01*
X6391071Y-12023357D01*
X6405357Y-12080500D01*
X6405357Y-12151929D01*
X6391071Y-12209071D01*
X6376786Y-12237643D01*
X6362500Y-12251929D01*
X6333928Y-12266214D01*
X6305357Y-12266214D01*
X6276786Y-12251929D01*
X6262500Y-12237643D01*
X6248214Y-12209071D01*
X6233928Y-12151929D01*
X6233928Y-12080500D01*
X6248214Y-12023357D01*
X6262500Y-11994786D01*
X6276786Y-11980500D01*
X6305357Y-11966214D01*
X6533928Y-12266214D02*
X6533928Y-12066214D01*
X6533928Y-12094786D02*
X6548214Y-12080500D01*
X6576786Y-12066214D01*
X6619643Y-12066214D01*
X6648214Y-12080500D01*
X6662500Y-12109071D01*
X6662500Y-12266214D01*
X6662500Y-12109071D02*
X6676786Y-12080500D01*
X6705357Y-12066214D01*
X6748214Y-12066214D01*
X6776786Y-12080500D01*
X6791071Y-12109071D01*
X6791071Y-12266214D01*
X6933928Y-12266214D02*
X6933928Y-12066214D01*
X6933928Y-12094786D02*
X6948214Y-12080500D01*
X6976786Y-12066214D01*
X7019643Y-12066214D01*
X7048214Y-12080500D01*
X7062500Y-12109071D01*
X7062500Y-12266214D01*
X7062500Y-12109071D02*
X7076786Y-12080500D01*
X7105357Y-12066214D01*
X7148214Y-12066214D01*
X7176786Y-12080500D01*
X7191071Y-12109071D01*
X7191071Y-12266214D01*
X7776786Y-11951929D02*
X7519643Y-12337643D01*
X8162500Y-11966214D02*
X8191071Y-11966214D01*
X8219643Y-11980500D01*
X8233928Y-11994786D01*
X8248214Y-12023357D01*
X8262500Y-12080500D01*
X8262500Y-12151929D01*
X8248214Y-12209071D01*
X8233928Y-12237643D01*
X8219643Y-12251929D01*
X8191071Y-12266214D01*
X8162500Y-12266214D01*
X8133928Y-12251929D01*
X8119643Y-12237643D01*
X8105357Y-12209071D01*
X8091071Y-12151929D01*
X8091071Y-12080500D01*
X8105357Y-12023357D01*
X8119643Y-11994786D01*
X8133928Y-11980500D01*
X8162500Y-11966214D01*
X8391071Y-12237643D02*
X8405357Y-12251929D01*
X8391071Y-12266214D01*
X8376786Y-12251929D01*
X8391071Y-12237643D01*
X8391071Y-12266214D01*
X8691071Y-12266214D02*
X8519643Y-12266214D01*
X8605357Y-12266214D02*
X8605357Y-11966214D01*
X8576786Y-12009071D01*
X8548214Y-12037643D01*
X8519643Y-12051929D01*
X8976786Y-12266214D02*
X8805357Y-12266214D01*
X8891071Y-12266214D02*
X8891071Y-11966214D01*
X8862500Y-12009071D01*
X8833928Y-12037643D01*
X8805357Y-12051929D01*
X9148214Y-12094786D02*
X9119643Y-12080500D01*
X9105357Y-12066214D01*
X9091071Y-12037643D01*
X9091071Y-12023357D01*
X9105357Y-11994786D01*
X9119643Y-11980500D01*
X9148214Y-11966214D01*
X9205357Y-11966214D01*
X9233928Y-11980500D01*
X9248214Y-11994786D01*
X9262500Y-12023357D01*
X9262500Y-12037643D01*
X9248214Y-12066214D01*
X9233928Y-12080500D01*
X9205357Y-12094786D01*
X9148214Y-12094786D01*
X9119643Y-12109071D01*
X9105357Y-12123357D01*
X9091071Y-12151929D01*
X9091071Y-12209071D01*
X9105357Y-12237643D01*
X9119643Y-12251929D01*
X9148214Y-12266214D01*
X9205357Y-12266214D01*
X9233928Y-12251929D01*
X9248214Y-12237643D01*
X9262500Y-12209071D01*
X9262500Y-12151929D01*
X9248214Y-12123357D01*
X9233928Y-12109071D01*
X9205357Y-12094786D01*
X9376786Y-11966214D02*
X9376786Y-12023357D01*
X9491071Y-11966214D02*
X9491071Y-12023357D01*
X9933928Y-12380500D02*
X9919643Y-12366214D01*
X9891071Y-12323357D01*
X9876786Y-12294786D01*
X9862500Y-12251929D01*
X9848214Y-12180500D01*
X9848214Y-12123357D01*
X9862500Y-12051929D01*
X9876786Y-12009071D01*
X9891071Y-11980500D01*
X9919643Y-11937643D01*
X9933928Y-11923357D01*
X10033928Y-11994786D02*
X10048214Y-11980500D01*
X10076786Y-11966214D01*
X10148214Y-11966214D01*
X10176786Y-11980500D01*
X10191071Y-11994786D01*
X10205357Y-12023357D01*
X10205357Y-12051929D01*
X10191071Y-12094786D01*
X10019643Y-12266214D01*
X10205357Y-12266214D01*
X10562500Y-12266214D02*
X10562500Y-11966214D01*
X10691071Y-12266214D02*
X10691071Y-12109071D01*
X10676786Y-12080500D01*
X10648214Y-12066214D01*
X10605357Y-12066214D01*
X10576786Y-12080500D01*
X10562500Y-12094786D01*
X10876786Y-12266214D02*
X10848214Y-12251929D01*
X10833928Y-12237643D01*
X10819643Y-12209071D01*
X10819643Y-12123357D01*
X10833928Y-12094786D01*
X10848214Y-12080500D01*
X10876786Y-12066214D01*
X10919643Y-12066214D01*
X10948214Y-12080500D01*
X10962500Y-12094786D01*
X10976786Y-12123357D01*
X10976786Y-12209071D01*
X10962500Y-12237643D01*
X10948214Y-12251929D01*
X10919643Y-12266214D01*
X10876786Y-12266214D01*
X11148214Y-12266214D02*
X11119643Y-12251929D01*
X11105357Y-12223357D01*
X11105357Y-11966214D01*
X11376786Y-12251929D02*
X11348214Y-12266214D01*
X11291071Y-12266214D01*
X11262500Y-12251929D01*
X11248214Y-12223357D01*
X11248214Y-12109071D01*
X11262500Y-12080500D01*
X11291071Y-12066214D01*
X11348214Y-12066214D01*
X11376786Y-12080500D01*
X11391071Y-12109071D01*
X11391071Y-12137643D01*
X11248214Y-12166214D01*
X11505357Y-12251929D02*
X11533928Y-12266214D01*
X11591071Y-12266214D01*
X11619643Y-12251929D01*
X11633928Y-12223357D01*
X11633928Y-12209071D01*
X11619643Y-12180500D01*
X11591071Y-12166214D01*
X11548214Y-12166214D01*
X11519643Y-12151929D01*
X11505357Y-12123357D01*
X11505357Y-12109071D01*
X11519643Y-12080500D01*
X11548214Y-12066214D01*
X11591071Y-12066214D01*
X11619643Y-12080500D01*
X11733928Y-12380500D02*
X11748214Y-12366214D01*
X11776786Y-12323357D01*
X11791071Y-12294786D01*
X11805357Y-12251929D01*
X11819643Y-12180500D01*
X11819643Y-12123357D01*
X11805357Y-12051929D01*
X11791071Y-12009071D01*
X11776786Y-11980500D01*
X11748214Y-11937643D01*
X11733928Y-11923357D01*
X5072500Y-12385500D02*
X5072500Y-12735500D01*
X4897500Y-12560500D02*
X5247500Y-12560500D01*
X5247500Y-12560500D02*
G75*
G03*
X5247500Y-12560500I-175000J0D01*
G01*
X5505357Y-12396214D02*
X5691071Y-12396214D01*
X5591071Y-12510500D01*
X5633928Y-12510500D01*
X5662500Y-12524786D01*
X5676786Y-12539071D01*
X5691071Y-12567643D01*
X5691071Y-12639071D01*
X5676786Y-12667643D01*
X5662500Y-12681929D01*
X5633928Y-12696214D01*
X5548214Y-12696214D01*
X5519643Y-12681929D01*
X5505357Y-12667643D01*
X5819643Y-12667643D02*
X5833928Y-12681929D01*
X5819643Y-12696214D01*
X5805357Y-12681929D01*
X5819643Y-12667643D01*
X5819643Y-12696214D01*
X6105357Y-12396214D02*
X5962500Y-12396214D01*
X5948214Y-12539071D01*
X5962500Y-12524786D01*
X5991071Y-12510500D01*
X6062500Y-12510500D01*
X6091071Y-12524786D01*
X6105357Y-12539071D01*
X6119643Y-12567643D01*
X6119643Y-12639071D01*
X6105357Y-12667643D01*
X6091071Y-12681929D01*
X6062500Y-12696214D01*
X5991071Y-12696214D01*
X5962500Y-12681929D01*
X5948214Y-12667643D01*
X6305357Y-12396214D02*
X6333928Y-12396214D01*
X6362500Y-12410500D01*
X6376786Y-12424786D01*
X6391071Y-12453357D01*
X6405357Y-12510500D01*
X6405357Y-12581929D01*
X6391071Y-12639071D01*
X6376786Y-12667643D01*
X6362500Y-12681929D01*
X6333928Y-12696214D01*
X6305357Y-12696214D01*
X6276786Y-12681929D01*
X6262500Y-12667643D01*
X6248214Y-12639071D01*
X6233928Y-12581929D01*
X6233928Y-12510500D01*
X6248214Y-12453357D01*
X6262500Y-12424786D01*
X6276786Y-12410500D01*
X6305357Y-12396214D01*
X6533928Y-12696214D02*
X6533928Y-12496214D01*
X6533928Y-12524786D02*
X6548214Y-12510500D01*
X6576786Y-12496214D01*
X6619643Y-12496214D01*
X6648214Y-12510500D01*
X6662500Y-12539071D01*
X6662500Y-12696214D01*
X6662500Y-12539071D02*
X6676786Y-12510500D01*
X6705357Y-12496214D01*
X6748214Y-12496214D01*
X6776786Y-12510500D01*
X6791071Y-12539071D01*
X6791071Y-12696214D01*
X6933928Y-12696214D02*
X6933928Y-12496214D01*
X6933928Y-12524786D02*
X6948214Y-12510500D01*
X6976786Y-12496214D01*
X7019643Y-12496214D01*
X7048214Y-12510500D01*
X7062500Y-12539071D01*
X7062500Y-12696214D01*
X7062500Y-12539071D02*
X7076786Y-12510500D01*
X7105357Y-12496214D01*
X7148214Y-12496214D01*
X7176786Y-12510500D01*
X7191071Y-12539071D01*
X7191071Y-12696214D01*
X7776786Y-12381929D02*
X7519643Y-12767643D01*
X8162500Y-12396214D02*
X8191071Y-12396214D01*
X8219643Y-12410500D01*
X8233928Y-12424786D01*
X8248214Y-12453357D01*
X8262500Y-12510500D01*
X8262500Y-12581929D01*
X8248214Y-12639071D01*
X8233928Y-12667643D01*
X8219643Y-12681929D01*
X8191071Y-12696214D01*
X8162500Y-12696214D01*
X8133928Y-12681929D01*
X8119643Y-12667643D01*
X8105357Y-12639071D01*
X8091071Y-12581929D01*
X8091071Y-12510500D01*
X8105357Y-12453357D01*
X8119643Y-12424786D01*
X8133928Y-12410500D01*
X8162500Y-12396214D01*
X8391071Y-12667643D02*
X8405357Y-12681929D01*
X8391071Y-12696214D01*
X8376786Y-12681929D01*
X8391071Y-12667643D01*
X8391071Y-12696214D01*
X8691071Y-12696214D02*
X8519643Y-12696214D01*
X8605357Y-12696214D02*
X8605357Y-12396214D01*
X8576786Y-12439071D01*
X8548214Y-12467643D01*
X8519643Y-12481929D01*
X8791071Y-12396214D02*
X8976786Y-12396214D01*
X8876786Y-12510500D01*
X8919643Y-12510500D01*
X8948214Y-12524786D01*
X8962500Y-12539071D01*
X8976786Y-12567643D01*
X8976786Y-12639071D01*
X8962500Y-12667643D01*
X8948214Y-12681929D01*
X8919643Y-12696214D01*
X8833928Y-12696214D01*
X8805357Y-12681929D01*
X8791071Y-12667643D01*
X9148214Y-12524786D02*
X9119643Y-12510500D01*
X9105357Y-12496214D01*
X9091071Y-12467643D01*
X9091071Y-12453357D01*
X9105357Y-12424786D01*
X9119643Y-12410500D01*
X9148214Y-12396214D01*
X9205357Y-12396214D01*
X9233928Y-12410500D01*
X9248214Y-12424786D01*
X9262500Y-12453357D01*
X9262500Y-12467643D01*
X9248214Y-12496214D01*
X9233928Y-12510500D01*
X9205357Y-12524786D01*
X9148214Y-12524786D01*
X9119643Y-12539071D01*
X9105357Y-12553357D01*
X9091071Y-12581929D01*
X9091071Y-12639071D01*
X9105357Y-12667643D01*
X9119643Y-12681929D01*
X9148214Y-12696214D01*
X9205357Y-12696214D01*
X9233928Y-12681929D01*
X9248214Y-12667643D01*
X9262500Y-12639071D01*
X9262500Y-12581929D01*
X9248214Y-12553357D01*
X9233928Y-12539071D01*
X9205357Y-12524786D01*
X9376786Y-12396214D02*
X9376786Y-12453357D01*
X9491071Y-12396214D02*
X9491071Y-12453357D01*
X9933928Y-12810500D02*
X9919643Y-12796214D01*
X9891071Y-12753357D01*
X9876786Y-12724786D01*
X9862500Y-12681929D01*
X9848214Y-12610500D01*
X9848214Y-12553357D01*
X9862500Y-12481929D01*
X9876786Y-12439071D01*
X9891071Y-12410500D01*
X9919643Y-12367643D01*
X9933928Y-12353357D01*
X10176786Y-12496214D02*
X10176786Y-12696214D01*
X10105357Y-12381929D02*
X10033928Y-12596214D01*
X10219643Y-12596214D01*
X10562500Y-12696214D02*
X10562500Y-12396214D01*
X10691071Y-12696214D02*
X10691071Y-12539071D01*
X10676786Y-12510500D01*
X10648214Y-12496214D01*
X10605357Y-12496214D01*
X10576786Y-12510500D01*
X10562500Y-12524786D01*
X10876786Y-12696214D02*
X10848214Y-12681929D01*
X10833928Y-12667643D01*
X10819643Y-12639071D01*
X10819643Y-12553357D01*
X10833928Y-12524786D01*
X10848214Y-12510500D01*
X10876786Y-12496214D01*
X10919643Y-12496214D01*
X10948214Y-12510500D01*
X10962500Y-12524786D01*
X10976786Y-12553357D01*
X10976786Y-12639071D01*
X10962500Y-12667643D01*
X10948214Y-12681929D01*
X10919643Y-12696214D01*
X10876786Y-12696214D01*
X11148214Y-12696214D02*
X11119643Y-12681929D01*
X11105357Y-12653357D01*
X11105357Y-12396214D01*
X11376786Y-12681929D02*
X11348214Y-12696214D01*
X11291071Y-12696214D01*
X11262500Y-12681929D01*
X11248214Y-12653357D01*
X11248214Y-12539071D01*
X11262500Y-12510500D01*
X11291071Y-12496214D01*
X11348214Y-12496214D01*
X11376786Y-12510500D01*
X11391071Y-12539071D01*
X11391071Y-12567643D01*
X11248214Y-12596214D01*
X11505357Y-12681929D02*
X11533928Y-12696214D01*
X11591071Y-12696214D01*
X11619643Y-12681929D01*
X11633928Y-12653357D01*
X11633928Y-12639071D01*
X11619643Y-12610500D01*
X11591071Y-12596214D01*
X11548214Y-12596214D01*
X11519643Y-12581929D01*
X11505357Y-12553357D01*
X11505357Y-12539071D01*
X11519643Y-12510500D01*
X11548214Y-12496214D01*
X11591071Y-12496214D01*
X11619643Y-12510500D01*
X11733928Y-12810500D02*
X11748214Y-12796214D01*
X11776786Y-12753357D01*
X11791071Y-12724786D01*
X11805357Y-12681929D01*
X11819643Y-12610500D01*
X11819643Y-12553357D01*
X11805357Y-12481929D01*
X11791071Y-12439071D01*
X11776786Y-12410500D01*
X11748214Y-12367643D01*
X11733928Y-12353357D01*
X5188923Y-13181923D02*
X5188923Y-12899077D01*
X4906077Y-12899077D01*
X4906077Y-13181923D01*
X5188923Y-13181923D01*
X5247500Y-13040500D02*
G75*
G03*
X5247500Y-13040500I-200000J0D01*
G01*
X5662500Y-12976214D02*
X5662500Y-13176214D01*
X5591071Y-12861929D02*
X5519643Y-13076214D01*
X5705357Y-13076214D01*
X5819643Y-13147643D02*
X5833928Y-13161929D01*
X5819643Y-13176214D01*
X5805357Y-13161929D01*
X5819643Y-13147643D01*
X5819643Y-13176214D01*
X6019643Y-12876214D02*
X6048214Y-12876214D01*
X6076786Y-12890500D01*
X6091071Y-12904786D01*
X6105357Y-12933357D01*
X6119643Y-12990500D01*
X6119643Y-13061929D01*
X6105357Y-13119071D01*
X6091071Y-13147643D01*
X6076786Y-13161929D01*
X6048214Y-13176214D01*
X6019643Y-13176214D01*
X5991071Y-13161929D01*
X5976786Y-13147643D01*
X5962500Y-13119071D01*
X5948214Y-13061929D01*
X5948214Y-12990500D01*
X5962500Y-12933357D01*
X5976786Y-12904786D01*
X5991071Y-12890500D01*
X6019643Y-12876214D01*
X6305357Y-12876214D02*
X6333928Y-12876214D01*
X6362500Y-12890500D01*
X6376786Y-12904786D01*
X6391071Y-12933357D01*
X6405357Y-12990500D01*
X6405357Y-13061929D01*
X6391071Y-13119071D01*
X6376786Y-13147643D01*
X6362500Y-13161929D01*
X6333928Y-13176214D01*
X6305357Y-13176214D01*
X6276786Y-13161929D01*
X6262500Y-13147643D01*
X6248214Y-13119071D01*
X6233928Y-13061929D01*
X6233928Y-12990500D01*
X6248214Y-12933357D01*
X6262500Y-12904786D01*
X6276786Y-12890500D01*
X6305357Y-12876214D01*
X6533928Y-13176214D02*
X6533928Y-12976214D01*
X6533928Y-13004786D02*
X6548214Y-12990500D01*
X6576786Y-12976214D01*
X6619643Y-12976214D01*
X6648214Y-12990500D01*
X6662500Y-13019071D01*
X6662500Y-13176214D01*
X6662500Y-13019071D02*
X6676786Y-12990500D01*
X6705357Y-12976214D01*
X6748214Y-12976214D01*
X6776786Y-12990500D01*
X6791071Y-13019071D01*
X6791071Y-13176214D01*
X6933928Y-13176214D02*
X6933928Y-12976214D01*
X6933928Y-13004786D02*
X6948214Y-12990500D01*
X6976786Y-12976214D01*
X7019643Y-12976214D01*
X7048214Y-12990500D01*
X7062500Y-13019071D01*
X7062500Y-13176214D01*
X7062500Y-13019071D02*
X7076786Y-12990500D01*
X7105357Y-12976214D01*
X7148214Y-12976214D01*
X7176786Y-12990500D01*
X7191071Y-13019071D01*
X7191071Y-13176214D01*
X7776786Y-12861929D02*
X7519643Y-13247643D01*
X8162500Y-12876214D02*
X8191071Y-12876214D01*
X8219643Y-12890500D01*
X8233928Y-12904786D01*
X8248214Y-12933357D01*
X8262500Y-12990500D01*
X8262500Y-13061929D01*
X8248214Y-13119071D01*
X8233928Y-13147643D01*
X8219643Y-13161929D01*
X8191071Y-13176214D01*
X8162500Y-13176214D01*
X8133928Y-13161929D01*
X8119643Y-13147643D01*
X8105357Y-13119071D01*
X8091071Y-13061929D01*
X8091071Y-12990500D01*
X8105357Y-12933357D01*
X8119643Y-12904786D01*
X8133928Y-12890500D01*
X8162500Y-12876214D01*
X8391071Y-13147643D02*
X8405357Y-13161929D01*
X8391071Y-13176214D01*
X8376786Y-13161929D01*
X8391071Y-13147643D01*
X8391071Y-13176214D01*
X8691071Y-13176214D02*
X8519643Y-13176214D01*
X8605357Y-13176214D02*
X8605357Y-12876214D01*
X8576786Y-12919071D01*
X8548214Y-12947643D01*
X8519643Y-12961929D01*
X8962500Y-12876214D02*
X8819643Y-12876214D01*
X8805357Y-13019071D01*
X8819643Y-13004786D01*
X8848214Y-12990500D01*
X8919643Y-12990500D01*
X8948214Y-13004786D01*
X8962500Y-13019071D01*
X8976786Y-13047643D01*
X8976786Y-13119071D01*
X8962500Y-13147643D01*
X8948214Y-13161929D01*
X8919643Y-13176214D01*
X8848214Y-13176214D01*
X8819643Y-13161929D01*
X8805357Y-13147643D01*
X9076786Y-12876214D02*
X9276786Y-12876214D01*
X9148214Y-13176214D01*
X9376786Y-12876214D02*
X9376786Y-12933357D01*
X9491071Y-12876214D02*
X9491071Y-12933357D01*
X9933928Y-13290500D02*
X9919643Y-13276214D01*
X9891071Y-13233357D01*
X9876786Y-13204786D01*
X9862500Y-13161929D01*
X9848214Y-13090500D01*
X9848214Y-13033357D01*
X9862500Y-12961929D01*
X9876786Y-12919071D01*
X9891071Y-12890500D01*
X9919643Y-12847643D01*
X9933928Y-12833357D01*
X10033928Y-12904786D02*
X10048214Y-12890500D01*
X10076786Y-12876214D01*
X10148214Y-12876214D01*
X10176786Y-12890500D01*
X10191071Y-12904786D01*
X10205357Y-12933357D01*
X10205357Y-12961929D01*
X10191071Y-13004786D01*
X10019643Y-13176214D01*
X10205357Y-13176214D01*
X10562500Y-13176214D02*
X10562500Y-12876214D01*
X10691071Y-13176214D02*
X10691071Y-13019071D01*
X10676786Y-12990500D01*
X10648214Y-12976214D01*
X10605357Y-12976214D01*
X10576786Y-12990500D01*
X10562500Y-13004786D01*
X10876786Y-13176214D02*
X10848214Y-13161929D01*
X10833928Y-13147643D01*
X10819643Y-13119071D01*
X10819643Y-13033357D01*
X10833928Y-13004786D01*
X10848214Y-12990500D01*
X10876786Y-12976214D01*
X10919643Y-12976214D01*
X10948214Y-12990500D01*
X10962500Y-13004786D01*
X10976786Y-13033357D01*
X10976786Y-13119071D01*
X10962500Y-13147643D01*
X10948214Y-13161929D01*
X10919643Y-13176214D01*
X10876786Y-13176214D01*
X11148214Y-13176214D02*
X11119643Y-13161929D01*
X11105357Y-13133357D01*
X11105357Y-12876214D01*
X11376786Y-13161929D02*
X11348214Y-13176214D01*
X11291071Y-13176214D01*
X11262500Y-13161929D01*
X11248214Y-13133357D01*
X11248214Y-13019071D01*
X11262500Y-12990500D01*
X11291071Y-12976214D01*
X11348214Y-12976214D01*
X11376786Y-12990500D01*
X11391071Y-13019071D01*
X11391071Y-13047643D01*
X11248214Y-13076214D01*
X11505357Y-13161929D02*
X11533928Y-13176214D01*
X11591071Y-13176214D01*
X11619643Y-13161929D01*
X11633928Y-13133357D01*
X11633928Y-13119071D01*
X11619643Y-13090500D01*
X11591071Y-13076214D01*
X11548214Y-13076214D01*
X11519643Y-13061929D01*
X11505357Y-13033357D01*
X11505357Y-13019071D01*
X11519643Y-12990500D01*
X11548214Y-12976214D01*
X11591071Y-12976214D01*
X11619643Y-12990500D01*
X11733928Y-13290500D02*
X11748214Y-13276214D01*
X11776786Y-13233357D01*
X11791071Y-13204786D01*
X11805357Y-13161929D01*
X11819643Y-13090500D01*
X11819643Y-13033357D01*
X11805357Y-12961929D01*
X11791071Y-12919071D01*
X11776786Y-12890500D01*
X11748214Y-12847643D01*
X11733928Y-12833357D01*
M02*
