M48
; DRILL file {KiCad 5.1.6-c6e7f7d~87~ubuntu20.04.1} date Wed Sep 30 12:14:44 2020
; FORMAT={-:-/ absolute / metric / decimal}
; #@! TF.CreationDate,2020-09-30T12:14:44+02:00
; #@! TF.GenerationSoftware,Kicad,Pcbnew,5.1.6-c6e7f7d~87~ubuntu20.04.1
; #@! TF.FileFunction,Plated,1,2,PTH
FMAT,2
METRIC
T1C0.500
T2C0.700
T3C0.800
T4C1.000
T5C1.100
T6C1.300
T7C2.000
T8C2.200
T9C3.000
T10C3.500
T11C4.000
%
G90
G05
T1
X104.0Y-47.5
X112.0Y-77.0
X111.5Y-37.0
T2
X119.42Y-78.5
X124.5Y-78.5
X116.0Y-37.42
X116.0Y-42.5
X120.0Y-36.0
X125.08Y-36.0
X116.0Y-71.92
X116.0Y-77.0
T3
X100.0Y-77.0
X107.62Y-77.0
X100.0Y-37.0
X107.62Y-37.0
T4
X119.5Y-74.0
X124.5Y-74.0
X120.0Y-40.5
X125.0Y-40.5
X76.0Y-67.0
X81.0Y-67.0
X68.0Y-62.487
X68.0Y-69.987
T5
X87.5Y-37.5
X92.58Y-37.5
T6
X73.5Y-74.5
X81.0Y-72.0
X81.0Y-77.0
X86.5Y-71.0
X96.5Y-66.0
X96.5Y-76.0
T7
X111.0Y-45.5
X111.0Y-68.5
T8
X56.0Y-77.0
X136.5Y-76.0
X129.5Y-46.5
X120.0Y-46.5
X75.5Y-57.0
X136.5Y-38.5
X56.0Y-37.0
X129.5Y-68.0
X157.0Y-37.0
X147.5Y-76.0
X120.0Y-68.0
X147.0Y-38.5
X157.0Y-77.0
X141.0Y-57.0
T9
X155.5Y-57.0
X56.5Y-57.0
T10
X155.5Y-44.5
X155.5Y-69.5
X56.5Y-44.5
X56.5Y-69.5
T11
X78.5Y-74.5
X91.5Y-71.0
T7
G00X111.0Y-58.0
M15
G01X111.0Y-56.0
M16
G05
T0
M30
