%TF.GenerationSoftware,KiCad,Pcbnew,5.1.6-c6e7f7d~87~ubuntu20.04.1*%
%TF.CreationDate,2020-09-30T11:29:00+02:00*%
%TF.ProjectId,SWR bridge,53575220-6272-4696-9467-652e6b696361,rev?*%
%TF.SameCoordinates,Original*%
%TF.FileFunction,Legend,Top*%
%TF.FilePolarity,Positive*%
%FSLAX46Y46*%
G04 Gerber Fmt 4.6, Leading zero omitted, Abs format (unit mm)*
G04 Created by KiCad (PCBNEW 5.1.6-c6e7f7d~87~ubuntu20.04.1) date 2020-09-30 11:29:00*
%MOMM*%
%LPD*%
G01*
G04 APERTURE LIST*
%ADD10C,0.150000*%
%ADD11C,0.120000*%
%ADD12C,0.300000*%
G04 APERTURE END LIST*
D10*
X84476190Y-79166666D02*
X84952380Y-79166666D01*
X84380952Y-79452380D02*
X84714285Y-78452380D01*
X85047619Y-79452380D01*
X85380952Y-79452380D02*
X85380952Y-78452380D01*
X85619047Y-78452380D01*
X85761904Y-78500000D01*
X85857142Y-78595238D01*
X85904761Y-78690476D01*
X85952380Y-78880952D01*
X85952380Y-79023809D01*
X85904761Y-79214285D01*
X85857142Y-79309523D01*
X85761904Y-79404761D01*
X85619047Y-79452380D01*
X85380952Y-79452380D01*
X86666666Y-78452380D02*
X86666666Y-79166666D01*
X86619047Y-79309523D01*
X86523809Y-79404761D01*
X86380952Y-79452380D01*
X86285714Y-79452380D01*
X88476190Y-79452380D02*
X88142857Y-78976190D01*
X87904761Y-79452380D02*
X87904761Y-78452380D01*
X88285714Y-78452380D01*
X88380952Y-78500000D01*
X88428571Y-78547619D01*
X88476190Y-78642857D01*
X88476190Y-78785714D01*
X88428571Y-78880952D01*
X88380952Y-78928571D01*
X88285714Y-78976190D01*
X87904761Y-78976190D01*
X89428571Y-79452380D02*
X88857142Y-79452380D01*
X89142857Y-79452380D02*
X89142857Y-78452380D01*
X89047619Y-78595238D01*
X88952380Y-78690476D01*
X88857142Y-78738095D01*
X90476190Y-78452380D02*
X91047619Y-78452380D01*
X90761904Y-79452380D02*
X90761904Y-78452380D01*
X91571428Y-78452380D02*
X91761904Y-78452380D01*
X91857142Y-78500000D01*
X91952380Y-78595238D01*
X92000000Y-78785714D01*
X92000000Y-79119047D01*
X91952380Y-79309523D01*
X91857142Y-79404761D01*
X91761904Y-79452380D01*
X91571428Y-79452380D01*
X91476190Y-79404761D01*
X91380952Y-79309523D01*
X91333333Y-79119047D01*
X91333333Y-78785714D01*
X91380952Y-78595238D01*
X91476190Y-78500000D01*
X91571428Y-78452380D01*
X93714285Y-79452380D02*
X93142857Y-79452380D01*
X93428571Y-79452380D02*
X93428571Y-78452380D01*
X93333333Y-78595238D01*
X93238095Y-78690476D01*
X93142857Y-78738095D01*
X94571428Y-78785714D02*
X94571428Y-79452380D01*
X94333333Y-78404761D02*
X94095238Y-79119047D01*
X94714285Y-79119047D01*
X95523809Y-78452380D02*
X95333333Y-78452380D01*
X95238095Y-78500000D01*
X95190476Y-78547619D01*
X95095238Y-78690476D01*
X95047619Y-78880952D01*
X95047619Y-79261904D01*
X95095238Y-79357142D01*
X95142857Y-79404761D01*
X95238095Y-79452380D01*
X95428571Y-79452380D01*
X95523809Y-79404761D01*
X95571428Y-79357142D01*
X95619047Y-79261904D01*
X95619047Y-79023809D01*
X95571428Y-78928571D01*
X95523809Y-78880952D01*
X95428571Y-78833333D01*
X95238095Y-78833333D01*
X95142857Y-78880952D01*
X95095238Y-78928571D01*
X95047619Y-79023809D01*
X96761904Y-79452380D02*
X97000000Y-79452380D01*
X97000000Y-79261904D01*
X96904761Y-79214285D01*
X96809523Y-79119047D01*
X96761904Y-78976190D01*
X96761904Y-78738095D01*
X96809523Y-78595238D01*
X96904761Y-78500000D01*
X97047619Y-78452380D01*
X97238095Y-78452380D01*
X97380952Y-78500000D01*
X97476190Y-78595238D01*
X97523809Y-78738095D01*
X97523809Y-78976190D01*
X97476190Y-79119047D01*
X97380952Y-79214285D01*
X97285714Y-79261904D01*
X97285714Y-79452380D01*
X97523809Y-79452380D01*
D11*
X116000000Y-57000000D02*
X115500000Y-57000000D01*
X117000000Y-57000000D02*
X116000000Y-58000000D01*
X116000000Y-56000000D02*
X117000000Y-57000000D01*
X117000000Y-57000000D02*
X116000000Y-56000000D01*
X116000000Y-57000000D02*
X117000000Y-57000000D01*
D10*
X114904761Y-64952380D02*
X114952380Y-64809523D01*
X114952380Y-64571428D01*
X114904761Y-64476190D01*
X114857142Y-64428571D01*
X114761904Y-64380952D01*
X114666666Y-64380952D01*
X114571428Y-64428571D01*
X114523809Y-64476190D01*
X114476190Y-64571428D01*
X114428571Y-64761904D01*
X114380952Y-64857142D01*
X114333333Y-64904761D01*
X114238095Y-64952380D01*
X114142857Y-64952380D01*
X114047619Y-64904761D01*
X114000000Y-64857142D01*
X113952380Y-64761904D01*
X113952380Y-64523809D01*
X114000000Y-64380952D01*
X113952380Y-63761904D02*
X113952380Y-63571428D01*
X114000000Y-63476190D01*
X114095238Y-63380952D01*
X114285714Y-63333333D01*
X114619047Y-63333333D01*
X114809523Y-63380952D01*
X114904761Y-63476190D01*
X114952380Y-63571428D01*
X114952380Y-63761904D01*
X114904761Y-63857142D01*
X114809523Y-63952380D01*
X114619047Y-64000000D01*
X114285714Y-64000000D01*
X114095238Y-63952380D01*
X114000000Y-63857142D01*
X113952380Y-63761904D01*
X114952380Y-62428571D02*
X114952380Y-62904761D01*
X113952380Y-62904761D01*
X114952380Y-62095238D02*
X113952380Y-62095238D01*
X113952380Y-61857142D01*
X114000000Y-61714285D01*
X114095238Y-61619047D01*
X114190476Y-61571428D01*
X114380952Y-61523809D01*
X114523809Y-61523809D01*
X114714285Y-61571428D01*
X114809523Y-61619047D01*
X114904761Y-61714285D01*
X114952380Y-61857142D01*
X114952380Y-62095238D01*
X114428571Y-61095238D02*
X114428571Y-60761904D01*
X114952380Y-60619047D02*
X114952380Y-61095238D01*
X113952380Y-61095238D01*
X113952380Y-60619047D01*
X114952380Y-59619047D02*
X114476190Y-59952380D01*
X114952380Y-60190476D02*
X113952380Y-60190476D01*
X113952380Y-59809523D01*
X114000000Y-59714285D01*
X114047619Y-59666666D01*
X114142857Y-59619047D01*
X114285714Y-59619047D01*
X114380952Y-59666666D01*
X114428571Y-59714285D01*
X114476190Y-59809523D01*
X114476190Y-60190476D01*
X114857142Y-57857142D02*
X114904761Y-57904761D01*
X114952380Y-58047619D01*
X114952380Y-58142857D01*
X114904761Y-58285714D01*
X114809523Y-58380952D01*
X114714285Y-58428571D01*
X114523809Y-58476190D01*
X114380952Y-58476190D01*
X114190476Y-58428571D01*
X114095238Y-58380952D01*
X114000000Y-58285714D01*
X113952380Y-58142857D01*
X113952380Y-58047619D01*
X114000000Y-57904761D01*
X114047619Y-57857142D01*
X113952380Y-57238095D02*
X113952380Y-57047619D01*
X114000000Y-56952380D01*
X114095238Y-56857142D01*
X114285714Y-56809523D01*
X114619047Y-56809523D01*
X114809523Y-56857142D01*
X114904761Y-56952380D01*
X114952380Y-57047619D01*
X114952380Y-57238095D01*
X114904761Y-57333333D01*
X114809523Y-57428571D01*
X114619047Y-57476190D01*
X114285714Y-57476190D01*
X114095238Y-57428571D01*
X114000000Y-57333333D01*
X113952380Y-57238095D01*
X114666666Y-56428571D02*
X114666666Y-55952380D01*
X114952380Y-56523809D02*
X113952380Y-56190476D01*
X114952380Y-55857142D01*
X113952380Y-55619047D02*
X114952380Y-54952380D01*
X113952380Y-54952380D02*
X114952380Y-55619047D01*
X114904761Y-53857142D02*
X114952380Y-53714285D01*
X114952380Y-53476190D01*
X114904761Y-53380952D01*
X114857142Y-53333333D01*
X114761904Y-53285714D01*
X114666666Y-53285714D01*
X114571428Y-53333333D01*
X114523809Y-53380952D01*
X114476190Y-53476190D01*
X114428571Y-53666666D01*
X114380952Y-53761904D01*
X114333333Y-53809523D01*
X114238095Y-53857142D01*
X114142857Y-53857142D01*
X114047619Y-53809523D01*
X114000000Y-53761904D01*
X113952380Y-53666666D01*
X113952380Y-53428571D01*
X114000000Y-53285714D01*
X114952380Y-52857142D02*
X113952380Y-52857142D01*
X114428571Y-52857142D02*
X114428571Y-52285714D01*
X114952380Y-52285714D02*
X113952380Y-52285714D01*
X114952380Y-51809523D02*
X113952380Y-51809523D01*
X114428571Y-51333333D02*
X114428571Y-51000000D01*
X114952380Y-50857142D02*
X114952380Y-51333333D01*
X113952380Y-51333333D01*
X113952380Y-50857142D01*
X114952380Y-49952380D02*
X114952380Y-50428571D01*
X113952380Y-50428571D01*
X114952380Y-49619047D02*
X113952380Y-49619047D01*
X113952380Y-49380952D01*
X114000000Y-49238095D01*
X114095238Y-49142857D01*
X114190476Y-49095238D01*
X114380952Y-49047619D01*
X114523809Y-49047619D01*
X114714285Y-49095238D01*
X114809523Y-49142857D01*
X114904761Y-49238095D01*
X114952380Y-49380952D01*
X114952380Y-49619047D01*
X88802380Y-60952380D02*
X88326190Y-61285714D01*
X88802380Y-61523809D02*
X87802380Y-61523809D01*
X87802380Y-61142857D01*
X87850000Y-61047619D01*
X87897619Y-61000000D01*
X87992857Y-60952380D01*
X88135714Y-60952380D01*
X88230952Y-61000000D01*
X88278571Y-61047619D01*
X88326190Y-61142857D01*
X88326190Y-61523809D01*
X87850000Y-60000000D02*
X87802380Y-60095238D01*
X87802380Y-60238095D01*
X87850000Y-60380952D01*
X87945238Y-60476190D01*
X88040476Y-60523809D01*
X88230952Y-60571428D01*
X88373809Y-60571428D01*
X88564285Y-60523809D01*
X88659523Y-60476190D01*
X88754761Y-60380952D01*
X88802380Y-60238095D01*
X88802380Y-60142857D01*
X88754761Y-60000000D01*
X88707142Y-59952380D01*
X88373809Y-59952380D01*
X88373809Y-60142857D01*
X87897619Y-59571428D02*
X87850000Y-59523809D01*
X87802380Y-59428571D01*
X87802380Y-59190476D01*
X87850000Y-59095238D01*
X87897619Y-59047619D01*
X87992857Y-59000000D01*
X88088095Y-59000000D01*
X88230952Y-59047619D01*
X88802380Y-59619047D01*
X88802380Y-59000000D01*
X88802380Y-58047619D02*
X88802380Y-58619047D01*
X88802380Y-58333333D02*
X87802380Y-58333333D01*
X87945238Y-58428571D01*
X88040476Y-58523809D01*
X88088095Y-58619047D01*
X87802380Y-57714285D02*
X87802380Y-57095238D01*
X88183333Y-57428571D01*
X88183333Y-57285714D01*
X88230952Y-57190476D01*
X88278571Y-57142857D01*
X88373809Y-57095238D01*
X88611904Y-57095238D01*
X88707142Y-57142857D01*
X88754761Y-57190476D01*
X88802380Y-57285714D01*
X88802380Y-57571428D01*
X88754761Y-57666666D01*
X88707142Y-57714285D01*
X87754761Y-55952380D02*
X89040476Y-56809523D01*
X87802380Y-55619047D02*
X88611904Y-55619047D01*
X88707142Y-55571428D01*
X88754761Y-55523809D01*
X88802380Y-55428571D01*
X88802380Y-55238095D01*
X88754761Y-55142857D01*
X88707142Y-55095238D01*
X88611904Y-55047619D01*
X87802380Y-55047619D01*
X87802380Y-53619047D02*
X87802380Y-53428571D01*
X87850000Y-53333333D01*
X87945238Y-53238095D01*
X88135714Y-53190476D01*
X88469047Y-53190476D01*
X88659523Y-53238095D01*
X88754761Y-53333333D01*
X88802380Y-53428571D01*
X88802380Y-53619047D01*
X88754761Y-53714285D01*
X88659523Y-53809523D01*
X88469047Y-53857142D01*
X88135714Y-53857142D01*
X87945238Y-53809523D01*
X87850000Y-53714285D01*
X87802380Y-53619047D01*
X88802380Y-52190476D02*
X88326190Y-52523809D01*
X88802380Y-52761904D02*
X87802380Y-52761904D01*
X87802380Y-52380952D01*
X87850000Y-52285714D01*
X87897619Y-52238095D01*
X87992857Y-52190476D01*
X88135714Y-52190476D01*
X88230952Y-52238095D01*
X88278571Y-52285714D01*
X88326190Y-52380952D01*
X88326190Y-52761904D01*
X90404761Y-59547619D02*
X90452380Y-59404761D01*
X90452380Y-59166666D01*
X90404761Y-59071428D01*
X90357142Y-59023809D01*
X90261904Y-58976190D01*
X90166666Y-58976190D01*
X90071428Y-59023809D01*
X90023809Y-59071428D01*
X89976190Y-59166666D01*
X89928571Y-59357142D01*
X89880952Y-59452380D01*
X89833333Y-59500000D01*
X89738095Y-59547619D01*
X89642857Y-59547619D01*
X89547619Y-59500000D01*
X89500000Y-59452380D01*
X89452380Y-59357142D01*
X89452380Y-59119047D01*
X89500000Y-58976190D01*
X90452380Y-58547619D02*
X89452380Y-58547619D01*
X90452380Y-58071428D02*
X89452380Y-58071428D01*
X90166666Y-57738095D01*
X89452380Y-57404761D01*
X90452380Y-57404761D01*
X90452380Y-56928571D02*
X89452380Y-56928571D01*
X90452380Y-55976190D02*
X90452380Y-56452380D01*
X89452380Y-56452380D01*
X90166666Y-55690476D02*
X90166666Y-55214285D01*
X90452380Y-55785714D02*
X89452380Y-55452380D01*
X90452380Y-55119047D01*
X90452380Y-54214285D02*
X89976190Y-54547619D01*
X90452380Y-54785714D02*
X89452380Y-54785714D01*
X89452380Y-54404761D01*
X89500000Y-54309523D01*
X89547619Y-54261904D01*
X89642857Y-54214285D01*
X89785714Y-54214285D01*
X89880952Y-54261904D01*
X89928571Y-54309523D01*
X89976190Y-54404761D01*
X89976190Y-54785714D01*
X91102380Y-61047619D02*
X91102380Y-61523809D01*
X91578571Y-61571428D01*
X91530952Y-61523809D01*
X91483333Y-61428571D01*
X91483333Y-61190476D01*
X91530952Y-61095238D01*
X91578571Y-61047619D01*
X91673809Y-61000000D01*
X91911904Y-61000000D01*
X92007142Y-61047619D01*
X92054761Y-61095238D01*
X92102380Y-61190476D01*
X92102380Y-61428571D01*
X92054761Y-61523809D01*
X92007142Y-61571428D01*
X91102380Y-60380952D02*
X91102380Y-60285714D01*
X91150000Y-60190476D01*
X91197619Y-60142857D01*
X91292857Y-60095238D01*
X91483333Y-60047619D01*
X91721428Y-60047619D01*
X91911904Y-60095238D01*
X92007142Y-60142857D01*
X92054761Y-60190476D01*
X92102380Y-60285714D01*
X92102380Y-60380952D01*
X92054761Y-60476190D01*
X92007142Y-60523809D01*
X91911904Y-60571428D01*
X91721428Y-60619047D01*
X91483333Y-60619047D01*
X91292857Y-60571428D01*
X91197619Y-60523809D01*
X91150000Y-60476190D01*
X91102380Y-60380952D01*
X91102380Y-58666666D02*
X91102380Y-58476190D01*
X91150000Y-58380952D01*
X91245238Y-58285714D01*
X91435714Y-58238095D01*
X91769047Y-58238095D01*
X91959523Y-58285714D01*
X92054761Y-58380952D01*
X92102380Y-58476190D01*
X92102380Y-58666666D01*
X92054761Y-58761904D01*
X91959523Y-58857142D01*
X91769047Y-58904761D01*
X91435714Y-58904761D01*
X91245238Y-58857142D01*
X91150000Y-58761904D01*
X91102380Y-58666666D01*
X92102380Y-57809523D02*
X91102380Y-57809523D01*
X91578571Y-57809523D02*
X91578571Y-57238095D01*
X92102380Y-57238095D02*
X91102380Y-57238095D01*
X92102380Y-56761904D02*
X91102380Y-56761904D01*
X91816666Y-56428571D01*
X91102380Y-56095238D01*
X92102380Y-56095238D01*
X92007142Y-54285714D02*
X92054761Y-54333333D01*
X92102380Y-54476190D01*
X92102380Y-54571428D01*
X92054761Y-54714285D01*
X91959523Y-54809523D01*
X91864285Y-54857142D01*
X91673809Y-54904761D01*
X91530952Y-54904761D01*
X91340476Y-54857142D01*
X91245238Y-54809523D01*
X91150000Y-54714285D01*
X91102380Y-54571428D01*
X91102380Y-54476190D01*
X91150000Y-54333333D01*
X91197619Y-54285714D01*
X91102380Y-53666666D02*
X91102380Y-53476190D01*
X91150000Y-53380952D01*
X91245238Y-53285714D01*
X91435714Y-53238095D01*
X91769047Y-53238095D01*
X91959523Y-53285714D01*
X92054761Y-53380952D01*
X92102380Y-53476190D01*
X92102380Y-53666666D01*
X92054761Y-53761904D01*
X91959523Y-53857142D01*
X91769047Y-53904761D01*
X91435714Y-53904761D01*
X91245238Y-53857142D01*
X91150000Y-53761904D01*
X91102380Y-53666666D01*
X91816666Y-52857142D02*
X91816666Y-52380952D01*
X92102380Y-52952380D02*
X91102380Y-52619047D01*
X92102380Y-52285714D01*
X91102380Y-52047619D02*
X92102380Y-51380952D01*
X91102380Y-51380952D02*
X92102380Y-52047619D01*
X107857142Y-61190476D02*
X107904761Y-61238095D01*
X107952380Y-61380952D01*
X107952380Y-61476190D01*
X107904761Y-61619047D01*
X107809523Y-61714285D01*
X107714285Y-61761904D01*
X107523809Y-61809523D01*
X107380952Y-61809523D01*
X107190476Y-61761904D01*
X107095238Y-61714285D01*
X107000000Y-61619047D01*
X106952380Y-61476190D01*
X106952380Y-61380952D01*
X107000000Y-61238095D01*
X107047619Y-61190476D01*
X107428571Y-60761904D02*
X107428571Y-60428571D01*
X107952380Y-60285714D02*
X107952380Y-60761904D01*
X106952380Y-60761904D01*
X106952380Y-60285714D01*
X107952380Y-59857142D02*
X106952380Y-59857142D01*
X107952380Y-59285714D01*
X106952380Y-59285714D01*
X106952380Y-58952380D02*
X106952380Y-58380952D01*
X107952380Y-58666666D02*
X106952380Y-58666666D01*
X107428571Y-58047619D02*
X107428571Y-57714285D01*
X107952380Y-57571428D02*
X107952380Y-58047619D01*
X106952380Y-58047619D01*
X106952380Y-57571428D01*
X107952380Y-56571428D02*
X107476190Y-56904761D01*
X107952380Y-57142857D02*
X106952380Y-57142857D01*
X106952380Y-56761904D01*
X107000000Y-56666666D01*
X107047619Y-56619047D01*
X107142857Y-56571428D01*
X107285714Y-56571428D01*
X107380952Y-56619047D01*
X107428571Y-56666666D01*
X107476190Y-56761904D01*
X107476190Y-57142857D01*
X106952380Y-55523809D02*
X106952380Y-54952380D01*
X107952380Y-55238095D02*
X106952380Y-55238095D01*
X107666666Y-54666666D02*
X107666666Y-54190476D01*
X107952380Y-54761904D02*
X106952380Y-54428571D01*
X107952380Y-54095238D01*
X107952380Y-53761904D02*
X106952380Y-53761904D01*
X106952380Y-53380952D01*
X107000000Y-53285714D01*
X107047619Y-53238095D01*
X107142857Y-53190476D01*
X107285714Y-53190476D01*
X107380952Y-53238095D01*
X107428571Y-53285714D01*
X107476190Y-53380952D01*
X107476190Y-53761904D01*
X101302380Y-74142857D02*
X101302380Y-73571428D01*
X102302380Y-73857142D02*
X101302380Y-73857142D01*
X102302380Y-73095238D02*
X102254761Y-73190476D01*
X102207142Y-73238095D01*
X102111904Y-73285714D01*
X101826190Y-73285714D01*
X101730952Y-73238095D01*
X101683333Y-73190476D01*
X101635714Y-73095238D01*
X101635714Y-72952380D01*
X101683333Y-72857142D01*
X101730952Y-72809523D01*
X101826190Y-72761904D01*
X102111904Y-72761904D01*
X102207142Y-72809523D01*
X102254761Y-72857142D01*
X102302380Y-72952380D01*
X102302380Y-73095238D01*
X101635714Y-72476190D02*
X101635714Y-72095238D01*
X101302380Y-72333333D02*
X102159523Y-72333333D01*
X102254761Y-72285714D01*
X102302380Y-72190476D01*
X102302380Y-72095238D01*
X102302380Y-71333333D02*
X101778571Y-71333333D01*
X101683333Y-71380952D01*
X101635714Y-71476190D01*
X101635714Y-71666666D01*
X101683333Y-71761904D01*
X102254761Y-71333333D02*
X102302380Y-71428571D01*
X102302380Y-71666666D01*
X102254761Y-71761904D01*
X102159523Y-71809523D01*
X102064285Y-71809523D01*
X101969047Y-71761904D01*
X101921428Y-71666666D01*
X101921428Y-71428571D01*
X101873809Y-71333333D01*
X102302380Y-70714285D02*
X102254761Y-70809523D01*
X102159523Y-70857142D01*
X101302380Y-70857142D01*
X101730952Y-69428571D02*
X101683333Y-69523809D01*
X101635714Y-69571428D01*
X101540476Y-69619047D01*
X101492857Y-69619047D01*
X101397619Y-69571428D01*
X101350000Y-69523809D01*
X101302380Y-69428571D01*
X101302380Y-69238095D01*
X101350000Y-69142857D01*
X101397619Y-69095238D01*
X101492857Y-69047619D01*
X101540476Y-69047619D01*
X101635714Y-69095238D01*
X101683333Y-69142857D01*
X101730952Y-69238095D01*
X101730952Y-69428571D01*
X101778571Y-69523809D01*
X101826190Y-69571428D01*
X101921428Y-69619047D01*
X102111904Y-69619047D01*
X102207142Y-69571428D01*
X102254761Y-69523809D01*
X102302380Y-69428571D01*
X102302380Y-69238095D01*
X102254761Y-69142857D01*
X102207142Y-69095238D01*
X102111904Y-69047619D01*
X101921428Y-69047619D01*
X101826190Y-69095238D01*
X101778571Y-69142857D01*
X101730952Y-69238095D01*
X101635714Y-68000000D02*
X101635714Y-67619047D01*
X101302380Y-67857142D02*
X102159523Y-67857142D01*
X102254761Y-67809523D01*
X102302380Y-67714285D01*
X102302380Y-67619047D01*
X101635714Y-66857142D02*
X102302380Y-66857142D01*
X101635714Y-67285714D02*
X102159523Y-67285714D01*
X102254761Y-67238095D01*
X102302380Y-67142857D01*
X102302380Y-67000000D01*
X102254761Y-66904761D01*
X102207142Y-66857142D01*
X102302380Y-66380952D02*
X101635714Y-66380952D01*
X101826190Y-66380952D02*
X101730952Y-66333333D01*
X101683333Y-66285714D01*
X101635714Y-66190476D01*
X101635714Y-66095238D01*
X101635714Y-65761904D02*
X102302380Y-65761904D01*
X101730952Y-65761904D02*
X101683333Y-65714285D01*
X101635714Y-65619047D01*
X101635714Y-65476190D01*
X101683333Y-65380952D01*
X101778571Y-65333333D01*
X102302380Y-65333333D01*
X102254761Y-64904761D02*
X102302380Y-64809523D01*
X102302380Y-64619047D01*
X102254761Y-64523809D01*
X102159523Y-64476190D01*
X102111904Y-64476190D01*
X102016666Y-64523809D01*
X101969047Y-64619047D01*
X101969047Y-64761904D01*
X101921428Y-64857142D01*
X101826190Y-64904761D01*
X101778571Y-64904761D01*
X101683333Y-64857142D01*
X101635714Y-64761904D01*
X101635714Y-64619047D01*
X101683333Y-64523809D01*
X102016666Y-63333333D02*
X102016666Y-62857142D01*
X102302380Y-63428571D02*
X101302380Y-63095238D01*
X102302380Y-62761904D01*
X101302380Y-62523809D02*
X102302380Y-62285714D01*
X101588095Y-62095238D01*
X102302380Y-61904761D01*
X101302380Y-61666666D01*
X101350000Y-60761904D02*
X101302380Y-60857142D01*
X101302380Y-61000000D01*
X101350000Y-61142857D01*
X101445238Y-61238095D01*
X101540476Y-61285714D01*
X101730952Y-61333333D01*
X101873809Y-61333333D01*
X102064285Y-61285714D01*
X102159523Y-61238095D01*
X102254761Y-61142857D01*
X102302380Y-61000000D01*
X102302380Y-60904761D01*
X102254761Y-60761904D01*
X102207142Y-60714285D01*
X101873809Y-60714285D01*
X101873809Y-60904761D01*
X102302380Y-59761904D02*
X102302380Y-60333333D01*
X102302380Y-60047619D02*
X101302380Y-60047619D01*
X101445238Y-60142857D01*
X101540476Y-60238095D01*
X101588095Y-60333333D01*
X101635714Y-58904761D02*
X102302380Y-58904761D01*
X101254761Y-59142857D02*
X101969047Y-59380952D01*
X101969047Y-58761904D01*
X102302380Y-57476190D02*
X102254761Y-57571428D01*
X102207142Y-57619047D01*
X102111904Y-57666666D01*
X101826190Y-57666666D01*
X101730952Y-57619047D01*
X101683333Y-57571428D01*
X101635714Y-57476190D01*
X101635714Y-57333333D01*
X101683333Y-57238095D01*
X101730952Y-57190476D01*
X101826190Y-57142857D01*
X102111904Y-57142857D01*
X102207142Y-57190476D01*
X102254761Y-57238095D01*
X102302380Y-57333333D01*
X102302380Y-57476190D01*
X101635714Y-56714285D02*
X102302380Y-56714285D01*
X101730952Y-56714285D02*
X101683333Y-56666666D01*
X101635714Y-56571428D01*
X101635714Y-56428571D01*
X101683333Y-56333333D01*
X101778571Y-56285714D01*
X102302380Y-56285714D01*
X102302380Y-54619047D02*
X101778571Y-54619047D01*
X101683333Y-54666666D01*
X101635714Y-54761904D01*
X101635714Y-54952380D01*
X101683333Y-55047619D01*
X102254761Y-54619047D02*
X102302380Y-54714285D01*
X102302380Y-54952380D01*
X102254761Y-55047619D01*
X102159523Y-55095238D01*
X102064285Y-55095238D01*
X101969047Y-55047619D01*
X101921428Y-54952380D01*
X101921428Y-54714285D01*
X101873809Y-54619047D01*
X101778571Y-53047619D02*
X101778571Y-53380952D01*
X102302380Y-53380952D02*
X101302380Y-53380952D01*
X101302380Y-52904761D01*
X101302380Y-52666666D02*
X101302380Y-52095238D01*
X102302380Y-52380952D02*
X101302380Y-52380952D01*
X101921428Y-51761904D02*
X101921428Y-51000000D01*
X102302380Y-50000000D02*
X102302380Y-50571428D01*
X102302380Y-50285714D02*
X101302380Y-50285714D01*
X101445238Y-50380952D01*
X101540476Y-50476190D01*
X101588095Y-50571428D01*
X101635714Y-49142857D02*
X102302380Y-49142857D01*
X101254761Y-49380952D02*
X101969047Y-49619047D01*
X101969047Y-49000000D01*
X101302380Y-48428571D02*
X101302380Y-48333333D01*
X101350000Y-48238095D01*
X101397619Y-48190476D01*
X101492857Y-48142857D01*
X101683333Y-48095238D01*
X101921428Y-48095238D01*
X102111904Y-48142857D01*
X102207142Y-48190476D01*
X102254761Y-48238095D01*
X102302380Y-48333333D01*
X102302380Y-48428571D01*
X102254761Y-48523809D01*
X102207142Y-48571428D01*
X102111904Y-48619047D01*
X101921428Y-48666666D01*
X101683333Y-48666666D01*
X101492857Y-48619047D01*
X101397619Y-48571428D01*
X101350000Y-48523809D01*
X101302380Y-48428571D01*
X101921428Y-47666666D02*
X101921428Y-46904761D01*
X101635714Y-46000000D02*
X102302380Y-46000000D01*
X101254761Y-46238095D02*
X101969047Y-46476190D01*
X101969047Y-45857142D01*
X101302380Y-45571428D02*
X101302380Y-44952380D01*
X101683333Y-45285714D01*
X101683333Y-45142857D01*
X101730952Y-45047619D01*
X101778571Y-45000000D01*
X101873809Y-44952380D01*
X102111904Y-44952380D01*
X102207142Y-45000000D01*
X102254761Y-45047619D01*
X102302380Y-45142857D01*
X102302380Y-45428571D01*
X102254761Y-45523809D01*
X102207142Y-45571428D01*
X103285714Y-70285714D02*
X103952380Y-70095238D01*
X103476190Y-69904761D01*
X103952380Y-69714285D01*
X103285714Y-69523809D01*
X103952380Y-69142857D02*
X103285714Y-69142857D01*
X102952380Y-69142857D02*
X103000000Y-69190476D01*
X103047619Y-69142857D01*
X103000000Y-69095238D01*
X102952380Y-69142857D01*
X103047619Y-69142857D01*
X103285714Y-68809523D02*
X103285714Y-68428571D01*
X102952380Y-68666666D02*
X103809523Y-68666666D01*
X103904761Y-68619047D01*
X103952380Y-68523809D01*
X103952380Y-68428571D01*
X103952380Y-68095238D02*
X102952380Y-68095238D01*
X103952380Y-67666666D02*
X103428571Y-67666666D01*
X103333333Y-67714285D01*
X103285714Y-67809523D01*
X103285714Y-67952380D01*
X103333333Y-68047619D01*
X103380952Y-68095238D01*
X103904761Y-66000000D02*
X103952380Y-66095238D01*
X103952380Y-66285714D01*
X103904761Y-66380952D01*
X103857142Y-66428571D01*
X103761904Y-66476190D01*
X103476190Y-66476190D01*
X103380952Y-66428571D01*
X103333333Y-66380952D01*
X103285714Y-66285714D01*
X103285714Y-66095238D01*
X103333333Y-66000000D01*
X103904761Y-65190476D02*
X103952380Y-65285714D01*
X103952380Y-65476190D01*
X103904761Y-65571428D01*
X103809523Y-65619047D01*
X103428571Y-65619047D01*
X103333333Y-65571428D01*
X103285714Y-65476190D01*
X103285714Y-65285714D01*
X103333333Y-65190476D01*
X103428571Y-65142857D01*
X103523809Y-65142857D01*
X103619047Y-65619047D01*
X103285714Y-64714285D02*
X103952380Y-64714285D01*
X103380952Y-64714285D02*
X103333333Y-64666666D01*
X103285714Y-64571428D01*
X103285714Y-64428571D01*
X103333333Y-64333333D01*
X103428571Y-64285714D01*
X103952380Y-64285714D01*
X103285714Y-63952380D02*
X103285714Y-63571428D01*
X102952380Y-63809523D02*
X103809523Y-63809523D01*
X103904761Y-63761904D01*
X103952380Y-63666666D01*
X103952380Y-63571428D01*
X103904761Y-62857142D02*
X103952380Y-62952380D01*
X103952380Y-63142857D01*
X103904761Y-63238095D01*
X103809523Y-63285714D01*
X103428571Y-63285714D01*
X103333333Y-63238095D01*
X103285714Y-63142857D01*
X103285714Y-62952380D01*
X103333333Y-62857142D01*
X103428571Y-62809523D01*
X103523809Y-62809523D01*
X103619047Y-63285714D01*
X103952380Y-62380952D02*
X103285714Y-62380952D01*
X103476190Y-62380952D02*
X103380952Y-62333333D01*
X103333333Y-62285714D01*
X103285714Y-62190476D01*
X103285714Y-62095238D01*
X103285714Y-61142857D02*
X103285714Y-60761904D01*
X102952380Y-61000000D02*
X103809523Y-61000000D01*
X103904761Y-60952380D01*
X103952380Y-60857142D01*
X103952380Y-60761904D01*
X103952380Y-60000000D02*
X103428571Y-60000000D01*
X103333333Y-60047619D01*
X103285714Y-60142857D01*
X103285714Y-60333333D01*
X103333333Y-60428571D01*
X103904761Y-60000000D02*
X103952380Y-60095238D01*
X103952380Y-60333333D01*
X103904761Y-60428571D01*
X103809523Y-60476190D01*
X103714285Y-60476190D01*
X103619047Y-60428571D01*
X103571428Y-60333333D01*
X103571428Y-60095238D01*
X103523809Y-60000000D01*
X103285714Y-59523809D02*
X104285714Y-59523809D01*
X103333333Y-59523809D02*
X103285714Y-59428571D01*
X103285714Y-59238095D01*
X103333333Y-59142857D01*
X103380952Y-59095238D01*
X103476190Y-59047619D01*
X103761904Y-59047619D01*
X103857142Y-59095238D01*
X103904761Y-59142857D01*
X103952380Y-59238095D01*
X103952380Y-59428571D01*
X103904761Y-59523809D01*
X103952380Y-57428571D02*
X103428571Y-57428571D01*
X103333333Y-57476190D01*
X103285714Y-57571428D01*
X103285714Y-57761904D01*
X103333333Y-57857142D01*
X103904761Y-57428571D02*
X103952380Y-57523809D01*
X103952380Y-57761904D01*
X103904761Y-57857142D01*
X103809523Y-57904761D01*
X103714285Y-57904761D01*
X103619047Y-57857142D01*
X103571428Y-57761904D01*
X103571428Y-57523809D01*
X103523809Y-57428571D01*
X103285714Y-57095238D02*
X103285714Y-56714285D01*
X103952380Y-56952380D02*
X103095238Y-56952380D01*
X103000000Y-56904761D01*
X102952380Y-56809523D01*
X102952380Y-56714285D01*
X103285714Y-56523809D02*
X103285714Y-56142857D01*
X102952380Y-56380952D02*
X103809523Y-56380952D01*
X103904761Y-56333333D01*
X103952380Y-56238095D01*
X103952380Y-56142857D01*
X103904761Y-55428571D02*
X103952380Y-55523809D01*
X103952380Y-55714285D01*
X103904761Y-55809523D01*
X103809523Y-55857142D01*
X103428571Y-55857142D01*
X103333333Y-55809523D01*
X103285714Y-55714285D01*
X103285714Y-55523809D01*
X103333333Y-55428571D01*
X103428571Y-55380952D01*
X103523809Y-55380952D01*
X103619047Y-55857142D01*
X103952380Y-54952380D02*
X103285714Y-54952380D01*
X103476190Y-54952380D02*
X103380952Y-54904761D01*
X103333333Y-54857142D01*
X103285714Y-54761904D01*
X103285714Y-54666666D01*
X103285714Y-53142857D02*
X103952380Y-53142857D01*
X102904761Y-53380952D02*
X103619047Y-53619047D01*
X103619047Y-53000000D01*
X103285714Y-52000000D02*
X103285714Y-51619047D01*
X102952380Y-51857142D02*
X103809523Y-51857142D01*
X103904761Y-51809523D01*
X103952380Y-51714285D01*
X103952380Y-51619047D01*
X103285714Y-50857142D02*
X103952380Y-50857142D01*
X103285714Y-51285714D02*
X103809523Y-51285714D01*
X103904761Y-51238095D01*
X103952380Y-51142857D01*
X103952380Y-51000000D01*
X103904761Y-50904761D01*
X103857142Y-50857142D01*
X103952380Y-50380952D02*
X103285714Y-50380952D01*
X103476190Y-50380952D02*
X103380952Y-50333333D01*
X103333333Y-50285714D01*
X103285714Y-50190476D01*
X103285714Y-50095238D01*
X103285714Y-49761904D02*
X103952380Y-49761904D01*
X103380952Y-49761904D02*
X103333333Y-49714285D01*
X103285714Y-49619047D01*
X103285714Y-49476190D01*
X103333333Y-49380952D01*
X103428571Y-49333333D01*
X103952380Y-49333333D01*
X103904761Y-48904761D02*
X103952380Y-48809523D01*
X103952380Y-48619047D01*
X103904761Y-48523809D01*
X103809523Y-48476190D01*
X103761904Y-48476190D01*
X103666666Y-48523809D01*
X103619047Y-48619047D01*
X103619047Y-48761904D01*
X103571428Y-48857142D01*
X103476190Y-48904761D01*
X103428571Y-48904761D01*
X103333333Y-48857142D01*
X103285714Y-48761904D01*
X103285714Y-48619047D01*
X103333333Y-48523809D01*
X103857142Y-48047619D02*
X103904761Y-48000000D01*
X103952380Y-48047619D01*
X103904761Y-48095238D01*
X103857142Y-48047619D01*
X103952380Y-48047619D01*
X104602380Y-69023809D02*
X104602380Y-68452380D01*
X105602380Y-68738095D02*
X104602380Y-68738095D01*
X105554761Y-67738095D02*
X105602380Y-67833333D01*
X105602380Y-68023809D01*
X105554761Y-68119047D01*
X105459523Y-68166666D01*
X105078571Y-68166666D01*
X104983333Y-68119047D01*
X104935714Y-68023809D01*
X104935714Y-67833333D01*
X104983333Y-67738095D01*
X105078571Y-67690476D01*
X105173809Y-67690476D01*
X105269047Y-68166666D01*
X104935714Y-67404761D02*
X104935714Y-67023809D01*
X105602380Y-67261904D02*
X104745238Y-67261904D01*
X104650000Y-67214285D01*
X104602380Y-67119047D01*
X104602380Y-67023809D01*
X105602380Y-66547619D02*
X105554761Y-66642857D01*
X105459523Y-66690476D01*
X104602380Y-66690476D01*
X105602380Y-66023809D02*
X105554761Y-66119047D01*
X105507142Y-66166666D01*
X105411904Y-66214285D01*
X105126190Y-66214285D01*
X105030952Y-66166666D01*
X104983333Y-66119047D01*
X104935714Y-66023809D01*
X104935714Y-65880952D01*
X104983333Y-65785714D01*
X105030952Y-65738095D01*
X105126190Y-65690476D01*
X105411904Y-65690476D01*
X105507142Y-65738095D01*
X105554761Y-65785714D01*
X105602380Y-65880952D01*
X105602380Y-66023809D01*
X104935714Y-65261904D02*
X105602380Y-65261904D01*
X105030952Y-65261904D02*
X104983333Y-65214285D01*
X104935714Y-65119047D01*
X104935714Y-64976190D01*
X104983333Y-64880952D01*
X105078571Y-64833333D01*
X105602380Y-64833333D01*
X105459523Y-63500000D02*
X105173809Y-63738095D01*
X105459523Y-63928571D02*
X104792857Y-63928571D01*
X104792857Y-63642857D01*
X104840476Y-63547619D01*
X104935714Y-63500000D01*
X105030952Y-63500000D01*
X105126190Y-63547619D01*
X105173809Y-63642857D01*
X105173809Y-63928571D01*
X104459523Y-63738095D02*
X104507142Y-63976190D01*
X104650000Y-64214285D01*
X104888095Y-64357142D01*
X105126190Y-64404761D01*
X105364285Y-64357142D01*
X105602380Y-64214285D01*
X105745238Y-63976190D01*
X105792857Y-63738095D01*
X105745238Y-63500000D01*
X105602380Y-63261904D01*
X105364285Y-63119047D01*
X105126190Y-63071428D01*
X104888095Y-63119047D01*
X104650000Y-63261904D01*
X104507142Y-63500000D01*
X104459523Y-63738095D01*
X105983333Y-62357142D02*
X105935714Y-62404761D01*
X105792857Y-62500000D01*
X105697619Y-62547619D01*
X105554761Y-62595238D01*
X105316666Y-62642857D01*
X105126190Y-62642857D01*
X104888095Y-62595238D01*
X104745238Y-62547619D01*
X104650000Y-62500000D01*
X104507142Y-62404761D01*
X104459523Y-62357142D01*
X105602380Y-61976190D02*
X104602380Y-61976190D01*
X104602380Y-61595238D01*
X104650000Y-61500000D01*
X104697619Y-61452380D01*
X104792857Y-61404761D01*
X104935714Y-61404761D01*
X105030952Y-61452380D01*
X105078571Y-61500000D01*
X105126190Y-61595238D01*
X105126190Y-61976190D01*
X104602380Y-61119047D02*
X104602380Y-60547619D01*
X105602380Y-60833333D02*
X104602380Y-60833333D01*
X105078571Y-59880952D02*
X105078571Y-60214285D01*
X105602380Y-60214285D02*
X104602380Y-60214285D01*
X104602380Y-59738095D01*
X105078571Y-59357142D02*
X105078571Y-59023809D01*
X105602380Y-58880952D02*
X105602380Y-59357142D01*
X104602380Y-59357142D01*
X104602380Y-58880952D01*
X105983333Y-58547619D02*
X105935714Y-58500000D01*
X105792857Y-58404761D01*
X105697619Y-58357142D01*
X105554761Y-58309523D01*
X105316666Y-58261904D01*
X105126190Y-58261904D01*
X104888095Y-58309523D01*
X104745238Y-58357142D01*
X104650000Y-58404761D01*
X104507142Y-58500000D01*
X104459523Y-58547619D01*
X105602380Y-57023809D02*
X104602380Y-57023809D01*
X104935714Y-56547619D02*
X105602380Y-56547619D01*
X105030952Y-56547619D02*
X104983333Y-56500000D01*
X104935714Y-56404761D01*
X104935714Y-56261904D01*
X104983333Y-56166666D01*
X105078571Y-56119047D01*
X105602380Y-56119047D01*
X105554761Y-55690476D02*
X105602380Y-55595238D01*
X105602380Y-55404761D01*
X105554761Y-55309523D01*
X105459523Y-55261904D01*
X105411904Y-55261904D01*
X105316666Y-55309523D01*
X105269047Y-55404761D01*
X105269047Y-55547619D01*
X105221428Y-55642857D01*
X105126190Y-55690476D01*
X105078571Y-55690476D01*
X104983333Y-55642857D01*
X104935714Y-55547619D01*
X104935714Y-55404761D01*
X104983333Y-55309523D01*
X104935714Y-54404761D02*
X105602380Y-54404761D01*
X104935714Y-54833333D02*
X105459523Y-54833333D01*
X105554761Y-54785714D01*
X105602380Y-54690476D01*
X105602380Y-54547619D01*
X105554761Y-54452380D01*
X105507142Y-54404761D01*
X105602380Y-53785714D02*
X105554761Y-53880952D01*
X105459523Y-53928571D01*
X104602380Y-53928571D01*
X105602380Y-52976190D02*
X105078571Y-52976190D01*
X104983333Y-53023809D01*
X104935714Y-53119047D01*
X104935714Y-53309523D01*
X104983333Y-53404761D01*
X105554761Y-52976190D02*
X105602380Y-53071428D01*
X105602380Y-53309523D01*
X105554761Y-53404761D01*
X105459523Y-53452380D01*
X105364285Y-53452380D01*
X105269047Y-53404761D01*
X105221428Y-53309523D01*
X105221428Y-53071428D01*
X105173809Y-52976190D01*
X104935714Y-52642857D02*
X104935714Y-52261904D01*
X104602380Y-52500000D02*
X105459523Y-52500000D01*
X105554761Y-52452380D01*
X105602380Y-52357142D01*
X105602380Y-52261904D01*
X105602380Y-51928571D02*
X104935714Y-51928571D01*
X104602380Y-51928571D02*
X104650000Y-51976190D01*
X104697619Y-51928571D01*
X104650000Y-51880952D01*
X104602380Y-51928571D01*
X104697619Y-51928571D01*
X105602380Y-51309523D02*
X105554761Y-51404761D01*
X105507142Y-51452380D01*
X105411904Y-51500000D01*
X105126190Y-51500000D01*
X105030952Y-51452380D01*
X104983333Y-51404761D01*
X104935714Y-51309523D01*
X104935714Y-51166666D01*
X104983333Y-51071428D01*
X105030952Y-51023809D01*
X105126190Y-50976190D01*
X105411904Y-50976190D01*
X105507142Y-51023809D01*
X105554761Y-51071428D01*
X105602380Y-51166666D01*
X105602380Y-51309523D01*
X104935714Y-50547619D02*
X105602380Y-50547619D01*
X105030952Y-50547619D02*
X104983333Y-50500000D01*
X104935714Y-50404761D01*
X104935714Y-50261904D01*
X104983333Y-50166666D01*
X105078571Y-50119047D01*
X105602380Y-50119047D01*
X143404761Y-55904761D02*
X144547619Y-55904761D01*
X143976190Y-57904761D02*
X143976190Y-55904761D01*
X145595238Y-55904761D02*
X145976190Y-55904761D01*
X146166666Y-56000000D01*
X146357142Y-56190476D01*
X146452380Y-56571428D01*
X146452380Y-57238095D01*
X146357142Y-57619047D01*
X146166666Y-57809523D01*
X145976190Y-57904761D01*
X145595238Y-57904761D01*
X145404761Y-57809523D01*
X145214285Y-57619047D01*
X145119047Y-57238095D01*
X145119047Y-56571428D01*
X145214285Y-56190476D01*
X145404761Y-56000000D01*
X145595238Y-55904761D01*
X148547619Y-55904761D02*
X149690476Y-55904761D01*
X149119047Y-57904761D02*
X149119047Y-55904761D01*
X150166666Y-55904761D02*
X151500000Y-57904761D01*
X151500000Y-55904761D02*
X150166666Y-57904761D01*
X62809523Y-53714285D02*
X62904761Y-53428571D01*
X62904761Y-52952380D01*
X62809523Y-52761904D01*
X62714285Y-52666666D01*
X62523809Y-52571428D01*
X62333333Y-52571428D01*
X62142857Y-52666666D01*
X62047619Y-52761904D01*
X61952380Y-52952380D01*
X61857142Y-53333333D01*
X61761904Y-53523809D01*
X61666666Y-53619047D01*
X61476190Y-53714285D01*
X61285714Y-53714285D01*
X61095238Y-53619047D01*
X61000000Y-53523809D01*
X60904761Y-53333333D01*
X60904761Y-52857142D01*
X61000000Y-52571428D01*
X60904761Y-51333333D02*
X60904761Y-50952380D01*
X61000000Y-50761904D01*
X61190476Y-50571428D01*
X61571428Y-50476190D01*
X62238095Y-50476190D01*
X62619047Y-50571428D01*
X62809523Y-50761904D01*
X62904761Y-50952380D01*
X62904761Y-51333333D01*
X62809523Y-51523809D01*
X62619047Y-51714285D01*
X62238095Y-51809523D01*
X61571428Y-51809523D01*
X61190476Y-51714285D01*
X61000000Y-51523809D01*
X60904761Y-51333333D01*
X62142857Y-49619047D02*
X62142857Y-48095238D01*
X61095238Y-47238095D02*
X61000000Y-47142857D01*
X60904761Y-46952380D01*
X60904761Y-46476190D01*
X61000000Y-46285714D01*
X61095238Y-46190476D01*
X61285714Y-46095238D01*
X61476190Y-46095238D01*
X61761904Y-46190476D01*
X62904761Y-47333333D01*
X62904761Y-46095238D01*
X60904761Y-45428571D02*
X60904761Y-44190476D01*
X61666666Y-44857142D01*
X61666666Y-44571428D01*
X61761904Y-44380952D01*
X61857142Y-44285714D01*
X62047619Y-44190476D01*
X62523809Y-44190476D01*
X62714285Y-44285714D01*
X62809523Y-44380952D01*
X62904761Y-44571428D01*
X62904761Y-45142857D01*
X62809523Y-45333333D01*
X62714285Y-45428571D01*
X62904761Y-43238095D02*
X62904761Y-42857142D01*
X62809523Y-42666666D01*
X62714285Y-42571428D01*
X62428571Y-42380952D01*
X62047619Y-42285714D01*
X61285714Y-42285714D01*
X61095238Y-42380952D01*
X61000000Y-42476190D01*
X60904761Y-42666666D01*
X60904761Y-43047619D01*
X61000000Y-43238095D01*
X61095238Y-43333333D01*
X61285714Y-43428571D01*
X61761904Y-43428571D01*
X61952380Y-43333333D01*
X62047619Y-43238095D01*
X62142857Y-43047619D01*
X62142857Y-42666666D01*
X62047619Y-42476190D01*
X61952380Y-42380952D01*
X61761904Y-42285714D01*
D12*
X72714285Y-46095238D02*
X72809523Y-46000000D01*
X73000000Y-45904761D01*
X73476190Y-45904761D01*
X73666666Y-46000000D01*
X73761904Y-46095238D01*
X73857142Y-46285714D01*
X73857142Y-46476190D01*
X73761904Y-46761904D01*
X72619047Y-47904761D01*
X73857142Y-47904761D01*
X75666666Y-45904761D02*
X74714285Y-45904761D01*
X74619047Y-46857142D01*
X74714285Y-46761904D01*
X74904761Y-46666666D01*
X75380952Y-46666666D01*
X75571428Y-46761904D01*
X75666666Y-46857142D01*
X75761904Y-47047619D01*
X75761904Y-47523809D01*
X75666666Y-47714285D01*
X75571428Y-47809523D01*
X75380952Y-47904761D01*
X74904761Y-47904761D01*
X74714285Y-47809523D01*
X74619047Y-47714285D01*
X77000000Y-45904761D02*
X77190476Y-45904761D01*
X77380952Y-46000000D01*
X77476190Y-46095238D01*
X77571428Y-46285714D01*
X77666666Y-46666666D01*
X77666666Y-47142857D01*
X77571428Y-47523809D01*
X77476190Y-47714285D01*
X77380952Y-47809523D01*
X77190476Y-47904761D01*
X77000000Y-47904761D01*
X76809523Y-47809523D01*
X76714285Y-47714285D01*
X76619047Y-47523809D01*
X76523809Y-47142857D01*
X76523809Y-46666666D01*
X76619047Y-46285714D01*
X76714285Y-46095238D01*
X76809523Y-46000000D01*
X77000000Y-45904761D01*
X78904761Y-45904761D02*
X79095238Y-45904761D01*
X79285714Y-46000000D01*
X79380952Y-46095238D01*
X79476190Y-46285714D01*
X79571428Y-46666666D01*
X79571428Y-47142857D01*
X79476190Y-47523809D01*
X79380952Y-47714285D01*
X79285714Y-47809523D01*
X79095238Y-47904761D01*
X78904761Y-47904761D01*
X78714285Y-47809523D01*
X78619047Y-47714285D01*
X78523809Y-47523809D01*
X78428571Y-47142857D01*
X78428571Y-46666666D01*
X78523809Y-46285714D01*
X78619047Y-46095238D01*
X78714285Y-46000000D01*
X78904761Y-45904761D01*
X80238095Y-45904761D02*
X80714285Y-47904761D01*
X81095238Y-46476190D01*
X81476190Y-47904761D01*
X81952380Y-45904761D01*
X84238095Y-47904761D02*
X84238095Y-45904761D01*
X84904761Y-47333333D01*
X85571428Y-45904761D01*
X85571428Y-47904761D01*
X86428571Y-47333333D02*
X87380952Y-47333333D01*
X86238095Y-47904761D02*
X86904761Y-45904761D01*
X87571428Y-47904761D01*
X88047619Y-45904761D02*
X89380952Y-47904761D01*
X89380952Y-45904761D02*
X88047619Y-47904761D01*
X66238095Y-43857142D02*
X66523809Y-43952380D01*
X66619047Y-44047619D01*
X66714285Y-44238095D01*
X66714285Y-44523809D01*
X66619047Y-44714285D01*
X66523809Y-44809523D01*
X66333333Y-44904761D01*
X65571428Y-44904761D01*
X65571428Y-42904761D01*
X66238095Y-42904761D01*
X66428571Y-43000000D01*
X66523809Y-43095238D01*
X66619047Y-43285714D01*
X66619047Y-43476190D01*
X66523809Y-43666666D01*
X66428571Y-43761904D01*
X66238095Y-43857142D01*
X65571428Y-43857142D01*
X68714285Y-44904761D02*
X68047619Y-43952380D01*
X67571428Y-44904761D02*
X67571428Y-42904761D01*
X68333333Y-42904761D01*
X68523809Y-43000000D01*
X68619047Y-43095238D01*
X68714285Y-43285714D01*
X68714285Y-43571428D01*
X68619047Y-43761904D01*
X68523809Y-43857142D01*
X68333333Y-43952380D01*
X67571428Y-43952380D01*
X69571428Y-42904761D02*
X69571428Y-44523809D01*
X69666666Y-44714285D01*
X69761904Y-44809523D01*
X69952380Y-44904761D01*
X70333333Y-44904761D01*
X70523809Y-44809523D01*
X70619047Y-44714285D01*
X70714285Y-44523809D01*
X70714285Y-42904761D01*
X71666666Y-43857142D02*
X72333333Y-43857142D01*
X72619047Y-44904761D02*
X71666666Y-44904761D01*
X71666666Y-42904761D01*
X72619047Y-42904761D01*
X73476190Y-44904761D02*
X73476190Y-42904761D01*
X74619047Y-44904761D01*
X74619047Y-42904761D01*
X75571428Y-43857142D02*
X76238095Y-43857142D01*
X76523809Y-44904761D02*
X75571428Y-44904761D01*
X75571428Y-42904761D01*
X76523809Y-42904761D01*
X78809523Y-44809523D02*
X79095238Y-44904761D01*
X79571428Y-44904761D01*
X79761904Y-44809523D01*
X79857142Y-44714285D01*
X79952380Y-44523809D01*
X79952380Y-44333333D01*
X79857142Y-44142857D01*
X79761904Y-44047619D01*
X79571428Y-43952380D01*
X79190476Y-43857142D01*
X79000000Y-43761904D01*
X78904761Y-43666666D01*
X78809523Y-43476190D01*
X78809523Y-43285714D01*
X78904761Y-43095238D01*
X79000000Y-43000000D01*
X79190476Y-42904761D01*
X79666666Y-42904761D01*
X79952380Y-43000000D01*
X80619047Y-42904761D02*
X81095238Y-44904761D01*
X81476190Y-43476190D01*
X81857142Y-44904761D01*
X82333333Y-42904761D01*
X84238095Y-44904761D02*
X83571428Y-43952380D01*
X83095238Y-44904761D02*
X83095238Y-42904761D01*
X83857142Y-42904761D01*
X84047619Y-43000000D01*
X84142857Y-43095238D01*
X84238095Y-43285714D01*
X84238095Y-43571428D01*
X84142857Y-43761904D01*
X84047619Y-43857142D01*
X83857142Y-43952380D01*
X83095238Y-43952380D01*
X87285714Y-43857142D02*
X87571428Y-43952380D01*
X87666666Y-44047619D01*
X87761904Y-44238095D01*
X87761904Y-44523809D01*
X87666666Y-44714285D01*
X87571428Y-44809523D01*
X87380952Y-44904761D01*
X86619047Y-44904761D01*
X86619047Y-42904761D01*
X87285714Y-42904761D01*
X87476190Y-43000000D01*
X87571428Y-43095238D01*
X87666666Y-43285714D01*
X87666666Y-43476190D01*
X87571428Y-43666666D01*
X87476190Y-43761904D01*
X87285714Y-43857142D01*
X86619047Y-43857142D01*
X89761904Y-44904761D02*
X89095238Y-43952380D01*
X88619047Y-44904761D02*
X88619047Y-42904761D01*
X89380952Y-42904761D01*
X89571428Y-43000000D01*
X89666666Y-43095238D01*
X89761904Y-43285714D01*
X89761904Y-43571428D01*
X89666666Y-43761904D01*
X89571428Y-43857142D01*
X89380952Y-43952380D01*
X88619047Y-43952380D01*
X90619047Y-44904761D02*
X90619047Y-42904761D01*
X91571428Y-44904761D02*
X91571428Y-42904761D01*
X92047619Y-42904761D01*
X92333333Y-43000000D01*
X92523809Y-43190476D01*
X92619047Y-43380952D01*
X92714285Y-43761904D01*
X92714285Y-44047619D01*
X92619047Y-44428571D01*
X92523809Y-44619047D01*
X92333333Y-44809523D01*
X92047619Y-44904761D01*
X91571428Y-44904761D01*
X94619047Y-43000000D02*
X94428571Y-42904761D01*
X94142857Y-42904761D01*
X93857142Y-43000000D01*
X93666666Y-43190476D01*
X93571428Y-43380952D01*
X93476190Y-43761904D01*
X93476190Y-44047619D01*
X93571428Y-44428571D01*
X93666666Y-44619047D01*
X93857142Y-44809523D01*
X94142857Y-44904761D01*
X94333333Y-44904761D01*
X94619047Y-44809523D01*
X94714285Y-44714285D01*
X94714285Y-44047619D01*
X94333333Y-44047619D01*
X95571428Y-43857142D02*
X96238095Y-43857142D01*
X96523809Y-44904761D02*
X95571428Y-44904761D01*
X95571428Y-42904761D01*
X96523809Y-42904761D01*
D10*
X109047619Y-35452380D02*
X108714285Y-34976190D01*
X108476190Y-35452380D02*
X108476190Y-34452380D01*
X108857142Y-34452380D01*
X108952380Y-34500000D01*
X109000000Y-34547619D01*
X109047619Y-34642857D01*
X109047619Y-34785714D01*
X109000000Y-34880952D01*
X108952380Y-34928571D01*
X108857142Y-34976190D01*
X108476190Y-34976190D01*
X109476190Y-34928571D02*
X109809523Y-34928571D01*
X109952380Y-35452380D02*
X109476190Y-35452380D01*
X109476190Y-34452380D01*
X109952380Y-34452380D01*
X110238095Y-34452380D02*
X110571428Y-35452380D01*
X110904761Y-34452380D01*
X111238095Y-34928571D02*
X111571428Y-34928571D01*
X111714285Y-35452380D02*
X111238095Y-35452380D01*
X111238095Y-34452380D01*
X111714285Y-34452380D01*
X112714285Y-35452380D02*
X112380952Y-34976190D01*
X112142857Y-35452380D02*
X112142857Y-34452380D01*
X112523809Y-34452380D01*
X112619047Y-34500000D01*
X112666666Y-34547619D01*
X112714285Y-34642857D01*
X112714285Y-34785714D01*
X112666666Y-34880952D01*
X112619047Y-34928571D01*
X112523809Y-34976190D01*
X112142857Y-34976190D01*
X113095238Y-35404761D02*
X113238095Y-35452380D01*
X113476190Y-35452380D01*
X113571428Y-35404761D01*
X113619047Y-35357142D01*
X113666666Y-35261904D01*
X113666666Y-35166666D01*
X113619047Y-35071428D01*
X113571428Y-35023809D01*
X113476190Y-34976190D01*
X113285714Y-34928571D01*
X113190476Y-34880952D01*
X113142857Y-34833333D01*
X113095238Y-34738095D01*
X113095238Y-34642857D01*
X113142857Y-34547619D01*
X113190476Y-34500000D01*
X113285714Y-34452380D01*
X113523809Y-34452380D01*
X113666666Y-34500000D01*
X114095238Y-34928571D02*
X114428571Y-34928571D01*
X114571428Y-35452380D02*
X114095238Y-35452380D01*
X114095238Y-34452380D01*
X114571428Y-34452380D01*
X64214285Y-57333333D02*
X65166666Y-57333333D01*
X64023809Y-57904761D02*
X64690476Y-55904761D01*
X65357142Y-57904761D01*
X66023809Y-57904761D02*
X66023809Y-55904761D01*
X67166666Y-57904761D01*
X67166666Y-55904761D01*
X67833333Y-55904761D02*
X68976190Y-55904761D01*
X68404761Y-57904761D02*
X68404761Y-55904761D01*
D11*
X134000000Y-50500000D02*
X108500000Y-50500000D01*
X108500000Y-63500000D02*
X108500000Y-50500000D01*
X134000000Y-63500000D02*
X108500000Y-63500000D01*
D10*
X150309523Y-51714285D02*
X150404761Y-51428571D01*
X150404761Y-50952380D01*
X150309523Y-50761904D01*
X150214285Y-50666666D01*
X150023809Y-50571428D01*
X149833333Y-50571428D01*
X149642857Y-50666666D01*
X149547619Y-50761904D01*
X149452380Y-50952380D01*
X149357142Y-51333333D01*
X149261904Y-51523809D01*
X149166666Y-51619047D01*
X148976190Y-51714285D01*
X148785714Y-51714285D01*
X148595238Y-51619047D01*
X148500000Y-51523809D01*
X148404761Y-51333333D01*
X148404761Y-50857142D01*
X148500000Y-50571428D01*
X148404761Y-49333333D02*
X148404761Y-48952380D01*
X148500000Y-48761904D01*
X148690476Y-48571428D01*
X149071428Y-48476190D01*
X149738095Y-48476190D01*
X150119047Y-48571428D01*
X150309523Y-48761904D01*
X150404761Y-48952380D01*
X150404761Y-49333333D01*
X150309523Y-49523809D01*
X150119047Y-49714285D01*
X149738095Y-49809523D01*
X149071428Y-49809523D01*
X148690476Y-49714285D01*
X148500000Y-49523809D01*
X148404761Y-49333333D01*
X149642857Y-47619047D02*
X149642857Y-46095238D01*
X148595238Y-45238095D02*
X148500000Y-45142857D01*
X148404761Y-44952380D01*
X148404761Y-44476190D01*
X148500000Y-44285714D01*
X148595238Y-44190476D01*
X148785714Y-44095238D01*
X148976190Y-44095238D01*
X149261904Y-44190476D01*
X150404761Y-45333333D01*
X150404761Y-44095238D01*
X148404761Y-43428571D02*
X148404761Y-42190476D01*
X149166666Y-42857142D01*
X149166666Y-42571428D01*
X149261904Y-42380952D01*
X149357142Y-42285714D01*
X149547619Y-42190476D01*
X150023809Y-42190476D01*
X150214285Y-42285714D01*
X150309523Y-42380952D01*
X150404761Y-42571428D01*
X150404761Y-43142857D01*
X150309523Y-43333333D01*
X150214285Y-43428571D01*
X150404761Y-41238095D02*
X150404761Y-40857142D01*
X150309523Y-40666666D01*
X150214285Y-40571428D01*
X149928571Y-40380952D01*
X149547619Y-40285714D01*
X148785714Y-40285714D01*
X148595238Y-40380952D01*
X148500000Y-40476190D01*
X148404761Y-40666666D01*
X148404761Y-41047619D01*
X148500000Y-41238095D01*
X148595238Y-41333333D01*
X148785714Y-41428571D01*
X149261904Y-41428571D01*
X149452380Y-41333333D01*
X149547619Y-41238095D01*
X149642857Y-41047619D01*
X149642857Y-40666666D01*
X149547619Y-40476190D01*
X149452380Y-40380952D01*
X149261904Y-40285714D01*
X110119047Y-78928571D02*
X109785714Y-78928571D01*
X109785714Y-79452380D02*
X109785714Y-78452380D01*
X110261904Y-78452380D01*
X110833333Y-78452380D02*
X111023809Y-78452380D01*
X111119047Y-78500000D01*
X111214285Y-78595238D01*
X111261904Y-78785714D01*
X111261904Y-79119047D01*
X111214285Y-79309523D01*
X111119047Y-79404761D01*
X111023809Y-79452380D01*
X110833333Y-79452380D01*
X110738095Y-79404761D01*
X110642857Y-79309523D01*
X110595238Y-79119047D01*
X110595238Y-78785714D01*
X110642857Y-78595238D01*
X110738095Y-78500000D01*
X110833333Y-78452380D01*
X112261904Y-79452380D02*
X111928571Y-78976190D01*
X111690476Y-79452380D02*
X111690476Y-78452380D01*
X112071428Y-78452380D01*
X112166666Y-78500000D01*
X112214285Y-78547619D01*
X112261904Y-78642857D01*
X112261904Y-78785714D01*
X112214285Y-78880952D01*
X112166666Y-78928571D01*
X112071428Y-78976190D01*
X111690476Y-78976190D01*
X112595238Y-78452380D02*
X112833333Y-79452380D01*
X113023809Y-78738095D01*
X113214285Y-79452380D01*
X113452380Y-78452380D01*
X113785714Y-79166666D02*
X114261904Y-79166666D01*
X113690476Y-79452380D02*
X114023809Y-78452380D01*
X114357142Y-79452380D01*
X115261904Y-79452380D02*
X114928571Y-78976190D01*
X114690476Y-79452380D02*
X114690476Y-78452380D01*
X115071428Y-78452380D01*
X115166666Y-78500000D01*
X115214285Y-78547619D01*
X115261904Y-78642857D01*
X115261904Y-78785714D01*
X115214285Y-78880952D01*
X115166666Y-78928571D01*
X115071428Y-78976190D01*
X114690476Y-78976190D01*
X115690476Y-79452380D02*
X115690476Y-78452380D01*
X115928571Y-78452380D01*
X116071428Y-78500000D01*
X116166666Y-78595238D01*
X116214285Y-78690476D01*
X116261904Y-78880952D01*
X116261904Y-79023809D01*
X116214285Y-79214285D01*
X116166666Y-79309523D01*
X116071428Y-79404761D01*
X115928571Y-79452380D01*
X115690476Y-79452380D01*
X138000000Y-61000000D02*
X138000000Y-53000000D01*
X134000000Y-61000000D02*
X138000000Y-61000000D01*
X138000000Y-53000000D02*
X134000000Y-53000000D01*
X82000000Y-61000000D02*
X86000000Y-61000000D01*
X82000000Y-53500000D02*
X82000000Y-61000000D01*
X86000000Y-53500000D02*
X82000000Y-53500000D01*
D11*
X134000000Y-63500000D02*
X134000000Y-50500000D01*
X86000000Y-63500000D02*
X99500000Y-63500000D01*
X86000000Y-50500000D02*
X86000000Y-63500000D01*
X99500000Y-50500000D02*
X86000000Y-50500000D01*
%TO.C,C3*%
X118630000Y-37880000D02*
X126370000Y-37880000D01*
X118630000Y-43120000D02*
X126370000Y-43120000D01*
X118630000Y-37880000D02*
X118630000Y-43120000D01*
X126370000Y-37880000D02*
X126370000Y-43120000D01*
%TO.C,C4*%
X118130000Y-71380000D02*
X125870000Y-71380000D01*
X118130000Y-76620000D02*
X125870000Y-76620000D01*
X118130000Y-71380000D02*
X118130000Y-76620000D01*
X125870000Y-71380000D02*
X125870000Y-76620000D01*
%TO.C,C5*%
X82370000Y-64380000D02*
X82370000Y-69620000D01*
X74630000Y-64380000D02*
X74630000Y-69620000D01*
X74630000Y-69620000D02*
X82370000Y-69620000D01*
X74630000Y-64380000D02*
X82370000Y-64380000D01*
%TO.C,D1*%
X105930000Y-38120000D02*
X105930000Y-35880000D01*
X105930000Y-35880000D02*
X101690000Y-35880000D01*
X101690000Y-35880000D02*
X101690000Y-38120000D01*
X101690000Y-38120000D02*
X105930000Y-38120000D01*
X106580000Y-37000000D02*
X105930000Y-37000000D01*
X101040000Y-37000000D02*
X101690000Y-37000000D01*
X105210000Y-38120000D02*
X105210000Y-35880000D01*
X105090000Y-38120000D02*
X105090000Y-35880000D01*
X105330000Y-38120000D02*
X105330000Y-35880000D01*
%TO.C,D2*%
X105330000Y-78120000D02*
X105330000Y-75880000D01*
X105090000Y-78120000D02*
X105090000Y-75880000D01*
X105210000Y-78120000D02*
X105210000Y-75880000D01*
X101040000Y-77000000D02*
X101690000Y-77000000D01*
X106580000Y-77000000D02*
X105930000Y-77000000D01*
X101690000Y-78120000D02*
X105930000Y-78120000D01*
X101690000Y-75880000D02*
X101690000Y-78120000D01*
X105930000Y-75880000D02*
X101690000Y-75880000D01*
X105930000Y-78120000D02*
X105930000Y-75880000D01*
%TO.C,J3*%
X151000000Y-41250000D02*
X159750000Y-41250000D01*
X159750000Y-41250000D02*
X159750000Y-72750000D01*
X159750000Y-72750000D02*
X151000000Y-72750000D01*
X151000000Y-72750000D02*
X151000000Y-41250000D01*
%TO.C,L2*%
X99500000Y-75000000D02*
X108500000Y-75000000D01*
X99500000Y-39000000D02*
X108500000Y-39000000D01*
X108500000Y-39000000D02*
X108500000Y-75000000D01*
X99500000Y-75000000D02*
X99500000Y-39000000D01*
%TO.C,C1*%
X70620000Y-62367500D02*
X70620000Y-70107500D01*
X65380000Y-62367500D02*
X65380000Y-70107500D01*
X70620000Y-62367500D02*
X69256000Y-62367500D01*
X66744000Y-62367500D02*
X65380000Y-62367500D01*
X70620000Y-70107500D02*
X69256000Y-70107500D01*
X66744000Y-70107500D02*
X65380000Y-70107500D01*
%TO.C,J2*%
X110815000Y-37695000D02*
X110815000Y-37000000D01*
X111500000Y-37695000D02*
X110815000Y-37695000D01*
X112185000Y-36391724D02*
X112185000Y-36305000D01*
X112185000Y-37695000D02*
X112185000Y-37608276D01*
X112185000Y-36305000D02*
X112060000Y-36305000D01*
X112185000Y-37695000D02*
X112060000Y-37695000D01*
X112185000Y-37695000D02*
X112185000Y-36305000D01*
%TO.C,J6*%
X111305000Y-77685000D02*
X112695000Y-77685000D01*
X111305000Y-77685000D02*
X111305000Y-77560000D01*
X112695000Y-77685000D02*
X112695000Y-77560000D01*
X111305000Y-77685000D02*
X111391724Y-77685000D01*
X112608276Y-77685000D02*
X112695000Y-77685000D01*
X111305000Y-77000000D02*
X111305000Y-76315000D01*
X111305000Y-76315000D02*
X112000000Y-76315000D01*
%TO.C,J1*%
X52000000Y-41250000D02*
X60750000Y-41250000D01*
X60750000Y-41250000D02*
X60750000Y-72750000D01*
X60750000Y-72750000D02*
X52000000Y-72750000D01*
X52000000Y-72750000D02*
X52000000Y-41250000D01*
%TO.C,R2*%
X84920000Y-34230000D02*
X95160000Y-34230000D01*
X84920000Y-38871000D02*
X95160000Y-38871000D01*
X84920000Y-34230000D02*
X84920000Y-38871000D01*
X95160000Y-34230000D02*
X95160000Y-38871000D01*
X84920000Y-35740000D02*
X95160000Y-35740000D01*
X88190000Y-34230000D02*
X88190000Y-35740000D01*
X91891000Y-34230000D02*
X91891000Y-35740000D01*
%TO.C,R3*%
X115080000Y-40380000D02*
X115080000Y-36540000D01*
X116920000Y-40380000D02*
X116920000Y-36540000D01*
%TO.C,R4*%
X120620000Y-35080000D02*
X124460000Y-35080000D01*
X120620000Y-36920000D02*
X124460000Y-36920000D01*
%TO.C,R5*%
X115080000Y-72540000D02*
X115080000Y-76380000D01*
X116920000Y-72540000D02*
X116920000Y-76380000D01*
%TO.C,R6*%
X120040000Y-79420000D02*
X123880000Y-79420000D01*
X120040000Y-77580000D02*
X123880000Y-77580000D01*
%TO.C,C3*%
D10*
X122333333Y-40857142D02*
X122285714Y-40904761D01*
X122142857Y-40952380D01*
X122047619Y-40952380D01*
X121904761Y-40904761D01*
X121809523Y-40809523D01*
X121761904Y-40714285D01*
X121714285Y-40523809D01*
X121714285Y-40380952D01*
X121761904Y-40190476D01*
X121809523Y-40095238D01*
X121904761Y-40000000D01*
X122047619Y-39952380D01*
X122142857Y-39952380D01*
X122285714Y-40000000D01*
X122333333Y-40047619D01*
X122666666Y-39952380D02*
X123285714Y-39952380D01*
X122952380Y-40333333D01*
X123095238Y-40333333D01*
X123190476Y-40380952D01*
X123238095Y-40428571D01*
X123285714Y-40523809D01*
X123285714Y-40761904D01*
X123238095Y-40857142D01*
X123190476Y-40904761D01*
X123095238Y-40952380D01*
X122809523Y-40952380D01*
X122714285Y-40904761D01*
X122666666Y-40857142D01*
%TO.C,C4*%
X121833333Y-74357142D02*
X121785714Y-74404761D01*
X121642857Y-74452380D01*
X121547619Y-74452380D01*
X121404761Y-74404761D01*
X121309523Y-74309523D01*
X121261904Y-74214285D01*
X121214285Y-74023809D01*
X121214285Y-73880952D01*
X121261904Y-73690476D01*
X121309523Y-73595238D01*
X121404761Y-73500000D01*
X121547619Y-73452380D01*
X121642857Y-73452380D01*
X121785714Y-73500000D01*
X121833333Y-73547619D01*
X122690476Y-73785714D02*
X122690476Y-74452380D01*
X122452380Y-73404761D02*
X122214285Y-74119047D01*
X122833333Y-74119047D01*
%TO.C,R1*%
X95452380Y-71166666D02*
X94976190Y-71500000D01*
X95452380Y-71738095D02*
X94452380Y-71738095D01*
X94452380Y-71357142D01*
X94500000Y-71261904D01*
X94547619Y-71214285D01*
X94642857Y-71166666D01*
X94785714Y-71166666D01*
X94880952Y-71214285D01*
X94928571Y-71261904D01*
X94976190Y-71357142D01*
X94976190Y-71738095D01*
X95452380Y-70214285D02*
X95452380Y-70785714D01*
X95452380Y-70500000D02*
X94452380Y-70500000D01*
X94595238Y-70595238D01*
X94690476Y-70690476D01*
X94738095Y-70785714D01*
%TO.C,C2*%
X82357142Y-74666666D02*
X82404761Y-74714285D01*
X82452380Y-74857142D01*
X82452380Y-74952380D01*
X82404761Y-75095238D01*
X82309523Y-75190476D01*
X82214285Y-75238095D01*
X82023809Y-75285714D01*
X81880952Y-75285714D01*
X81690476Y-75238095D01*
X81595238Y-75190476D01*
X81500000Y-75095238D01*
X81452380Y-74952380D01*
X81452380Y-74857142D01*
X81500000Y-74714285D01*
X81547619Y-74666666D01*
X81547619Y-74285714D02*
X81500000Y-74238095D01*
X81452380Y-74142857D01*
X81452380Y-73904761D01*
X81500000Y-73809523D01*
X81547619Y-73761904D01*
X81642857Y-73714285D01*
X81738095Y-73714285D01*
X81880952Y-73761904D01*
X82452380Y-74333333D01*
X82452380Y-73714285D01*
%TO.C,C5*%
X78333333Y-67357142D02*
X78285714Y-67404761D01*
X78142857Y-67452380D01*
X78047619Y-67452380D01*
X77904761Y-67404761D01*
X77809523Y-67309523D01*
X77761904Y-67214285D01*
X77714285Y-67023809D01*
X77714285Y-66880952D01*
X77761904Y-66690476D01*
X77809523Y-66595238D01*
X77904761Y-66500000D01*
X78047619Y-66452380D01*
X78142857Y-66452380D01*
X78285714Y-66500000D01*
X78333333Y-66547619D01*
X79238095Y-66452380D02*
X78761904Y-66452380D01*
X78714285Y-66928571D01*
X78761904Y-66880952D01*
X78857142Y-66833333D01*
X79095238Y-66833333D01*
X79190476Y-66880952D01*
X79238095Y-66928571D01*
X79285714Y-67023809D01*
X79285714Y-67261904D01*
X79238095Y-67357142D01*
X79190476Y-67404761D01*
X79095238Y-67452380D01*
X78857142Y-67452380D01*
X78761904Y-67404761D01*
X78714285Y-67357142D01*
%TO.C,D1*%
X103261904Y-37452380D02*
X103261904Y-36452380D01*
X103500000Y-36452380D01*
X103642857Y-36500000D01*
X103738095Y-36595238D01*
X103785714Y-36690476D01*
X103833333Y-36880952D01*
X103833333Y-37023809D01*
X103785714Y-37214285D01*
X103738095Y-37309523D01*
X103642857Y-37404761D01*
X103500000Y-37452380D01*
X103261904Y-37452380D01*
X104785714Y-37452380D02*
X104214285Y-37452380D01*
X104500000Y-37452380D02*
X104500000Y-36452380D01*
X104404761Y-36595238D01*
X104309523Y-36690476D01*
X104214285Y-36738095D01*
X107358095Y-39252380D02*
X107358095Y-38252380D01*
X107929523Y-39252380D02*
X107500952Y-38680952D01*
X107929523Y-38252380D02*
X107358095Y-38823809D01*
%TO.C,D2*%
X103071904Y-77452380D02*
X103071904Y-76452380D01*
X103310000Y-76452380D01*
X103452857Y-76500000D01*
X103548095Y-76595238D01*
X103595714Y-76690476D01*
X103643333Y-76880952D01*
X103643333Y-77023809D01*
X103595714Y-77214285D01*
X103548095Y-77309523D01*
X103452857Y-77404761D01*
X103310000Y-77452380D01*
X103071904Y-77452380D01*
X104024285Y-76547619D02*
X104071904Y-76500000D01*
X104167142Y-76452380D01*
X104405238Y-76452380D01*
X104500476Y-76500000D01*
X104548095Y-76547619D01*
X104595714Y-76642857D01*
X104595714Y-76738095D01*
X104548095Y-76880952D01*
X103976666Y-77452380D01*
X104595714Y-77452380D01*
X107358095Y-79252380D02*
X107358095Y-78252380D01*
X107929523Y-79252380D02*
X107500952Y-78680952D01*
X107929523Y-78252380D02*
X107358095Y-78823809D01*
%TO.C,J3*%
X155166666Y-42907380D02*
X155166666Y-43621666D01*
X155119047Y-43764523D01*
X155023809Y-43859761D01*
X154880952Y-43907380D01*
X154785714Y-43907380D01*
X155547619Y-42907380D02*
X156166666Y-42907380D01*
X155833333Y-43288333D01*
X155976190Y-43288333D01*
X156071428Y-43335952D01*
X156119047Y-43383571D01*
X156166666Y-43478809D01*
X156166666Y-43716904D01*
X156119047Y-43812142D01*
X156071428Y-43859761D01*
X155976190Y-43907380D01*
X155690476Y-43907380D01*
X155595238Y-43859761D01*
X155547619Y-43812142D01*
%TO.C,L2*%
X100952380Y-57166666D02*
X100952380Y-57642857D01*
X99952380Y-57642857D01*
X100047619Y-56880952D02*
X100000000Y-56833333D01*
X99952380Y-56738095D01*
X99952380Y-56500000D01*
X100000000Y-56404761D01*
X100047619Y-56357142D01*
X100142857Y-56309523D01*
X100238095Y-56309523D01*
X100380952Y-56357142D01*
X100952380Y-56928571D01*
X100952380Y-56309523D01*
%TO.C,C1*%
X68357142Y-66404166D02*
X68404761Y-66451785D01*
X68452380Y-66594642D01*
X68452380Y-66689880D01*
X68404761Y-66832738D01*
X68309523Y-66927976D01*
X68214285Y-66975595D01*
X68023809Y-67023214D01*
X67880952Y-67023214D01*
X67690476Y-66975595D01*
X67595238Y-66927976D01*
X67500000Y-66832738D01*
X67452380Y-66689880D01*
X67452380Y-66594642D01*
X67500000Y-66451785D01*
X67547619Y-66404166D01*
X68452380Y-65451785D02*
X68452380Y-66023214D01*
X68452380Y-65737500D02*
X67452380Y-65737500D01*
X67595238Y-65832738D01*
X67690476Y-65927976D01*
X67738095Y-66023214D01*
%TO.C,J1*%
X56166666Y-42907380D02*
X56166666Y-43621666D01*
X56119047Y-43764523D01*
X56023809Y-43859761D01*
X55880952Y-43907380D01*
X55785714Y-43907380D01*
X57166666Y-43907380D02*
X56595238Y-43907380D01*
X56880952Y-43907380D02*
X56880952Y-42907380D01*
X56785714Y-43050238D01*
X56690476Y-43145476D01*
X56595238Y-43193095D01*
%TO.C,R2*%
X89873333Y-37952380D02*
X89540000Y-37476190D01*
X89301904Y-37952380D02*
X89301904Y-36952380D01*
X89682857Y-36952380D01*
X89778095Y-37000000D01*
X89825714Y-37047619D01*
X89873333Y-37142857D01*
X89873333Y-37285714D01*
X89825714Y-37380952D01*
X89778095Y-37428571D01*
X89682857Y-37476190D01*
X89301904Y-37476190D01*
X90254285Y-37047619D02*
X90301904Y-37000000D01*
X90397142Y-36952380D01*
X90635238Y-36952380D01*
X90730476Y-37000000D01*
X90778095Y-37047619D01*
X90825714Y-37142857D01*
X90825714Y-37238095D01*
X90778095Y-37380952D01*
X90206666Y-37952380D01*
X90825714Y-37952380D01*
%TO.C,R3*%
X116452380Y-38626666D02*
X115976190Y-38960000D01*
X116452380Y-39198095D02*
X115452380Y-39198095D01*
X115452380Y-38817142D01*
X115500000Y-38721904D01*
X115547619Y-38674285D01*
X115642857Y-38626666D01*
X115785714Y-38626666D01*
X115880952Y-38674285D01*
X115928571Y-38721904D01*
X115976190Y-38817142D01*
X115976190Y-39198095D01*
X115452380Y-38293333D02*
X115452380Y-37674285D01*
X115833333Y-38007619D01*
X115833333Y-37864761D01*
X115880952Y-37769523D01*
X115928571Y-37721904D01*
X116023809Y-37674285D01*
X116261904Y-37674285D01*
X116357142Y-37721904D01*
X116404761Y-37769523D01*
X116452380Y-37864761D01*
X116452380Y-38150476D01*
X116404761Y-38245714D01*
X116357142Y-38293333D01*
%TO.C,R4*%
X122333333Y-36452380D02*
X122000000Y-35976190D01*
X121761904Y-36452380D02*
X121761904Y-35452380D01*
X122142857Y-35452380D01*
X122238095Y-35500000D01*
X122285714Y-35547619D01*
X122333333Y-35642857D01*
X122333333Y-35785714D01*
X122285714Y-35880952D01*
X122238095Y-35928571D01*
X122142857Y-35976190D01*
X121761904Y-35976190D01*
X123190476Y-35785714D02*
X123190476Y-36452380D01*
X122952380Y-35404761D02*
X122714285Y-36119047D01*
X123333333Y-36119047D01*
%TO.C,R5*%
X116452380Y-74626666D02*
X115976190Y-74960000D01*
X116452380Y-75198095D02*
X115452380Y-75198095D01*
X115452380Y-74817142D01*
X115500000Y-74721904D01*
X115547619Y-74674285D01*
X115642857Y-74626666D01*
X115785714Y-74626666D01*
X115880952Y-74674285D01*
X115928571Y-74721904D01*
X115976190Y-74817142D01*
X115976190Y-75198095D01*
X115452380Y-73721904D02*
X115452380Y-74198095D01*
X115928571Y-74245714D01*
X115880952Y-74198095D01*
X115833333Y-74102857D01*
X115833333Y-73864761D01*
X115880952Y-73769523D01*
X115928571Y-73721904D01*
X116023809Y-73674285D01*
X116261904Y-73674285D01*
X116357142Y-73721904D01*
X116404761Y-73769523D01*
X116452380Y-73864761D01*
X116452380Y-74102857D01*
X116404761Y-74198095D01*
X116357142Y-74245714D01*
%TO.C,R6*%
X121833333Y-78952380D02*
X121500000Y-78476190D01*
X121261904Y-78952380D02*
X121261904Y-77952380D01*
X121642857Y-77952380D01*
X121738095Y-78000000D01*
X121785714Y-78047619D01*
X121833333Y-78142857D01*
X121833333Y-78285714D01*
X121785714Y-78380952D01*
X121738095Y-78428571D01*
X121642857Y-78476190D01*
X121261904Y-78476190D01*
X122690476Y-77952380D02*
X122500000Y-77952380D01*
X122404761Y-78000000D01*
X122357142Y-78047619D01*
X122261904Y-78190476D01*
X122214285Y-78380952D01*
X122214285Y-78761904D01*
X122261904Y-78857142D01*
X122309523Y-78904761D01*
X122404761Y-78952380D01*
X122595238Y-78952380D01*
X122690476Y-78904761D01*
X122738095Y-78857142D01*
X122785714Y-78761904D01*
X122785714Y-78523809D01*
X122738095Y-78428571D01*
X122690476Y-78380952D01*
X122595238Y-78333333D01*
X122404761Y-78333333D01*
X122309523Y-78380952D01*
X122261904Y-78428571D01*
X122214285Y-78523809D01*
%TD*%
M02*
