%TF.GenerationSoftware,KiCad,Pcbnew,5.1.6-c6e7f7d~87~ubuntu20.04.1*%
%TF.CreationDate,2020-10-01T18:15:28+02:00*%
%TF.ProjectId,SWR bridge,53575220-6272-4696-9467-652e6b696361,rev?*%
%TF.SameCoordinates,Original*%
%TF.FileFunction,Soldermask,Bot*%
%TF.FilePolarity,Negative*%
%FSLAX46Y46*%
G04 Gerber Fmt 4.6, Leading zero omitted, Abs format (unit mm)*
G04 Created by KiCad (PCBNEW 5.1.6-c6e7f7d~87~ubuntu20.04.1) date 2020-10-01 18:15:28*
%MOMM*%
%LPD*%
G01*
G04 APERTURE LIST*
%ADD10C,2.100000*%
%ADD11C,4.100000*%
%ADD12R,1.700000X1.700000*%
%ADD13O,1.700000X1.700000*%
%ADD14R,7.100000X4.100000*%
%ADD15R,7.100000X5.100000*%
%ADD16C,3.600000*%
%ADD17O,3.600000X6.100000*%
%ADD18C,3.900000*%
%ADD19R,0.950000X0.950000*%
%ADD20R,2.100000X2.100000*%
%ADD21O,2.100000X2.100000*%
%ADD22O,1.500000X1.500000*%
%ADD23C,1.500000*%
G04 APERTURE END LIST*
D10*
%TO.C,C3*%
X120000000Y-40500000D03*
X125000000Y-40500000D03*
%TD*%
%TO.C,C4*%
X119500000Y-73500000D03*
X124500000Y-73500000D03*
%TD*%
%TO.C,R1*%
X86500000Y-71000000D03*
X96500000Y-76000000D03*
X96500000Y-66000000D03*
D11*
X91500000Y-71000000D03*
%TD*%
D10*
%TO.C,C2*%
X81000000Y-72000000D03*
X81000000Y-77000000D03*
X73500000Y-74500000D03*
D11*
X78500000Y-74500000D03*
%TD*%
D10*
%TO.C,C5*%
X81000000Y-67000000D03*
X76000000Y-67000000D03*
%TD*%
D12*
%TO.C,D1*%
X107620000Y-37000000D03*
D13*
X100000000Y-37000000D03*
%TD*%
%TO.C,D2*%
X100000000Y-77000000D03*
D12*
X107620000Y-77000000D03*
%TD*%
D14*
%TO.C,J3*%
X155500000Y-57000000D03*
D15*
X155500000Y-44500000D03*
X155500000Y-69500000D03*
%TD*%
D16*
%TO.C,L2*%
X111000000Y-45500000D03*
X111000000Y-68500000D03*
D17*
X111000000Y-57000000D03*
%TD*%
D18*
%TO.C,J4*%
X75500000Y-57000000D03*
%TD*%
%TO.C,J5*%
X141000000Y-57000000D03*
%TD*%
D10*
%TO.C,C1*%
X68000000Y-62487500D03*
X68000000Y-69987500D03*
%TD*%
D19*
%TO.C,J2*%
X111000000Y-36500000D03*
%TD*%
%TO.C,J6*%
X111000000Y-77000000D03*
%TD*%
D14*
%TO.C,J1*%
X56500000Y-57000000D03*
D15*
X56500000Y-44500000D03*
X56500000Y-69500000D03*
%TD*%
D20*
%TO.C,R2*%
X87500000Y-37500000D03*
D21*
X92580000Y-37500000D03*
%TD*%
D18*
%TO.C,J7*%
X56000000Y-37000000D03*
%TD*%
%TO.C,J8*%
X56000000Y-77000000D03*
%TD*%
%TO.C,J9*%
X157000000Y-37000000D03*
%TD*%
%TO.C,J10*%
X157000000Y-77000000D03*
%TD*%
D22*
%TO.C,R3*%
X116500000Y-37420000D03*
D23*
X116500000Y-42500000D03*
%TD*%
D22*
%TO.C,R4*%
X125080000Y-36000000D03*
D23*
X120000000Y-36000000D03*
%TD*%
%TO.C,R5*%
X116500000Y-71500000D03*
D22*
X116500000Y-76580000D03*
%TD*%
D23*
%TO.C,R6*%
X119420000Y-78000000D03*
D22*
X124500000Y-78000000D03*
%TD*%
%TO.C,L3*%
X114000000Y-36000000D03*
D23*
X114000000Y-43620000D03*
%TD*%
%TO.C,L4*%
X114000000Y-77620000D03*
D22*
X114000000Y-70000000D03*
%TD*%
D18*
%TO.C,J12*%
X119500000Y-67000000D03*
%TD*%
%TO.C,J13*%
X136000000Y-37500000D03*
%TD*%
%TO.C,J14*%
X130500000Y-47000000D03*
%TD*%
%TO.C,J15*%
X148000000Y-37500000D03*
%TD*%
%TO.C,J16*%
X130500000Y-67000000D03*
%TD*%
%TO.C,J17*%
X136000000Y-76500000D03*
%TD*%
%TO.C,J18*%
X120000000Y-47000000D03*
%TD*%
%TO.C,J19*%
X148000000Y-76500000D03*
%TD*%
M02*
