%TF.GenerationSoftware,KiCad,Pcbnew,5.1.6-c6e7f7d~87~ubuntu20.04.1*%
%TF.CreationDate,2020-09-30T11:29:00+02:00*%
%TF.ProjectId,SWR bridge,53575220-6272-4696-9467-652e6b696361,rev?*%
%TF.SameCoordinates,Original*%
%TF.FileFunction,Copper,L2,Bot*%
%TF.FilePolarity,Positive*%
%FSLAX46Y46*%
G04 Gerber Fmt 4.6, Leading zero omitted, Abs format (unit mm)*
G04 Created by KiCad (PCBNEW 5.1.6-c6e7f7d~87~ubuntu20.04.1) date 2020-09-30 11:29:00*
%MOMM*%
%LPD*%
G01*
G04 APERTURE LIST*
%TA.AperFunction,ComponentPad*%
%ADD10C,2.000000*%
%TD*%
%TA.AperFunction,ComponentPad*%
%ADD11C,4.000000*%
%TD*%
%TA.AperFunction,ComponentPad*%
%ADD12R,1.600000X1.600000*%
%TD*%
%TA.AperFunction,ComponentPad*%
%ADD13O,1.600000X1.600000*%
%TD*%
%TA.AperFunction,ComponentPad*%
%ADD14R,7.000000X4.000000*%
%TD*%
%TA.AperFunction,ComponentPad*%
%ADD15R,7.000000X5.000000*%
%TD*%
%TA.AperFunction,ComponentPad*%
%ADD16C,3.500000*%
%TD*%
%TA.AperFunction,ComponentPad*%
%ADD17O,3.500000X6.000000*%
%TD*%
%TA.AperFunction,ComponentPad*%
%ADD18C,3.800000*%
%TD*%
%TA.AperFunction,ComponentPad*%
%ADD19R,0.850000X0.850000*%
%TD*%
%TA.AperFunction,ComponentPad*%
%ADD20R,2.000000X2.000000*%
%TD*%
%TA.AperFunction,ComponentPad*%
%ADD21O,2.000000X2.000000*%
%TD*%
%TA.AperFunction,ComponentPad*%
%ADD22O,1.400000X1.400000*%
%TD*%
%TA.AperFunction,ComponentPad*%
%ADD23C,1.400000*%
%TD*%
%TA.AperFunction,Conductor*%
%ADD24C,2.000000*%
%TD*%
%TA.AperFunction,Conductor*%
%ADD25C,0.254000*%
%TD*%
G04 APERTURE END LIST*
D10*
%TO.P,C3,1*%
%TO.N,/REF*%
X120000000Y-40500000D03*
%TO.P,C3,2*%
%TO.N,Earth*%
X125000000Y-40500000D03*
%TD*%
%TO.P,C4,1*%
%TO.N,/FORWARD*%
X119500000Y-74000000D03*
%TO.P,C4,2*%
%TO.N,Earth*%
X124500000Y-74000000D03*
%TD*%
%TO.P,R1,1*%
%TO.N,/T-center*%
X86500000Y-71000000D03*
%TO.P,R1,2*%
%TO.N,Earth*%
X96500000Y-76000000D03*
%TO.P,R1,3*%
%TO.N,N/C*%
X96500000Y-66000000D03*
D11*
%TO.P,R1,4*%
X91500000Y-71000000D03*
%TD*%
D10*
%TO.P,C2,2*%
%TO.N,Earth*%
X81000000Y-72000000D03*
%TO.P,C2,3*%
%TO.N,N/C*%
X81000000Y-77000000D03*
%TO.P,C2,1*%
%TO.N,/T-center*%
X73500000Y-74500000D03*
D11*
%TO.P,C2,4*%
%TO.N,N/C*%
X78500000Y-74500000D03*
%TD*%
D10*
%TO.P,C5,2*%
%TO.N,Earth*%
X81000000Y-67000000D03*
%TO.P,C5,1*%
%TO.N,/T-center*%
X76000000Y-67000000D03*
%TD*%
D12*
%TO.P,D1,1*%
%TO.N,/REF*%
X107620000Y-37000000D03*
D13*
%TO.P,D1,2*%
%TO.N,/T1*%
X100000000Y-37000000D03*
%TD*%
%TO.P,D2,2*%
%TO.N,/T2*%
X100000000Y-77000000D03*
D12*
%TO.P,D2,1*%
%TO.N,/FORWARD*%
X107620000Y-77000000D03*
%TD*%
D14*
%TO.P,J3,1*%
%TO.N,/RF-IN*%
X155500000Y-57000000D03*
D15*
%TO.P,J3,2*%
%TO.N,Earth*%
X155500000Y-44500000D03*
%TO.P,J3,3*%
X155500000Y-69500000D03*
%TD*%
D16*
%TO.P,L2,3*%
%TO.N,/T2*%
X111000000Y-45500000D03*
%TO.P,L2,2*%
%TO.N,/T1*%
X111000000Y-68500000D03*
D17*
%TO.P,L2,1*%
%TO.N,/T-center*%
X111000000Y-57000000D03*
%TD*%
D18*
%TO.P,J4,1*%
%TO.N,/RF-OUT*%
X75500000Y-57000000D03*
%TD*%
%TO.P,J5,1*%
%TO.N,/RF-IN*%
X141000000Y-57000000D03*
%TD*%
D10*
%TO.P,C1,1*%
%TO.N,/RF-OUT*%
X68000000Y-62487500D03*
%TO.P,C1,2*%
%TO.N,/T-center*%
X68000000Y-69987500D03*
%TD*%
D19*
%TO.P,J2,1*%
%TO.N,/vREF*%
X111500000Y-37000000D03*
%TD*%
%TO.P,J6,1*%
%TO.N,/VFOR*%
X112000000Y-77000000D03*
%TD*%
D14*
%TO.P,J1,1*%
%TO.N,/RF-OUT*%
X56500000Y-57000000D03*
D15*
%TO.P,J1,2*%
%TO.N,Earth*%
X56500000Y-44500000D03*
%TO.P,J1,3*%
X56500000Y-69500000D03*
%TD*%
D20*
%TO.P,R2,1*%
%TO.N,/T2*%
X87500000Y-37500000D03*
D21*
%TO.P,R2,2*%
%TO.N,/T1*%
X92580000Y-37500000D03*
%TD*%
D18*
%TO.P,J7,1*%
%TO.N,Earth*%
X56000000Y-37000000D03*
%TD*%
%TO.P,J8,1*%
%TO.N,Earth*%
X56000000Y-77000000D03*
%TD*%
%TO.P,J9,1*%
%TO.N,Earth*%
X157000000Y-37000000D03*
%TD*%
%TO.P,J10,1*%
%TO.N,Earth*%
X157000000Y-77000000D03*
%TD*%
D22*
%TO.P,R3,2*%
%TO.N,/vREF*%
X116000000Y-35920000D03*
D23*
%TO.P,R3,1*%
%TO.N,/REF*%
X116000000Y-41000000D03*
%TD*%
D22*
%TO.P,R4,2*%
%TO.N,Earth*%
X125080000Y-36000000D03*
D23*
%TO.P,R4,1*%
%TO.N,/vREF*%
X120000000Y-36000000D03*
%TD*%
%TO.P,R5,1*%
%TO.N,/FORWARD*%
X116000000Y-71920000D03*
D22*
%TO.P,R5,2*%
%TO.N,/VFOR*%
X116000000Y-77000000D03*
%TD*%
D23*
%TO.P,R6,1*%
%TO.N,/VFOR*%
X119420000Y-78500000D03*
D22*
%TO.P,R6,2*%
%TO.N,Earth*%
X124500000Y-78500000D03*
%TD*%
D24*
%TO.N,/T-center*%
X111000000Y-57000000D02*
X108049700Y-57000000D01*
X98812600Y-66237100D02*
X108049700Y-57000000D01*
X89700001Y-67799999D02*
X86500000Y-71000000D01*
X93036001Y-67799999D02*
X89700001Y-67799999D01*
X93736002Y-68500000D02*
X93036001Y-67799999D01*
X97256002Y-68500000D02*
X93736002Y-68500000D01*
X98812600Y-66943402D02*
X97256002Y-68500000D01*
X98812600Y-66237100D02*
X98812600Y-66943402D01*
%TD*%
D25*
%TO.N,Earth*%
G36*
X115367641Y-34736939D02*
G01*
X115148987Y-34883038D01*
X114963038Y-35068987D01*
X114816939Y-35287641D01*
X114716304Y-35530595D01*
X114665000Y-35788514D01*
X114665000Y-36051486D01*
X114716304Y-36309405D01*
X114816939Y-36552359D01*
X114963038Y-36771013D01*
X115148987Y-36956962D01*
X115367641Y-37103061D01*
X115610595Y-37203696D01*
X115868514Y-37255000D01*
X116131486Y-37255000D01*
X116389405Y-37203696D01*
X116632359Y-37103061D01*
X116851013Y-36956962D01*
X117036962Y-36771013D01*
X117183061Y-36552359D01*
X117283696Y-36309405D01*
X117335000Y-36051486D01*
X117335000Y-35868514D01*
X118665000Y-35868514D01*
X118665000Y-36131486D01*
X118716304Y-36389405D01*
X118816939Y-36632359D01*
X118963038Y-36851013D01*
X119148987Y-37036962D01*
X119367641Y-37183061D01*
X119610595Y-37283696D01*
X119868514Y-37335000D01*
X120131486Y-37335000D01*
X120389405Y-37283696D01*
X120632359Y-37183061D01*
X120851013Y-37036962D01*
X121036962Y-36851013D01*
X121183061Y-36632359D01*
X121283696Y-36389405D01*
X121335000Y-36131486D01*
X121335000Y-35868514D01*
X121283696Y-35610595D01*
X121183061Y-35367641D01*
X121036962Y-35148987D01*
X120851013Y-34963038D01*
X120632359Y-34816939D01*
X120389405Y-34716304D01*
X120131486Y-34665000D01*
X119868514Y-34665000D01*
X119610595Y-34716304D01*
X119367641Y-34816939D01*
X119148987Y-34963038D01*
X118963038Y-35148987D01*
X118816939Y-35367641D01*
X118716304Y-35610595D01*
X118665000Y-35868514D01*
X117335000Y-35868514D01*
X117335000Y-35788514D01*
X117283696Y-35530595D01*
X117183061Y-35287641D01*
X117036962Y-35068987D01*
X116851013Y-34883038D01*
X116632359Y-34736939D01*
X116446612Y-34660000D01*
X159340000Y-34660000D01*
X159340000Y-35032418D01*
X159340001Y-35032428D01*
X159340001Y-50384099D01*
X159000000Y-50350612D01*
X152000000Y-50350612D01*
X151092949Y-50439949D01*
X150220756Y-50704526D01*
X149416938Y-51134175D01*
X148712386Y-51712386D01*
X148134175Y-52416938D01*
X147704526Y-53220756D01*
X147439949Y-54092949D01*
X147350612Y-55000000D01*
X147350612Y-55470384D01*
X147276171Y-55096144D01*
X146784152Y-53908306D01*
X146069852Y-52839280D01*
X145160720Y-51930148D01*
X144091694Y-51215848D01*
X142903856Y-50723829D01*
X141642853Y-50473000D01*
X140357147Y-50473000D01*
X139096144Y-50723829D01*
X137908306Y-51215848D01*
X136839280Y-51930148D01*
X135930148Y-52839280D01*
X135215848Y-53908306D01*
X134723829Y-55096144D01*
X134473000Y-56357147D01*
X134473000Y-57642853D01*
X134723829Y-58903856D01*
X135215848Y-60091694D01*
X135930148Y-61160720D01*
X136839280Y-62069852D01*
X137908306Y-62784152D01*
X139096144Y-63276171D01*
X140357147Y-63527000D01*
X141642853Y-63527000D01*
X142903856Y-63276171D01*
X144091694Y-62784152D01*
X145160720Y-62069852D01*
X146069852Y-61160720D01*
X146784152Y-60091694D01*
X147276171Y-58903856D01*
X147350612Y-58529616D01*
X147350612Y-59000000D01*
X147439949Y-59907051D01*
X147704526Y-60779244D01*
X148134175Y-61583062D01*
X148712386Y-62287614D01*
X149416938Y-62865825D01*
X150220756Y-63295474D01*
X151092949Y-63560051D01*
X152000000Y-63649388D01*
X159000000Y-63649388D01*
X159340000Y-63615901D01*
X159340000Y-79340000D01*
X120464321Y-79340000D01*
X120603061Y-79132359D01*
X120703696Y-78889405D01*
X120755000Y-78631486D01*
X120755000Y-78368514D01*
X120703696Y-78110595D01*
X120603061Y-77867641D01*
X120456962Y-77648987D01*
X120271013Y-77463038D01*
X120052359Y-77316939D01*
X119809405Y-77216304D01*
X119551486Y-77165000D01*
X119288514Y-77165000D01*
X119030595Y-77216304D01*
X118787641Y-77316939D01*
X118568987Y-77463038D01*
X118383038Y-77648987D01*
X118236939Y-77867641D01*
X118136304Y-78110595D01*
X118085000Y-78368514D01*
X118085000Y-78631486D01*
X118136304Y-78889405D01*
X118236939Y-79132359D01*
X118375679Y-79340000D01*
X53160000Y-79340000D01*
X53160000Y-74338967D01*
X71865000Y-74338967D01*
X71865000Y-74661033D01*
X71927832Y-74976912D01*
X72051082Y-75274463D01*
X72230013Y-75542252D01*
X72457748Y-75769987D01*
X72725537Y-75948918D01*
X73023088Y-76072168D01*
X73338967Y-76135000D01*
X73661033Y-76135000D01*
X73976912Y-76072168D01*
X74274463Y-75948918D01*
X74542252Y-75769987D01*
X74769987Y-75542252D01*
X74948918Y-75274463D01*
X75072168Y-74976912D01*
X75135000Y-74661033D01*
X75135000Y-74338967D01*
X75115409Y-74240475D01*
X75865000Y-74240475D01*
X75865000Y-74759525D01*
X75966261Y-75268601D01*
X76164893Y-75748141D01*
X76453262Y-76179715D01*
X76820285Y-76546738D01*
X77251859Y-76835107D01*
X77731399Y-77033739D01*
X78240475Y-77135000D01*
X78759525Y-77135000D01*
X79268601Y-77033739D01*
X79365000Y-76993809D01*
X79365000Y-77161033D01*
X79427832Y-77476912D01*
X79551082Y-77774463D01*
X79730013Y-78042252D01*
X79957748Y-78269987D01*
X80225537Y-78448918D01*
X80523088Y-78572168D01*
X80838967Y-78635000D01*
X81161033Y-78635000D01*
X81476912Y-78572168D01*
X81774463Y-78448918D01*
X82042252Y-78269987D01*
X82269987Y-78042252D01*
X82448918Y-77774463D01*
X82572168Y-77476912D01*
X82635000Y-77161033D01*
X82635000Y-76858665D01*
X98565000Y-76858665D01*
X98565000Y-77141335D01*
X98620147Y-77418574D01*
X98728320Y-77679727D01*
X98885363Y-77914759D01*
X99085241Y-78114637D01*
X99320273Y-78271680D01*
X99581426Y-78379853D01*
X99858665Y-78435000D01*
X100141335Y-78435000D01*
X100418574Y-78379853D01*
X100679727Y-78271680D01*
X100914759Y-78114637D01*
X101114637Y-77914759D01*
X101271680Y-77679727D01*
X101379853Y-77418574D01*
X101435000Y-77141335D01*
X101435000Y-76858665D01*
X101379853Y-76581426D01*
X101271680Y-76320273D01*
X101191317Y-76200000D01*
X106181928Y-76200000D01*
X106181928Y-77800000D01*
X106194188Y-77924482D01*
X106230498Y-78044180D01*
X106289463Y-78154494D01*
X106368815Y-78251185D01*
X106465506Y-78330537D01*
X106575820Y-78389502D01*
X106695518Y-78425812D01*
X106820000Y-78438072D01*
X108420000Y-78438072D01*
X108544482Y-78425812D01*
X108664180Y-78389502D01*
X108774494Y-78330537D01*
X108871185Y-78251185D01*
X108950537Y-78154494D01*
X109009502Y-78044180D01*
X109045812Y-77924482D01*
X109058072Y-77800000D01*
X109058072Y-76575000D01*
X110936928Y-76575000D01*
X110936928Y-77425000D01*
X110949188Y-77549482D01*
X110985498Y-77669180D01*
X111044463Y-77779494D01*
X111123815Y-77876185D01*
X111220506Y-77955537D01*
X111330820Y-78014502D01*
X111450518Y-78050812D01*
X111575000Y-78063072D01*
X112425000Y-78063072D01*
X112549482Y-78050812D01*
X112669180Y-78014502D01*
X112779494Y-77955537D01*
X112876185Y-77876185D01*
X112955537Y-77779494D01*
X113014502Y-77669180D01*
X113050812Y-77549482D01*
X113063072Y-77425000D01*
X113063072Y-76868514D01*
X114665000Y-76868514D01*
X114665000Y-77131486D01*
X114716304Y-77389405D01*
X114816939Y-77632359D01*
X114963038Y-77851013D01*
X115148987Y-78036962D01*
X115367641Y-78183061D01*
X115610595Y-78283696D01*
X115868514Y-78335000D01*
X116131486Y-78335000D01*
X116389405Y-78283696D01*
X116632359Y-78183061D01*
X116851013Y-78036962D01*
X117036962Y-77851013D01*
X117183061Y-77632359D01*
X117283696Y-77389405D01*
X117335000Y-77131486D01*
X117335000Y-76868514D01*
X117283696Y-76610595D01*
X117183061Y-76367641D01*
X117036962Y-76148987D01*
X116851013Y-75963038D01*
X116632359Y-75816939D01*
X116389405Y-75716304D01*
X116131486Y-75665000D01*
X115868514Y-75665000D01*
X115610595Y-75716304D01*
X115367641Y-75816939D01*
X115148987Y-75963038D01*
X114963038Y-76148987D01*
X114816939Y-76367641D01*
X114716304Y-76610595D01*
X114665000Y-76868514D01*
X113063072Y-76868514D01*
X113063072Y-76575000D01*
X113050812Y-76450518D01*
X113014502Y-76330820D01*
X112955537Y-76220506D01*
X112876185Y-76123815D01*
X112779494Y-76044463D01*
X112669180Y-75985498D01*
X112549482Y-75949188D01*
X112425000Y-75936928D01*
X111575000Y-75936928D01*
X111450518Y-75949188D01*
X111330820Y-75985498D01*
X111220506Y-76044463D01*
X111123815Y-76123815D01*
X111044463Y-76220506D01*
X110985498Y-76330820D01*
X110949188Y-76450518D01*
X110936928Y-76575000D01*
X109058072Y-76575000D01*
X109058072Y-76200000D01*
X109045812Y-76075518D01*
X109009502Y-75955820D01*
X108950537Y-75845506D01*
X108871185Y-75748815D01*
X108774494Y-75669463D01*
X108664180Y-75610498D01*
X108544482Y-75574188D01*
X108420000Y-75561928D01*
X106820000Y-75561928D01*
X106695518Y-75574188D01*
X106575820Y-75610498D01*
X106465506Y-75669463D01*
X106368815Y-75748815D01*
X106289463Y-75845506D01*
X106230498Y-75955820D01*
X106194188Y-76075518D01*
X106181928Y-76200000D01*
X101191317Y-76200000D01*
X101114637Y-76085241D01*
X100914759Y-75885363D01*
X100679727Y-75728320D01*
X100418574Y-75620147D01*
X100141335Y-75565000D01*
X99858665Y-75565000D01*
X99581426Y-75620147D01*
X99320273Y-75728320D01*
X99085241Y-75885363D01*
X98885363Y-76085241D01*
X98728320Y-76320273D01*
X98620147Y-76581426D01*
X98565000Y-76858665D01*
X82635000Y-76858665D01*
X82635000Y-76838967D01*
X82572168Y-76523088D01*
X82448918Y-76225537D01*
X82269987Y-75957748D01*
X82042252Y-75730013D01*
X81774463Y-75551082D01*
X81476912Y-75427832D01*
X81161033Y-75365000D01*
X80993809Y-75365000D01*
X81033739Y-75268601D01*
X81135000Y-74759525D01*
X81135000Y-74240475D01*
X81055136Y-73838967D01*
X117865000Y-73838967D01*
X117865000Y-74161033D01*
X117927832Y-74476912D01*
X118051082Y-74774463D01*
X118230013Y-75042252D01*
X118457748Y-75269987D01*
X118725537Y-75448918D01*
X119023088Y-75572168D01*
X119338967Y-75635000D01*
X119661033Y-75635000D01*
X119976912Y-75572168D01*
X120274463Y-75448918D01*
X120542252Y-75269987D01*
X120769987Y-75042252D01*
X120948918Y-74774463D01*
X121072168Y-74476912D01*
X121135000Y-74161033D01*
X121135000Y-73838967D01*
X121072168Y-73523088D01*
X120948918Y-73225537D01*
X120769987Y-72957748D01*
X120542252Y-72730013D01*
X120274463Y-72551082D01*
X119976912Y-72427832D01*
X119661033Y-72365000D01*
X119338967Y-72365000D01*
X119023088Y-72427832D01*
X118725537Y-72551082D01*
X118457748Y-72730013D01*
X118230013Y-72957748D01*
X118051082Y-73225537D01*
X117927832Y-73523088D01*
X117865000Y-73838967D01*
X81055136Y-73838967D01*
X81033739Y-73731399D01*
X80835107Y-73251859D01*
X80546738Y-72820285D01*
X80179715Y-72453262D01*
X79748141Y-72164893D01*
X79268601Y-71966261D01*
X78759525Y-71865000D01*
X78240475Y-71865000D01*
X77731399Y-71966261D01*
X77251859Y-72164893D01*
X76820285Y-72453262D01*
X76453262Y-72820285D01*
X76164893Y-73251859D01*
X75966261Y-73731399D01*
X75865000Y-74240475D01*
X75115409Y-74240475D01*
X75072168Y-74023088D01*
X74948918Y-73725537D01*
X74769987Y-73457748D01*
X74542252Y-73230013D01*
X74274463Y-73051082D01*
X73976912Y-72927832D01*
X73661033Y-72865000D01*
X73338967Y-72865000D01*
X73023088Y-72927832D01*
X72725537Y-73051082D01*
X72457748Y-73230013D01*
X72230013Y-73457748D01*
X72051082Y-73725537D01*
X71927832Y-74023088D01*
X71865000Y-74338967D01*
X53160000Y-74338967D01*
X53160000Y-69826467D01*
X66365000Y-69826467D01*
X66365000Y-70148533D01*
X66427832Y-70464412D01*
X66551082Y-70761963D01*
X66730013Y-71029752D01*
X66957748Y-71257487D01*
X67225537Y-71436418D01*
X67523088Y-71559668D01*
X67838967Y-71622500D01*
X68161033Y-71622500D01*
X68476912Y-71559668D01*
X68774463Y-71436418D01*
X69042252Y-71257487D01*
X69269987Y-71029752D01*
X69289866Y-71000000D01*
X84857089Y-71000000D01*
X84865000Y-71080319D01*
X84865000Y-71161033D01*
X84880747Y-71240201D01*
X84888658Y-71320516D01*
X84912084Y-71397743D01*
X84927832Y-71476912D01*
X84958721Y-71551483D01*
X84982148Y-71628714D01*
X85020194Y-71699892D01*
X85051082Y-71774463D01*
X85095926Y-71841576D01*
X85133970Y-71912752D01*
X85185169Y-71975138D01*
X85230013Y-72042252D01*
X85287089Y-72099328D01*
X85338287Y-72161713D01*
X85400672Y-72212911D01*
X85457748Y-72269987D01*
X85524862Y-72314831D01*
X85587248Y-72366030D01*
X85658424Y-72404074D01*
X85725537Y-72448918D01*
X85800108Y-72479806D01*
X85871286Y-72517852D01*
X85948517Y-72541279D01*
X86023088Y-72572168D01*
X86102257Y-72587916D01*
X86179484Y-72611342D01*
X86259799Y-72619253D01*
X86338967Y-72635000D01*
X86419681Y-72635000D01*
X86500000Y-72642911D01*
X86580319Y-72635000D01*
X86661033Y-72635000D01*
X86740201Y-72619253D01*
X86820516Y-72611342D01*
X86897743Y-72587916D01*
X86976912Y-72572168D01*
X87051483Y-72541279D01*
X87128714Y-72517852D01*
X87199892Y-72479806D01*
X87274463Y-72448918D01*
X87341576Y-72404074D01*
X87412752Y-72366030D01*
X87475137Y-72314832D01*
X87542252Y-72269987D01*
X87769987Y-72042252D01*
X87769989Y-72042249D01*
X88865000Y-70947238D01*
X88865000Y-71259525D01*
X88966261Y-71768601D01*
X89164893Y-72248141D01*
X89453262Y-72679715D01*
X89820285Y-73046738D01*
X90251859Y-73335107D01*
X90731399Y-73533739D01*
X91240475Y-73635000D01*
X91759525Y-73635000D01*
X92268601Y-73533739D01*
X92748141Y-73335107D01*
X93179715Y-73046738D01*
X93546738Y-72679715D01*
X93835107Y-72248141D01*
X94025490Y-71788514D01*
X114665000Y-71788514D01*
X114665000Y-72051486D01*
X114716304Y-72309405D01*
X114816939Y-72552359D01*
X114963038Y-72771013D01*
X115148987Y-72956962D01*
X115367641Y-73103061D01*
X115610595Y-73203696D01*
X115868514Y-73255000D01*
X116131486Y-73255000D01*
X116389405Y-73203696D01*
X116632359Y-73103061D01*
X116851013Y-72956962D01*
X117036962Y-72771013D01*
X117183061Y-72552359D01*
X117283696Y-72309405D01*
X117335000Y-72051486D01*
X117335000Y-71788514D01*
X117283696Y-71530595D01*
X117183061Y-71287641D01*
X117036962Y-71068987D01*
X116851013Y-70883038D01*
X116632359Y-70736939D01*
X116389405Y-70636304D01*
X116131486Y-70585000D01*
X115868514Y-70585000D01*
X115610595Y-70636304D01*
X115367641Y-70736939D01*
X115148987Y-70883038D01*
X114963038Y-71068987D01*
X114816939Y-71287641D01*
X114716304Y-71530595D01*
X114665000Y-71788514D01*
X94025490Y-71788514D01*
X94033739Y-71768601D01*
X94135000Y-71259525D01*
X94135000Y-70740475D01*
X94033739Y-70231399D01*
X93993809Y-70135000D01*
X97175683Y-70135000D01*
X97256002Y-70142911D01*
X97336321Y-70135000D01*
X97336324Y-70135000D01*
X97576518Y-70111343D01*
X97884717Y-70017852D01*
X98168754Y-69866031D01*
X98417716Y-69661714D01*
X98468927Y-69599314D01*
X99803143Y-68265098D01*
X108615000Y-68265098D01*
X108615000Y-68734902D01*
X108706654Y-69195679D01*
X108886440Y-69629721D01*
X109147450Y-70020349D01*
X109479651Y-70352550D01*
X109870279Y-70613560D01*
X110304321Y-70793346D01*
X110765098Y-70885000D01*
X111234902Y-70885000D01*
X111695679Y-70793346D01*
X112129721Y-70613560D01*
X112520349Y-70352550D01*
X112852550Y-70020349D01*
X113113560Y-69629721D01*
X113293346Y-69195679D01*
X113385000Y-68734902D01*
X113385000Y-68265098D01*
X113293346Y-67804321D01*
X113113560Y-67370279D01*
X112852550Y-66979651D01*
X112520349Y-66647450D01*
X112129721Y-66386440D01*
X111695679Y-66206654D01*
X111234902Y-66115000D01*
X110765098Y-66115000D01*
X110304321Y-66206654D01*
X109870279Y-66386440D01*
X109479651Y-66647450D01*
X109147450Y-66979651D01*
X108886440Y-67370279D01*
X108706654Y-67804321D01*
X108615000Y-68265098D01*
X99803143Y-68265098D01*
X99911918Y-68156323D01*
X99974314Y-68105116D01*
X100178631Y-67856154D01*
X100330452Y-67572117D01*
X100423943Y-67263917D01*
X100447600Y-67023723D01*
X100447600Y-67023722D01*
X100455511Y-66943403D01*
X100452196Y-66909742D01*
X108649052Y-58712887D01*
X108649510Y-58717542D01*
X108785887Y-59167116D01*
X109007352Y-59581446D01*
X109305392Y-59944609D01*
X109668555Y-60242649D01*
X110082885Y-60464113D01*
X110532459Y-60600490D01*
X111000000Y-60646539D01*
X111467542Y-60600490D01*
X111917116Y-60464113D01*
X112331446Y-60242649D01*
X112694609Y-59944609D01*
X112992649Y-59581446D01*
X113214113Y-59167116D01*
X113350490Y-58717542D01*
X113385000Y-58367157D01*
X113385000Y-55632843D01*
X113350490Y-55282458D01*
X113214113Y-54832884D01*
X112992649Y-54418554D01*
X112694609Y-54055391D01*
X112331445Y-53757351D01*
X111917115Y-53535887D01*
X111467541Y-53399510D01*
X111000000Y-53353461D01*
X110532458Y-53399510D01*
X110082884Y-53535887D01*
X109668554Y-53757351D01*
X109305391Y-54055391D01*
X109007351Y-54418555D01*
X108785887Y-54832885D01*
X108649510Y-55282459D01*
X108641380Y-55365000D01*
X108130019Y-55365000D01*
X108049699Y-55357089D01*
X107969380Y-55365000D01*
X107969378Y-55365000D01*
X107729184Y-55388657D01*
X107420985Y-55482148D01*
X107136948Y-55633969D01*
X106887986Y-55838286D01*
X106836780Y-55900681D01*
X97773883Y-64963579D01*
X97769987Y-64957748D01*
X97542252Y-64730013D01*
X97274463Y-64551082D01*
X96976912Y-64427832D01*
X96661033Y-64365000D01*
X96338967Y-64365000D01*
X96023088Y-64427832D01*
X95725537Y-64551082D01*
X95457748Y-64730013D01*
X95230013Y-64957748D01*
X95051082Y-65225537D01*
X94927832Y-65523088D01*
X94865000Y-65838967D01*
X94865000Y-66161033D01*
X94927832Y-66476912D01*
X95051082Y-66774463D01*
X95111577Y-66865000D01*
X94413240Y-66865000D01*
X94248926Y-66700686D01*
X94197715Y-66638285D01*
X93948753Y-66433968D01*
X93664716Y-66282147D01*
X93356517Y-66188656D01*
X93116323Y-66164999D01*
X93116320Y-66164999D01*
X93036001Y-66157088D01*
X92955682Y-66164999D01*
X89780323Y-66164999D01*
X89700001Y-66157088D01*
X89379484Y-66188656D01*
X89320153Y-66206654D01*
X89071286Y-66282147D01*
X88787249Y-66433968D01*
X88538287Y-66638285D01*
X88487081Y-66700680D01*
X85457751Y-69730011D01*
X85457748Y-69730013D01*
X85230013Y-69957748D01*
X85185168Y-70024863D01*
X85133970Y-70087248D01*
X85095926Y-70158424D01*
X85051082Y-70225537D01*
X85020194Y-70300108D01*
X84982148Y-70371286D01*
X84958721Y-70448517D01*
X84927832Y-70523088D01*
X84912084Y-70602257D01*
X84888658Y-70679484D01*
X84880747Y-70759799D01*
X84865000Y-70838967D01*
X84865000Y-70919681D01*
X84857089Y-71000000D01*
X69289866Y-71000000D01*
X69448918Y-70761963D01*
X69572168Y-70464412D01*
X69635000Y-70148533D01*
X69635000Y-69826467D01*
X69572168Y-69510588D01*
X69448918Y-69213037D01*
X69269987Y-68945248D01*
X69042252Y-68717513D01*
X68774463Y-68538582D01*
X68476912Y-68415332D01*
X68161033Y-68352500D01*
X67838967Y-68352500D01*
X67523088Y-68415332D01*
X67225537Y-68538582D01*
X66957748Y-68717513D01*
X66730013Y-68945248D01*
X66551082Y-69213037D01*
X66427832Y-69510588D01*
X66365000Y-69826467D01*
X53160000Y-69826467D01*
X53160000Y-63649388D01*
X60000000Y-63649388D01*
X60907051Y-63560051D01*
X61779244Y-63295474D01*
X62373000Y-62978105D01*
X62373000Y-63041711D01*
X62589242Y-64128835D01*
X63013417Y-65152884D01*
X63629223Y-66074504D01*
X64412996Y-66858277D01*
X65334616Y-67474083D01*
X66358665Y-67898258D01*
X67445789Y-68114500D01*
X68554211Y-68114500D01*
X69641335Y-67898258D01*
X70665384Y-67474083D01*
X71587004Y-66858277D01*
X71606314Y-66838967D01*
X74365000Y-66838967D01*
X74365000Y-67161033D01*
X74427832Y-67476912D01*
X74551082Y-67774463D01*
X74730013Y-68042252D01*
X74957748Y-68269987D01*
X75225537Y-68448918D01*
X75523088Y-68572168D01*
X75838967Y-68635000D01*
X76161033Y-68635000D01*
X76476912Y-68572168D01*
X76774463Y-68448918D01*
X77042252Y-68269987D01*
X77269987Y-68042252D01*
X77448918Y-67774463D01*
X77572168Y-67476912D01*
X77635000Y-67161033D01*
X77635000Y-66838967D01*
X77572168Y-66523088D01*
X77448918Y-66225537D01*
X77269987Y-65957748D01*
X77042252Y-65730013D01*
X76774463Y-65551082D01*
X76476912Y-65427832D01*
X76161033Y-65365000D01*
X75838967Y-65365000D01*
X75523088Y-65427832D01*
X75225537Y-65551082D01*
X74957748Y-65730013D01*
X74730013Y-65957748D01*
X74551082Y-66225537D01*
X74427832Y-66523088D01*
X74365000Y-66838967D01*
X71606314Y-66838967D01*
X72370777Y-66074504D01*
X72986583Y-65152884D01*
X73410758Y-64128835D01*
X73581564Y-63270132D01*
X73596144Y-63276171D01*
X74857147Y-63527000D01*
X76142853Y-63527000D01*
X77403856Y-63276171D01*
X78591694Y-62784152D01*
X79660720Y-62069852D01*
X80569852Y-61160720D01*
X81284152Y-60091694D01*
X81776171Y-58903856D01*
X82027000Y-57642853D01*
X82027000Y-56357147D01*
X81776171Y-55096144D01*
X81284152Y-53908306D01*
X80569852Y-52839280D01*
X79660720Y-51930148D01*
X78591694Y-51215848D01*
X77403856Y-50723829D01*
X76142853Y-50473000D01*
X74857147Y-50473000D01*
X73596144Y-50723829D01*
X72408306Y-51215848D01*
X71339280Y-51930148D01*
X70430148Y-52839280D01*
X69715848Y-53908306D01*
X69223829Y-55096144D01*
X68973000Y-56357147D01*
X68973000Y-56943802D01*
X68554211Y-56860500D01*
X67445789Y-56860500D01*
X66358665Y-57076742D01*
X65334616Y-57500917D01*
X64649388Y-57958771D01*
X64649388Y-55000000D01*
X64560051Y-54092949D01*
X64295474Y-53220756D01*
X63865825Y-52416938D01*
X63287614Y-51712386D01*
X62583062Y-51134175D01*
X61779244Y-50704526D01*
X60907051Y-50439949D01*
X60000000Y-50350612D01*
X53160000Y-50350612D01*
X53160000Y-45265098D01*
X108615000Y-45265098D01*
X108615000Y-45734902D01*
X108706654Y-46195679D01*
X108886440Y-46629721D01*
X109147450Y-47020349D01*
X109479651Y-47352550D01*
X109870279Y-47613560D01*
X110304321Y-47793346D01*
X110765098Y-47885000D01*
X111234902Y-47885000D01*
X111695679Y-47793346D01*
X112129721Y-47613560D01*
X112520349Y-47352550D01*
X112852550Y-47020349D01*
X113113560Y-46629721D01*
X113293346Y-46195679D01*
X113385000Y-45734902D01*
X113385000Y-45265098D01*
X113293346Y-44804321D01*
X113113560Y-44370279D01*
X112852550Y-43979651D01*
X112520349Y-43647450D01*
X112129721Y-43386440D01*
X111695679Y-43206654D01*
X111234902Y-43115000D01*
X110765098Y-43115000D01*
X110304321Y-43206654D01*
X109870279Y-43386440D01*
X109479651Y-43647450D01*
X109147450Y-43979651D01*
X108886440Y-44370279D01*
X108706654Y-44804321D01*
X108615000Y-45265098D01*
X53160000Y-45265098D01*
X53160000Y-40868514D01*
X114665000Y-40868514D01*
X114665000Y-41131486D01*
X114716304Y-41389405D01*
X114816939Y-41632359D01*
X114963038Y-41851013D01*
X115148987Y-42036962D01*
X115367641Y-42183061D01*
X115610595Y-42283696D01*
X115868514Y-42335000D01*
X116131486Y-42335000D01*
X116389405Y-42283696D01*
X116632359Y-42183061D01*
X116851013Y-42036962D01*
X117036962Y-41851013D01*
X117183061Y-41632359D01*
X117283696Y-41389405D01*
X117335000Y-41131486D01*
X117335000Y-40868514D01*
X117283696Y-40610595D01*
X117183061Y-40367641D01*
X117163902Y-40338967D01*
X118365000Y-40338967D01*
X118365000Y-40661033D01*
X118427832Y-40976912D01*
X118551082Y-41274463D01*
X118730013Y-41542252D01*
X118957748Y-41769987D01*
X119225537Y-41948918D01*
X119523088Y-42072168D01*
X119838967Y-42135000D01*
X120161033Y-42135000D01*
X120476912Y-42072168D01*
X120774463Y-41948918D01*
X121042252Y-41769987D01*
X121269987Y-41542252D01*
X121448918Y-41274463D01*
X121572168Y-40976912D01*
X121635000Y-40661033D01*
X121635000Y-40338967D01*
X121572168Y-40023088D01*
X121448918Y-39725537D01*
X121269987Y-39457748D01*
X121042252Y-39230013D01*
X120774463Y-39051082D01*
X120476912Y-38927832D01*
X120161033Y-38865000D01*
X119838967Y-38865000D01*
X119523088Y-38927832D01*
X119225537Y-39051082D01*
X118957748Y-39230013D01*
X118730013Y-39457748D01*
X118551082Y-39725537D01*
X118427832Y-40023088D01*
X118365000Y-40338967D01*
X117163902Y-40338967D01*
X117036962Y-40148987D01*
X116851013Y-39963038D01*
X116632359Y-39816939D01*
X116389405Y-39716304D01*
X116131486Y-39665000D01*
X115868514Y-39665000D01*
X115610595Y-39716304D01*
X115367641Y-39816939D01*
X115148987Y-39963038D01*
X114963038Y-40148987D01*
X114816939Y-40367641D01*
X114716304Y-40610595D01*
X114665000Y-40868514D01*
X53160000Y-40868514D01*
X53160000Y-36500000D01*
X85861928Y-36500000D01*
X85861928Y-38500000D01*
X85874188Y-38624482D01*
X85910498Y-38744180D01*
X85969463Y-38854494D01*
X86048815Y-38951185D01*
X86145506Y-39030537D01*
X86255820Y-39089502D01*
X86375518Y-39125812D01*
X86500000Y-39138072D01*
X88500000Y-39138072D01*
X88624482Y-39125812D01*
X88744180Y-39089502D01*
X88854494Y-39030537D01*
X88951185Y-38951185D01*
X89030537Y-38854494D01*
X89089502Y-38744180D01*
X89125812Y-38624482D01*
X89138072Y-38500000D01*
X89138072Y-37338967D01*
X90945000Y-37338967D01*
X90945000Y-37661033D01*
X91007832Y-37976912D01*
X91131082Y-38274463D01*
X91310013Y-38542252D01*
X91537748Y-38769987D01*
X91805537Y-38948918D01*
X92103088Y-39072168D01*
X92418967Y-39135000D01*
X92741033Y-39135000D01*
X93056912Y-39072168D01*
X93354463Y-38948918D01*
X93622252Y-38769987D01*
X93849987Y-38542252D01*
X94028918Y-38274463D01*
X94152168Y-37976912D01*
X94215000Y-37661033D01*
X94215000Y-37338967D01*
X94152168Y-37023088D01*
X94084062Y-36858665D01*
X98565000Y-36858665D01*
X98565000Y-37141335D01*
X98620147Y-37418574D01*
X98728320Y-37679727D01*
X98885363Y-37914759D01*
X99085241Y-38114637D01*
X99320273Y-38271680D01*
X99581426Y-38379853D01*
X99858665Y-38435000D01*
X100141335Y-38435000D01*
X100418574Y-38379853D01*
X100679727Y-38271680D01*
X100914759Y-38114637D01*
X101114637Y-37914759D01*
X101271680Y-37679727D01*
X101379853Y-37418574D01*
X101435000Y-37141335D01*
X101435000Y-36858665D01*
X101379853Y-36581426D01*
X101271680Y-36320273D01*
X101191317Y-36200000D01*
X106181928Y-36200000D01*
X106181928Y-37800000D01*
X106194188Y-37924482D01*
X106230498Y-38044180D01*
X106289463Y-38154494D01*
X106368815Y-38251185D01*
X106465506Y-38330537D01*
X106575820Y-38389502D01*
X106695518Y-38425812D01*
X106820000Y-38438072D01*
X108420000Y-38438072D01*
X108544482Y-38425812D01*
X108664180Y-38389502D01*
X108774494Y-38330537D01*
X108871185Y-38251185D01*
X108950537Y-38154494D01*
X109009502Y-38044180D01*
X109045812Y-37924482D01*
X109058072Y-37800000D01*
X109058072Y-36575000D01*
X110436928Y-36575000D01*
X110436928Y-37425000D01*
X110449188Y-37549482D01*
X110485498Y-37669180D01*
X110544463Y-37779494D01*
X110623815Y-37876185D01*
X110720506Y-37955537D01*
X110830820Y-38014502D01*
X110950518Y-38050812D01*
X111075000Y-38063072D01*
X111925000Y-38063072D01*
X112049482Y-38050812D01*
X112169180Y-38014502D01*
X112279494Y-37955537D01*
X112376185Y-37876185D01*
X112455537Y-37779494D01*
X112514502Y-37669180D01*
X112550812Y-37549482D01*
X112563072Y-37425000D01*
X112563072Y-36575000D01*
X112550812Y-36450518D01*
X112514502Y-36330820D01*
X112455537Y-36220506D01*
X112376185Y-36123815D01*
X112279494Y-36044463D01*
X112169180Y-35985498D01*
X112049482Y-35949188D01*
X111925000Y-35936928D01*
X111075000Y-35936928D01*
X110950518Y-35949188D01*
X110830820Y-35985498D01*
X110720506Y-36044463D01*
X110623815Y-36123815D01*
X110544463Y-36220506D01*
X110485498Y-36330820D01*
X110449188Y-36450518D01*
X110436928Y-36575000D01*
X109058072Y-36575000D01*
X109058072Y-36200000D01*
X109045812Y-36075518D01*
X109009502Y-35955820D01*
X108950537Y-35845506D01*
X108871185Y-35748815D01*
X108774494Y-35669463D01*
X108664180Y-35610498D01*
X108544482Y-35574188D01*
X108420000Y-35561928D01*
X106820000Y-35561928D01*
X106695518Y-35574188D01*
X106575820Y-35610498D01*
X106465506Y-35669463D01*
X106368815Y-35748815D01*
X106289463Y-35845506D01*
X106230498Y-35955820D01*
X106194188Y-36075518D01*
X106181928Y-36200000D01*
X101191317Y-36200000D01*
X101114637Y-36085241D01*
X100914759Y-35885363D01*
X100679727Y-35728320D01*
X100418574Y-35620147D01*
X100141335Y-35565000D01*
X99858665Y-35565000D01*
X99581426Y-35620147D01*
X99320273Y-35728320D01*
X99085241Y-35885363D01*
X98885363Y-36085241D01*
X98728320Y-36320273D01*
X98620147Y-36581426D01*
X98565000Y-36858665D01*
X94084062Y-36858665D01*
X94028918Y-36725537D01*
X93849987Y-36457748D01*
X93622252Y-36230013D01*
X93354463Y-36051082D01*
X93056912Y-35927832D01*
X92741033Y-35865000D01*
X92418967Y-35865000D01*
X92103088Y-35927832D01*
X91805537Y-36051082D01*
X91537748Y-36230013D01*
X91310013Y-36457748D01*
X91131082Y-36725537D01*
X91007832Y-37023088D01*
X90945000Y-37338967D01*
X89138072Y-37338967D01*
X89138072Y-36500000D01*
X89125812Y-36375518D01*
X89089502Y-36255820D01*
X89030537Y-36145506D01*
X88951185Y-36048815D01*
X88854494Y-35969463D01*
X88744180Y-35910498D01*
X88624482Y-35874188D01*
X88500000Y-35861928D01*
X86500000Y-35861928D01*
X86375518Y-35874188D01*
X86255820Y-35910498D01*
X86145506Y-35969463D01*
X86048815Y-36048815D01*
X85969463Y-36145506D01*
X85910498Y-36255820D01*
X85874188Y-36375518D01*
X85861928Y-36500000D01*
X53160000Y-36500000D01*
X53160000Y-34660000D01*
X115553388Y-34660000D01*
X115367641Y-34736939D01*
G37*
X115367641Y-34736939D02*
X115148987Y-34883038D01*
X114963038Y-35068987D01*
X114816939Y-35287641D01*
X114716304Y-35530595D01*
X114665000Y-35788514D01*
X114665000Y-36051486D01*
X114716304Y-36309405D01*
X114816939Y-36552359D01*
X114963038Y-36771013D01*
X115148987Y-36956962D01*
X115367641Y-37103061D01*
X115610595Y-37203696D01*
X115868514Y-37255000D01*
X116131486Y-37255000D01*
X116389405Y-37203696D01*
X116632359Y-37103061D01*
X116851013Y-36956962D01*
X117036962Y-36771013D01*
X117183061Y-36552359D01*
X117283696Y-36309405D01*
X117335000Y-36051486D01*
X117335000Y-35868514D01*
X118665000Y-35868514D01*
X118665000Y-36131486D01*
X118716304Y-36389405D01*
X118816939Y-36632359D01*
X118963038Y-36851013D01*
X119148987Y-37036962D01*
X119367641Y-37183061D01*
X119610595Y-37283696D01*
X119868514Y-37335000D01*
X120131486Y-37335000D01*
X120389405Y-37283696D01*
X120632359Y-37183061D01*
X120851013Y-37036962D01*
X121036962Y-36851013D01*
X121183061Y-36632359D01*
X121283696Y-36389405D01*
X121335000Y-36131486D01*
X121335000Y-35868514D01*
X121283696Y-35610595D01*
X121183061Y-35367641D01*
X121036962Y-35148987D01*
X120851013Y-34963038D01*
X120632359Y-34816939D01*
X120389405Y-34716304D01*
X120131486Y-34665000D01*
X119868514Y-34665000D01*
X119610595Y-34716304D01*
X119367641Y-34816939D01*
X119148987Y-34963038D01*
X118963038Y-35148987D01*
X118816939Y-35367641D01*
X118716304Y-35610595D01*
X118665000Y-35868514D01*
X117335000Y-35868514D01*
X117335000Y-35788514D01*
X117283696Y-35530595D01*
X117183061Y-35287641D01*
X117036962Y-35068987D01*
X116851013Y-34883038D01*
X116632359Y-34736939D01*
X116446612Y-34660000D01*
X159340000Y-34660000D01*
X159340000Y-35032418D01*
X159340001Y-35032428D01*
X159340001Y-50384099D01*
X159000000Y-50350612D01*
X152000000Y-50350612D01*
X151092949Y-50439949D01*
X150220756Y-50704526D01*
X149416938Y-51134175D01*
X148712386Y-51712386D01*
X148134175Y-52416938D01*
X147704526Y-53220756D01*
X147439949Y-54092949D01*
X147350612Y-55000000D01*
X147350612Y-55470384D01*
X147276171Y-55096144D01*
X146784152Y-53908306D01*
X146069852Y-52839280D01*
X145160720Y-51930148D01*
X144091694Y-51215848D01*
X142903856Y-50723829D01*
X141642853Y-50473000D01*
X140357147Y-50473000D01*
X139096144Y-50723829D01*
X137908306Y-51215848D01*
X136839280Y-51930148D01*
X135930148Y-52839280D01*
X135215848Y-53908306D01*
X134723829Y-55096144D01*
X134473000Y-56357147D01*
X134473000Y-57642853D01*
X134723829Y-58903856D01*
X135215848Y-60091694D01*
X135930148Y-61160720D01*
X136839280Y-62069852D01*
X137908306Y-62784152D01*
X139096144Y-63276171D01*
X140357147Y-63527000D01*
X141642853Y-63527000D01*
X142903856Y-63276171D01*
X144091694Y-62784152D01*
X145160720Y-62069852D01*
X146069852Y-61160720D01*
X146784152Y-60091694D01*
X147276171Y-58903856D01*
X147350612Y-58529616D01*
X147350612Y-59000000D01*
X147439949Y-59907051D01*
X147704526Y-60779244D01*
X148134175Y-61583062D01*
X148712386Y-62287614D01*
X149416938Y-62865825D01*
X150220756Y-63295474D01*
X151092949Y-63560051D01*
X152000000Y-63649388D01*
X159000000Y-63649388D01*
X159340000Y-63615901D01*
X159340000Y-79340000D01*
X120464321Y-79340000D01*
X120603061Y-79132359D01*
X120703696Y-78889405D01*
X120755000Y-78631486D01*
X120755000Y-78368514D01*
X120703696Y-78110595D01*
X120603061Y-77867641D01*
X120456962Y-77648987D01*
X120271013Y-77463038D01*
X120052359Y-77316939D01*
X119809405Y-77216304D01*
X119551486Y-77165000D01*
X119288514Y-77165000D01*
X119030595Y-77216304D01*
X118787641Y-77316939D01*
X118568987Y-77463038D01*
X118383038Y-77648987D01*
X118236939Y-77867641D01*
X118136304Y-78110595D01*
X118085000Y-78368514D01*
X118085000Y-78631486D01*
X118136304Y-78889405D01*
X118236939Y-79132359D01*
X118375679Y-79340000D01*
X53160000Y-79340000D01*
X53160000Y-74338967D01*
X71865000Y-74338967D01*
X71865000Y-74661033D01*
X71927832Y-74976912D01*
X72051082Y-75274463D01*
X72230013Y-75542252D01*
X72457748Y-75769987D01*
X72725537Y-75948918D01*
X73023088Y-76072168D01*
X73338967Y-76135000D01*
X73661033Y-76135000D01*
X73976912Y-76072168D01*
X74274463Y-75948918D01*
X74542252Y-75769987D01*
X74769987Y-75542252D01*
X74948918Y-75274463D01*
X75072168Y-74976912D01*
X75135000Y-74661033D01*
X75135000Y-74338967D01*
X75115409Y-74240475D01*
X75865000Y-74240475D01*
X75865000Y-74759525D01*
X75966261Y-75268601D01*
X76164893Y-75748141D01*
X76453262Y-76179715D01*
X76820285Y-76546738D01*
X77251859Y-76835107D01*
X77731399Y-77033739D01*
X78240475Y-77135000D01*
X78759525Y-77135000D01*
X79268601Y-77033739D01*
X79365000Y-76993809D01*
X79365000Y-77161033D01*
X79427832Y-77476912D01*
X79551082Y-77774463D01*
X79730013Y-78042252D01*
X79957748Y-78269987D01*
X80225537Y-78448918D01*
X80523088Y-78572168D01*
X80838967Y-78635000D01*
X81161033Y-78635000D01*
X81476912Y-78572168D01*
X81774463Y-78448918D01*
X82042252Y-78269987D01*
X82269987Y-78042252D01*
X82448918Y-77774463D01*
X82572168Y-77476912D01*
X82635000Y-77161033D01*
X82635000Y-76858665D01*
X98565000Y-76858665D01*
X98565000Y-77141335D01*
X98620147Y-77418574D01*
X98728320Y-77679727D01*
X98885363Y-77914759D01*
X99085241Y-78114637D01*
X99320273Y-78271680D01*
X99581426Y-78379853D01*
X99858665Y-78435000D01*
X100141335Y-78435000D01*
X100418574Y-78379853D01*
X100679727Y-78271680D01*
X100914759Y-78114637D01*
X101114637Y-77914759D01*
X101271680Y-77679727D01*
X101379853Y-77418574D01*
X101435000Y-77141335D01*
X101435000Y-76858665D01*
X101379853Y-76581426D01*
X101271680Y-76320273D01*
X101191317Y-76200000D01*
X106181928Y-76200000D01*
X106181928Y-77800000D01*
X106194188Y-77924482D01*
X106230498Y-78044180D01*
X106289463Y-78154494D01*
X106368815Y-78251185D01*
X106465506Y-78330537D01*
X106575820Y-78389502D01*
X106695518Y-78425812D01*
X106820000Y-78438072D01*
X108420000Y-78438072D01*
X108544482Y-78425812D01*
X108664180Y-78389502D01*
X108774494Y-78330537D01*
X108871185Y-78251185D01*
X108950537Y-78154494D01*
X109009502Y-78044180D01*
X109045812Y-77924482D01*
X109058072Y-77800000D01*
X109058072Y-76575000D01*
X110936928Y-76575000D01*
X110936928Y-77425000D01*
X110949188Y-77549482D01*
X110985498Y-77669180D01*
X111044463Y-77779494D01*
X111123815Y-77876185D01*
X111220506Y-77955537D01*
X111330820Y-78014502D01*
X111450518Y-78050812D01*
X111575000Y-78063072D01*
X112425000Y-78063072D01*
X112549482Y-78050812D01*
X112669180Y-78014502D01*
X112779494Y-77955537D01*
X112876185Y-77876185D01*
X112955537Y-77779494D01*
X113014502Y-77669180D01*
X113050812Y-77549482D01*
X113063072Y-77425000D01*
X113063072Y-76868514D01*
X114665000Y-76868514D01*
X114665000Y-77131486D01*
X114716304Y-77389405D01*
X114816939Y-77632359D01*
X114963038Y-77851013D01*
X115148987Y-78036962D01*
X115367641Y-78183061D01*
X115610595Y-78283696D01*
X115868514Y-78335000D01*
X116131486Y-78335000D01*
X116389405Y-78283696D01*
X116632359Y-78183061D01*
X116851013Y-78036962D01*
X117036962Y-77851013D01*
X117183061Y-77632359D01*
X117283696Y-77389405D01*
X117335000Y-77131486D01*
X117335000Y-76868514D01*
X117283696Y-76610595D01*
X117183061Y-76367641D01*
X117036962Y-76148987D01*
X116851013Y-75963038D01*
X116632359Y-75816939D01*
X116389405Y-75716304D01*
X116131486Y-75665000D01*
X115868514Y-75665000D01*
X115610595Y-75716304D01*
X115367641Y-75816939D01*
X115148987Y-75963038D01*
X114963038Y-76148987D01*
X114816939Y-76367641D01*
X114716304Y-76610595D01*
X114665000Y-76868514D01*
X113063072Y-76868514D01*
X113063072Y-76575000D01*
X113050812Y-76450518D01*
X113014502Y-76330820D01*
X112955537Y-76220506D01*
X112876185Y-76123815D01*
X112779494Y-76044463D01*
X112669180Y-75985498D01*
X112549482Y-75949188D01*
X112425000Y-75936928D01*
X111575000Y-75936928D01*
X111450518Y-75949188D01*
X111330820Y-75985498D01*
X111220506Y-76044463D01*
X111123815Y-76123815D01*
X111044463Y-76220506D01*
X110985498Y-76330820D01*
X110949188Y-76450518D01*
X110936928Y-76575000D01*
X109058072Y-76575000D01*
X109058072Y-76200000D01*
X109045812Y-76075518D01*
X109009502Y-75955820D01*
X108950537Y-75845506D01*
X108871185Y-75748815D01*
X108774494Y-75669463D01*
X108664180Y-75610498D01*
X108544482Y-75574188D01*
X108420000Y-75561928D01*
X106820000Y-75561928D01*
X106695518Y-75574188D01*
X106575820Y-75610498D01*
X106465506Y-75669463D01*
X106368815Y-75748815D01*
X106289463Y-75845506D01*
X106230498Y-75955820D01*
X106194188Y-76075518D01*
X106181928Y-76200000D01*
X101191317Y-76200000D01*
X101114637Y-76085241D01*
X100914759Y-75885363D01*
X100679727Y-75728320D01*
X100418574Y-75620147D01*
X100141335Y-75565000D01*
X99858665Y-75565000D01*
X99581426Y-75620147D01*
X99320273Y-75728320D01*
X99085241Y-75885363D01*
X98885363Y-76085241D01*
X98728320Y-76320273D01*
X98620147Y-76581426D01*
X98565000Y-76858665D01*
X82635000Y-76858665D01*
X82635000Y-76838967D01*
X82572168Y-76523088D01*
X82448918Y-76225537D01*
X82269987Y-75957748D01*
X82042252Y-75730013D01*
X81774463Y-75551082D01*
X81476912Y-75427832D01*
X81161033Y-75365000D01*
X80993809Y-75365000D01*
X81033739Y-75268601D01*
X81135000Y-74759525D01*
X81135000Y-74240475D01*
X81055136Y-73838967D01*
X117865000Y-73838967D01*
X117865000Y-74161033D01*
X117927832Y-74476912D01*
X118051082Y-74774463D01*
X118230013Y-75042252D01*
X118457748Y-75269987D01*
X118725537Y-75448918D01*
X119023088Y-75572168D01*
X119338967Y-75635000D01*
X119661033Y-75635000D01*
X119976912Y-75572168D01*
X120274463Y-75448918D01*
X120542252Y-75269987D01*
X120769987Y-75042252D01*
X120948918Y-74774463D01*
X121072168Y-74476912D01*
X121135000Y-74161033D01*
X121135000Y-73838967D01*
X121072168Y-73523088D01*
X120948918Y-73225537D01*
X120769987Y-72957748D01*
X120542252Y-72730013D01*
X120274463Y-72551082D01*
X119976912Y-72427832D01*
X119661033Y-72365000D01*
X119338967Y-72365000D01*
X119023088Y-72427832D01*
X118725537Y-72551082D01*
X118457748Y-72730013D01*
X118230013Y-72957748D01*
X118051082Y-73225537D01*
X117927832Y-73523088D01*
X117865000Y-73838967D01*
X81055136Y-73838967D01*
X81033739Y-73731399D01*
X80835107Y-73251859D01*
X80546738Y-72820285D01*
X80179715Y-72453262D01*
X79748141Y-72164893D01*
X79268601Y-71966261D01*
X78759525Y-71865000D01*
X78240475Y-71865000D01*
X77731399Y-71966261D01*
X77251859Y-72164893D01*
X76820285Y-72453262D01*
X76453262Y-72820285D01*
X76164893Y-73251859D01*
X75966261Y-73731399D01*
X75865000Y-74240475D01*
X75115409Y-74240475D01*
X75072168Y-74023088D01*
X74948918Y-73725537D01*
X74769987Y-73457748D01*
X74542252Y-73230013D01*
X74274463Y-73051082D01*
X73976912Y-72927832D01*
X73661033Y-72865000D01*
X73338967Y-72865000D01*
X73023088Y-72927832D01*
X72725537Y-73051082D01*
X72457748Y-73230013D01*
X72230013Y-73457748D01*
X72051082Y-73725537D01*
X71927832Y-74023088D01*
X71865000Y-74338967D01*
X53160000Y-74338967D01*
X53160000Y-69826467D01*
X66365000Y-69826467D01*
X66365000Y-70148533D01*
X66427832Y-70464412D01*
X66551082Y-70761963D01*
X66730013Y-71029752D01*
X66957748Y-71257487D01*
X67225537Y-71436418D01*
X67523088Y-71559668D01*
X67838967Y-71622500D01*
X68161033Y-71622500D01*
X68476912Y-71559668D01*
X68774463Y-71436418D01*
X69042252Y-71257487D01*
X69269987Y-71029752D01*
X69289866Y-71000000D01*
X84857089Y-71000000D01*
X84865000Y-71080319D01*
X84865000Y-71161033D01*
X84880747Y-71240201D01*
X84888658Y-71320516D01*
X84912084Y-71397743D01*
X84927832Y-71476912D01*
X84958721Y-71551483D01*
X84982148Y-71628714D01*
X85020194Y-71699892D01*
X85051082Y-71774463D01*
X85095926Y-71841576D01*
X85133970Y-71912752D01*
X85185169Y-71975138D01*
X85230013Y-72042252D01*
X85287089Y-72099328D01*
X85338287Y-72161713D01*
X85400672Y-72212911D01*
X85457748Y-72269987D01*
X85524862Y-72314831D01*
X85587248Y-72366030D01*
X85658424Y-72404074D01*
X85725537Y-72448918D01*
X85800108Y-72479806D01*
X85871286Y-72517852D01*
X85948517Y-72541279D01*
X86023088Y-72572168D01*
X86102257Y-72587916D01*
X86179484Y-72611342D01*
X86259799Y-72619253D01*
X86338967Y-72635000D01*
X86419681Y-72635000D01*
X86500000Y-72642911D01*
X86580319Y-72635000D01*
X86661033Y-72635000D01*
X86740201Y-72619253D01*
X86820516Y-72611342D01*
X86897743Y-72587916D01*
X86976912Y-72572168D01*
X87051483Y-72541279D01*
X87128714Y-72517852D01*
X87199892Y-72479806D01*
X87274463Y-72448918D01*
X87341576Y-72404074D01*
X87412752Y-72366030D01*
X87475137Y-72314832D01*
X87542252Y-72269987D01*
X87769987Y-72042252D01*
X87769989Y-72042249D01*
X88865000Y-70947238D01*
X88865000Y-71259525D01*
X88966261Y-71768601D01*
X89164893Y-72248141D01*
X89453262Y-72679715D01*
X89820285Y-73046738D01*
X90251859Y-73335107D01*
X90731399Y-73533739D01*
X91240475Y-73635000D01*
X91759525Y-73635000D01*
X92268601Y-73533739D01*
X92748141Y-73335107D01*
X93179715Y-73046738D01*
X93546738Y-72679715D01*
X93835107Y-72248141D01*
X94025490Y-71788514D01*
X114665000Y-71788514D01*
X114665000Y-72051486D01*
X114716304Y-72309405D01*
X114816939Y-72552359D01*
X114963038Y-72771013D01*
X115148987Y-72956962D01*
X115367641Y-73103061D01*
X115610595Y-73203696D01*
X115868514Y-73255000D01*
X116131486Y-73255000D01*
X116389405Y-73203696D01*
X116632359Y-73103061D01*
X116851013Y-72956962D01*
X117036962Y-72771013D01*
X117183061Y-72552359D01*
X117283696Y-72309405D01*
X117335000Y-72051486D01*
X117335000Y-71788514D01*
X117283696Y-71530595D01*
X117183061Y-71287641D01*
X117036962Y-71068987D01*
X116851013Y-70883038D01*
X116632359Y-70736939D01*
X116389405Y-70636304D01*
X116131486Y-70585000D01*
X115868514Y-70585000D01*
X115610595Y-70636304D01*
X115367641Y-70736939D01*
X115148987Y-70883038D01*
X114963038Y-71068987D01*
X114816939Y-71287641D01*
X114716304Y-71530595D01*
X114665000Y-71788514D01*
X94025490Y-71788514D01*
X94033739Y-71768601D01*
X94135000Y-71259525D01*
X94135000Y-70740475D01*
X94033739Y-70231399D01*
X93993809Y-70135000D01*
X97175683Y-70135000D01*
X97256002Y-70142911D01*
X97336321Y-70135000D01*
X97336324Y-70135000D01*
X97576518Y-70111343D01*
X97884717Y-70017852D01*
X98168754Y-69866031D01*
X98417716Y-69661714D01*
X98468927Y-69599314D01*
X99803143Y-68265098D01*
X108615000Y-68265098D01*
X108615000Y-68734902D01*
X108706654Y-69195679D01*
X108886440Y-69629721D01*
X109147450Y-70020349D01*
X109479651Y-70352550D01*
X109870279Y-70613560D01*
X110304321Y-70793346D01*
X110765098Y-70885000D01*
X111234902Y-70885000D01*
X111695679Y-70793346D01*
X112129721Y-70613560D01*
X112520349Y-70352550D01*
X112852550Y-70020349D01*
X113113560Y-69629721D01*
X113293346Y-69195679D01*
X113385000Y-68734902D01*
X113385000Y-68265098D01*
X113293346Y-67804321D01*
X113113560Y-67370279D01*
X112852550Y-66979651D01*
X112520349Y-66647450D01*
X112129721Y-66386440D01*
X111695679Y-66206654D01*
X111234902Y-66115000D01*
X110765098Y-66115000D01*
X110304321Y-66206654D01*
X109870279Y-66386440D01*
X109479651Y-66647450D01*
X109147450Y-66979651D01*
X108886440Y-67370279D01*
X108706654Y-67804321D01*
X108615000Y-68265098D01*
X99803143Y-68265098D01*
X99911918Y-68156323D01*
X99974314Y-68105116D01*
X100178631Y-67856154D01*
X100330452Y-67572117D01*
X100423943Y-67263917D01*
X100447600Y-67023723D01*
X100447600Y-67023722D01*
X100455511Y-66943403D01*
X100452196Y-66909742D01*
X108649052Y-58712887D01*
X108649510Y-58717542D01*
X108785887Y-59167116D01*
X109007352Y-59581446D01*
X109305392Y-59944609D01*
X109668555Y-60242649D01*
X110082885Y-60464113D01*
X110532459Y-60600490D01*
X111000000Y-60646539D01*
X111467542Y-60600490D01*
X111917116Y-60464113D01*
X112331446Y-60242649D01*
X112694609Y-59944609D01*
X112992649Y-59581446D01*
X113214113Y-59167116D01*
X113350490Y-58717542D01*
X113385000Y-58367157D01*
X113385000Y-55632843D01*
X113350490Y-55282458D01*
X113214113Y-54832884D01*
X112992649Y-54418554D01*
X112694609Y-54055391D01*
X112331445Y-53757351D01*
X111917115Y-53535887D01*
X111467541Y-53399510D01*
X111000000Y-53353461D01*
X110532458Y-53399510D01*
X110082884Y-53535887D01*
X109668554Y-53757351D01*
X109305391Y-54055391D01*
X109007351Y-54418555D01*
X108785887Y-54832885D01*
X108649510Y-55282459D01*
X108641380Y-55365000D01*
X108130019Y-55365000D01*
X108049699Y-55357089D01*
X107969380Y-55365000D01*
X107969378Y-55365000D01*
X107729184Y-55388657D01*
X107420985Y-55482148D01*
X107136948Y-55633969D01*
X106887986Y-55838286D01*
X106836780Y-55900681D01*
X97773883Y-64963579D01*
X97769987Y-64957748D01*
X97542252Y-64730013D01*
X97274463Y-64551082D01*
X96976912Y-64427832D01*
X96661033Y-64365000D01*
X96338967Y-64365000D01*
X96023088Y-64427832D01*
X95725537Y-64551082D01*
X95457748Y-64730013D01*
X95230013Y-64957748D01*
X95051082Y-65225537D01*
X94927832Y-65523088D01*
X94865000Y-65838967D01*
X94865000Y-66161033D01*
X94927832Y-66476912D01*
X95051082Y-66774463D01*
X95111577Y-66865000D01*
X94413240Y-66865000D01*
X94248926Y-66700686D01*
X94197715Y-66638285D01*
X93948753Y-66433968D01*
X93664716Y-66282147D01*
X93356517Y-66188656D01*
X93116323Y-66164999D01*
X93116320Y-66164999D01*
X93036001Y-66157088D01*
X92955682Y-66164999D01*
X89780323Y-66164999D01*
X89700001Y-66157088D01*
X89379484Y-66188656D01*
X89320153Y-66206654D01*
X89071286Y-66282147D01*
X88787249Y-66433968D01*
X88538287Y-66638285D01*
X88487081Y-66700680D01*
X85457751Y-69730011D01*
X85457748Y-69730013D01*
X85230013Y-69957748D01*
X85185168Y-70024863D01*
X85133970Y-70087248D01*
X85095926Y-70158424D01*
X85051082Y-70225537D01*
X85020194Y-70300108D01*
X84982148Y-70371286D01*
X84958721Y-70448517D01*
X84927832Y-70523088D01*
X84912084Y-70602257D01*
X84888658Y-70679484D01*
X84880747Y-70759799D01*
X84865000Y-70838967D01*
X84865000Y-70919681D01*
X84857089Y-71000000D01*
X69289866Y-71000000D01*
X69448918Y-70761963D01*
X69572168Y-70464412D01*
X69635000Y-70148533D01*
X69635000Y-69826467D01*
X69572168Y-69510588D01*
X69448918Y-69213037D01*
X69269987Y-68945248D01*
X69042252Y-68717513D01*
X68774463Y-68538582D01*
X68476912Y-68415332D01*
X68161033Y-68352500D01*
X67838967Y-68352500D01*
X67523088Y-68415332D01*
X67225537Y-68538582D01*
X66957748Y-68717513D01*
X66730013Y-68945248D01*
X66551082Y-69213037D01*
X66427832Y-69510588D01*
X66365000Y-69826467D01*
X53160000Y-69826467D01*
X53160000Y-63649388D01*
X60000000Y-63649388D01*
X60907051Y-63560051D01*
X61779244Y-63295474D01*
X62373000Y-62978105D01*
X62373000Y-63041711D01*
X62589242Y-64128835D01*
X63013417Y-65152884D01*
X63629223Y-66074504D01*
X64412996Y-66858277D01*
X65334616Y-67474083D01*
X66358665Y-67898258D01*
X67445789Y-68114500D01*
X68554211Y-68114500D01*
X69641335Y-67898258D01*
X70665384Y-67474083D01*
X71587004Y-66858277D01*
X71606314Y-66838967D01*
X74365000Y-66838967D01*
X74365000Y-67161033D01*
X74427832Y-67476912D01*
X74551082Y-67774463D01*
X74730013Y-68042252D01*
X74957748Y-68269987D01*
X75225537Y-68448918D01*
X75523088Y-68572168D01*
X75838967Y-68635000D01*
X76161033Y-68635000D01*
X76476912Y-68572168D01*
X76774463Y-68448918D01*
X77042252Y-68269987D01*
X77269987Y-68042252D01*
X77448918Y-67774463D01*
X77572168Y-67476912D01*
X77635000Y-67161033D01*
X77635000Y-66838967D01*
X77572168Y-66523088D01*
X77448918Y-66225537D01*
X77269987Y-65957748D01*
X77042252Y-65730013D01*
X76774463Y-65551082D01*
X76476912Y-65427832D01*
X76161033Y-65365000D01*
X75838967Y-65365000D01*
X75523088Y-65427832D01*
X75225537Y-65551082D01*
X74957748Y-65730013D01*
X74730013Y-65957748D01*
X74551082Y-66225537D01*
X74427832Y-66523088D01*
X74365000Y-66838967D01*
X71606314Y-66838967D01*
X72370777Y-66074504D01*
X72986583Y-65152884D01*
X73410758Y-64128835D01*
X73581564Y-63270132D01*
X73596144Y-63276171D01*
X74857147Y-63527000D01*
X76142853Y-63527000D01*
X77403856Y-63276171D01*
X78591694Y-62784152D01*
X79660720Y-62069852D01*
X80569852Y-61160720D01*
X81284152Y-60091694D01*
X81776171Y-58903856D01*
X82027000Y-57642853D01*
X82027000Y-56357147D01*
X81776171Y-55096144D01*
X81284152Y-53908306D01*
X80569852Y-52839280D01*
X79660720Y-51930148D01*
X78591694Y-51215848D01*
X77403856Y-50723829D01*
X76142853Y-50473000D01*
X74857147Y-50473000D01*
X73596144Y-50723829D01*
X72408306Y-51215848D01*
X71339280Y-51930148D01*
X70430148Y-52839280D01*
X69715848Y-53908306D01*
X69223829Y-55096144D01*
X68973000Y-56357147D01*
X68973000Y-56943802D01*
X68554211Y-56860500D01*
X67445789Y-56860500D01*
X66358665Y-57076742D01*
X65334616Y-57500917D01*
X64649388Y-57958771D01*
X64649388Y-55000000D01*
X64560051Y-54092949D01*
X64295474Y-53220756D01*
X63865825Y-52416938D01*
X63287614Y-51712386D01*
X62583062Y-51134175D01*
X61779244Y-50704526D01*
X60907051Y-50439949D01*
X60000000Y-50350612D01*
X53160000Y-50350612D01*
X53160000Y-45265098D01*
X108615000Y-45265098D01*
X108615000Y-45734902D01*
X108706654Y-46195679D01*
X108886440Y-46629721D01*
X109147450Y-47020349D01*
X109479651Y-47352550D01*
X109870279Y-47613560D01*
X110304321Y-47793346D01*
X110765098Y-47885000D01*
X111234902Y-47885000D01*
X111695679Y-47793346D01*
X112129721Y-47613560D01*
X112520349Y-47352550D01*
X112852550Y-47020349D01*
X113113560Y-46629721D01*
X113293346Y-46195679D01*
X113385000Y-45734902D01*
X113385000Y-45265098D01*
X113293346Y-44804321D01*
X113113560Y-44370279D01*
X112852550Y-43979651D01*
X112520349Y-43647450D01*
X112129721Y-43386440D01*
X111695679Y-43206654D01*
X111234902Y-43115000D01*
X110765098Y-43115000D01*
X110304321Y-43206654D01*
X109870279Y-43386440D01*
X109479651Y-43647450D01*
X109147450Y-43979651D01*
X108886440Y-44370279D01*
X108706654Y-44804321D01*
X108615000Y-45265098D01*
X53160000Y-45265098D01*
X53160000Y-40868514D01*
X114665000Y-40868514D01*
X114665000Y-41131486D01*
X114716304Y-41389405D01*
X114816939Y-41632359D01*
X114963038Y-41851013D01*
X115148987Y-42036962D01*
X115367641Y-42183061D01*
X115610595Y-42283696D01*
X115868514Y-42335000D01*
X116131486Y-42335000D01*
X116389405Y-42283696D01*
X116632359Y-42183061D01*
X116851013Y-42036962D01*
X117036962Y-41851013D01*
X117183061Y-41632359D01*
X117283696Y-41389405D01*
X117335000Y-41131486D01*
X117335000Y-40868514D01*
X117283696Y-40610595D01*
X117183061Y-40367641D01*
X117163902Y-40338967D01*
X118365000Y-40338967D01*
X118365000Y-40661033D01*
X118427832Y-40976912D01*
X118551082Y-41274463D01*
X118730013Y-41542252D01*
X118957748Y-41769987D01*
X119225537Y-41948918D01*
X119523088Y-42072168D01*
X119838967Y-42135000D01*
X120161033Y-42135000D01*
X120476912Y-42072168D01*
X120774463Y-41948918D01*
X121042252Y-41769987D01*
X121269987Y-41542252D01*
X121448918Y-41274463D01*
X121572168Y-40976912D01*
X121635000Y-40661033D01*
X121635000Y-40338967D01*
X121572168Y-40023088D01*
X121448918Y-39725537D01*
X121269987Y-39457748D01*
X121042252Y-39230013D01*
X120774463Y-39051082D01*
X120476912Y-38927832D01*
X120161033Y-38865000D01*
X119838967Y-38865000D01*
X119523088Y-38927832D01*
X119225537Y-39051082D01*
X118957748Y-39230013D01*
X118730013Y-39457748D01*
X118551082Y-39725537D01*
X118427832Y-40023088D01*
X118365000Y-40338967D01*
X117163902Y-40338967D01*
X117036962Y-40148987D01*
X116851013Y-39963038D01*
X116632359Y-39816939D01*
X116389405Y-39716304D01*
X116131486Y-39665000D01*
X115868514Y-39665000D01*
X115610595Y-39716304D01*
X115367641Y-39816939D01*
X115148987Y-39963038D01*
X114963038Y-40148987D01*
X114816939Y-40367641D01*
X114716304Y-40610595D01*
X114665000Y-40868514D01*
X53160000Y-40868514D01*
X53160000Y-36500000D01*
X85861928Y-36500000D01*
X85861928Y-38500000D01*
X85874188Y-38624482D01*
X85910498Y-38744180D01*
X85969463Y-38854494D01*
X86048815Y-38951185D01*
X86145506Y-39030537D01*
X86255820Y-39089502D01*
X86375518Y-39125812D01*
X86500000Y-39138072D01*
X88500000Y-39138072D01*
X88624482Y-39125812D01*
X88744180Y-39089502D01*
X88854494Y-39030537D01*
X88951185Y-38951185D01*
X89030537Y-38854494D01*
X89089502Y-38744180D01*
X89125812Y-38624482D01*
X89138072Y-38500000D01*
X89138072Y-37338967D01*
X90945000Y-37338967D01*
X90945000Y-37661033D01*
X91007832Y-37976912D01*
X91131082Y-38274463D01*
X91310013Y-38542252D01*
X91537748Y-38769987D01*
X91805537Y-38948918D01*
X92103088Y-39072168D01*
X92418967Y-39135000D01*
X92741033Y-39135000D01*
X93056912Y-39072168D01*
X93354463Y-38948918D01*
X93622252Y-38769987D01*
X93849987Y-38542252D01*
X94028918Y-38274463D01*
X94152168Y-37976912D01*
X94215000Y-37661033D01*
X94215000Y-37338967D01*
X94152168Y-37023088D01*
X94084062Y-36858665D01*
X98565000Y-36858665D01*
X98565000Y-37141335D01*
X98620147Y-37418574D01*
X98728320Y-37679727D01*
X98885363Y-37914759D01*
X99085241Y-38114637D01*
X99320273Y-38271680D01*
X99581426Y-38379853D01*
X99858665Y-38435000D01*
X100141335Y-38435000D01*
X100418574Y-38379853D01*
X100679727Y-38271680D01*
X100914759Y-38114637D01*
X101114637Y-37914759D01*
X101271680Y-37679727D01*
X101379853Y-37418574D01*
X101435000Y-37141335D01*
X101435000Y-36858665D01*
X101379853Y-36581426D01*
X101271680Y-36320273D01*
X101191317Y-36200000D01*
X106181928Y-36200000D01*
X106181928Y-37800000D01*
X106194188Y-37924482D01*
X106230498Y-38044180D01*
X106289463Y-38154494D01*
X106368815Y-38251185D01*
X106465506Y-38330537D01*
X106575820Y-38389502D01*
X106695518Y-38425812D01*
X106820000Y-38438072D01*
X108420000Y-38438072D01*
X108544482Y-38425812D01*
X108664180Y-38389502D01*
X108774494Y-38330537D01*
X108871185Y-38251185D01*
X108950537Y-38154494D01*
X109009502Y-38044180D01*
X109045812Y-37924482D01*
X109058072Y-37800000D01*
X109058072Y-36575000D01*
X110436928Y-36575000D01*
X110436928Y-37425000D01*
X110449188Y-37549482D01*
X110485498Y-37669180D01*
X110544463Y-37779494D01*
X110623815Y-37876185D01*
X110720506Y-37955537D01*
X110830820Y-38014502D01*
X110950518Y-38050812D01*
X111075000Y-38063072D01*
X111925000Y-38063072D01*
X112049482Y-38050812D01*
X112169180Y-38014502D01*
X112279494Y-37955537D01*
X112376185Y-37876185D01*
X112455537Y-37779494D01*
X112514502Y-37669180D01*
X112550812Y-37549482D01*
X112563072Y-37425000D01*
X112563072Y-36575000D01*
X112550812Y-36450518D01*
X112514502Y-36330820D01*
X112455537Y-36220506D01*
X112376185Y-36123815D01*
X112279494Y-36044463D01*
X112169180Y-35985498D01*
X112049482Y-35949188D01*
X111925000Y-35936928D01*
X111075000Y-35936928D01*
X110950518Y-35949188D01*
X110830820Y-35985498D01*
X110720506Y-36044463D01*
X110623815Y-36123815D01*
X110544463Y-36220506D01*
X110485498Y-36330820D01*
X110449188Y-36450518D01*
X110436928Y-36575000D01*
X109058072Y-36575000D01*
X109058072Y-36200000D01*
X109045812Y-36075518D01*
X109009502Y-35955820D01*
X108950537Y-35845506D01*
X108871185Y-35748815D01*
X108774494Y-35669463D01*
X108664180Y-35610498D01*
X108544482Y-35574188D01*
X108420000Y-35561928D01*
X106820000Y-35561928D01*
X106695518Y-35574188D01*
X106575820Y-35610498D01*
X106465506Y-35669463D01*
X106368815Y-35748815D01*
X106289463Y-35845506D01*
X106230498Y-35955820D01*
X106194188Y-36075518D01*
X106181928Y-36200000D01*
X101191317Y-36200000D01*
X101114637Y-36085241D01*
X100914759Y-35885363D01*
X100679727Y-35728320D01*
X100418574Y-35620147D01*
X100141335Y-35565000D01*
X99858665Y-35565000D01*
X99581426Y-35620147D01*
X99320273Y-35728320D01*
X99085241Y-35885363D01*
X98885363Y-36085241D01*
X98728320Y-36320273D01*
X98620147Y-36581426D01*
X98565000Y-36858665D01*
X94084062Y-36858665D01*
X94028918Y-36725537D01*
X93849987Y-36457748D01*
X93622252Y-36230013D01*
X93354463Y-36051082D01*
X93056912Y-35927832D01*
X92741033Y-35865000D01*
X92418967Y-35865000D01*
X92103088Y-35927832D01*
X91805537Y-36051082D01*
X91537748Y-36230013D01*
X91310013Y-36457748D01*
X91131082Y-36725537D01*
X91007832Y-37023088D01*
X90945000Y-37338967D01*
X89138072Y-37338967D01*
X89138072Y-36500000D01*
X89125812Y-36375518D01*
X89089502Y-36255820D01*
X89030537Y-36145506D01*
X88951185Y-36048815D01*
X88854494Y-35969463D01*
X88744180Y-35910498D01*
X88624482Y-35874188D01*
X88500000Y-35861928D01*
X86500000Y-35861928D01*
X86375518Y-35874188D01*
X86255820Y-35910498D01*
X86145506Y-35969463D01*
X86048815Y-36048815D01*
X85969463Y-36145506D01*
X85910498Y-36255820D01*
X85874188Y-36375518D01*
X85861928Y-36500000D01*
X53160000Y-36500000D01*
X53160000Y-34660000D01*
X115553388Y-34660000D01*
X115367641Y-34736939D01*
%TD*%
M02*
