%TF.GenerationSoftware,KiCad,Pcbnew,5.1.6-c6e7f7d~87~ubuntu20.04.1*%
%TF.CreationDate,2020-09-28T11:48:30+02:00*%
%TF.ProjectId,SWR bridge,53575220-6272-4696-9467-652e6b696361,rev?*%
%TF.SameCoordinates,Original*%
%TF.FileFunction,Copper,L1,Top*%
%TF.FilePolarity,Positive*%
%FSLAX46Y46*%
G04 Gerber Fmt 4.6, Leading zero omitted, Abs format (unit mm)*
G04 Created by KiCad (PCBNEW 5.1.6-c6e7f7d~87~ubuntu20.04.1) date 2020-09-28 11:48:30*
%MOMM*%
%LPD*%
G01*
G04 APERTURE LIST*
%TA.AperFunction,ComponentPad*%
%ADD10C,2.000000*%
%TD*%
%TA.AperFunction,ComponentPad*%
%ADD11C,4.000000*%
%TD*%
%TA.AperFunction,ComponentPad*%
%ADD12R,1.600000X1.600000*%
%TD*%
%TA.AperFunction,ComponentPad*%
%ADD13O,1.600000X1.600000*%
%TD*%
%TA.AperFunction,ComponentPad*%
%ADD14R,7.000000X4.000000*%
%TD*%
%TA.AperFunction,ComponentPad*%
%ADD15R,7.000000X5.000000*%
%TD*%
%TA.AperFunction,ComponentPad*%
%ADD16C,3.500000*%
%TD*%
%TA.AperFunction,ComponentPad*%
%ADD17O,3.500000X6.000000*%
%TD*%
%TA.AperFunction,ComponentPad*%
%ADD18C,3.800000*%
%TD*%
%TA.AperFunction,ComponentPad*%
%ADD19R,0.850000X0.850000*%
%TD*%
%TA.AperFunction,ComponentPad*%
%ADD20R,2.000000X2.000000*%
%TD*%
%TA.AperFunction,ComponentPad*%
%ADD21O,2.000000X2.000000*%
%TD*%
%TA.AperFunction,Conductor*%
%ADD22C,0.250000*%
%TD*%
%TA.AperFunction,Conductor*%
%ADD23C,3.000000*%
%TD*%
%TA.AperFunction,Conductor*%
%ADD24C,2.000000*%
%TD*%
%TA.AperFunction,Conductor*%
%ADD25C,0.254000*%
%TD*%
G04 APERTURE END LIST*
D10*
%TO.P,C4,1*%
%TO.N,/FORWARD*%
X119500000Y-76000000D03*
%TO.P,C4,2*%
%TO.N,Earth*%
X124500000Y-76000000D03*
%TD*%
%TO.P,R1,1*%
%TO.N,/T-center*%
X86500000Y-71000000D03*
%TO.P,R1,2*%
%TO.N,Earth*%
X96500000Y-76000000D03*
%TO.P,R1,3*%
%TO.N,N/C*%
X96500000Y-66000000D03*
D11*
%TO.P,R1,4*%
X91500000Y-71000000D03*
%TD*%
D10*
%TO.P,C2,2*%
%TO.N,Earth*%
X81000000Y-72000000D03*
%TO.P,C2,3*%
%TO.N,N/C*%
X81000000Y-77000000D03*
%TO.P,C2,1*%
%TO.N,/T-center*%
X73500000Y-74500000D03*
D11*
%TO.P,C2,4*%
%TO.N,N/C*%
X78500000Y-74500000D03*
%TD*%
D10*
%TO.P,C3,1*%
%TO.N,/REF*%
X119000000Y-37500000D03*
%TO.P,C3,2*%
%TO.N,Earth*%
X124000000Y-37500000D03*
%TD*%
%TO.P,C5,2*%
%TO.N,Earth*%
X81000000Y-67000000D03*
%TO.P,C5,1*%
%TO.N,/T-center*%
X76000000Y-67000000D03*
%TD*%
D12*
%TO.P,D1,1*%
%TO.N,/REF*%
X107620000Y-37000000D03*
D13*
%TO.P,D1,2*%
%TO.N,/T1*%
X100000000Y-37000000D03*
%TD*%
%TO.P,D2,2*%
%TO.N,/T2*%
X100000000Y-77000000D03*
D12*
%TO.P,D2,1*%
%TO.N,/FORWARD*%
X107620000Y-77000000D03*
%TD*%
D14*
%TO.P,J3,1*%
%TO.N,/RF-IN*%
X155500000Y-57000000D03*
D15*
%TO.P,J3,2*%
%TO.N,Earth*%
X155500000Y-44500000D03*
%TO.P,J3,3*%
X155500000Y-69500000D03*
%TD*%
D16*
%TO.P,L2,3*%
%TO.N,/T2*%
X111000000Y-45500000D03*
%TO.P,L2,2*%
%TO.N,/T1*%
X111000000Y-68500000D03*
D17*
%TO.P,L2,1*%
%TO.N,/T-center*%
X111000000Y-57000000D03*
%TD*%
D18*
%TO.P,J4,1*%
%TO.N,/RF-OUT*%
X75500000Y-57000000D03*
%TD*%
%TO.P,J5,1*%
%TO.N,/RF-IN*%
X141000000Y-57000000D03*
%TD*%
D10*
%TO.P,C1,1*%
%TO.N,/RF-OUT*%
X68000000Y-62487500D03*
%TO.P,C1,2*%
%TO.N,/T-center*%
X68000000Y-69987500D03*
%TD*%
D19*
%TO.P,J2,1*%
%TO.N,/REF*%
X111912400Y-37048440D03*
%TD*%
%TO.P,J6,1*%
%TO.N,/FORWARD*%
X112000000Y-77000000D03*
%TD*%
D14*
%TO.P,J1,1*%
%TO.N,/RF-OUT*%
X56500000Y-57000000D03*
D15*
%TO.P,J1,2*%
%TO.N,Earth*%
X56500000Y-44500000D03*
%TO.P,J1,3*%
X56500000Y-69500000D03*
%TD*%
D20*
%TO.P,R2,1*%
%TO.N,/T2*%
X87500000Y-37000000D03*
D21*
%TO.P,R2,2*%
%TO.N,/T1*%
X92580000Y-37000000D03*
%TD*%
D18*
%TO.P,J7,1*%
%TO.N,Earth*%
X56000000Y-37000000D03*
%TD*%
%TO.P,J8,1*%
%TO.N,Earth*%
X56000000Y-77000000D03*
%TD*%
%TO.P,J9,1*%
%TO.N,Earth*%
X157000000Y-37000000D03*
%TD*%
%TO.P,J10,1*%
%TO.N,Earth*%
X157000000Y-77000000D03*
%TD*%
D22*
%TO.N,Earth*%
X152000000Y-44500000D02*
X155500000Y-44500000D01*
%TO.N,/FORWARD*%
X115500000Y-76000000D02*
X114500000Y-77000000D01*
X120000000Y-76000000D02*
X115500000Y-76000000D01*
X114500000Y-77000000D02*
X107620000Y-77000000D01*
%TO.N,/REF*%
X113212880Y-38348920D02*
X111912400Y-37048440D01*
X107668440Y-37048440D02*
X107620000Y-37000000D01*
X111912400Y-37048440D02*
X107668440Y-37048440D01*
X116848920Y-38348920D02*
X113212880Y-38348920D01*
X117500000Y-38348920D02*
X116848920Y-38348920D01*
X118151080Y-38348920D02*
X119000000Y-37500000D01*
X119000000Y-38348920D02*
X118151080Y-38348920D01*
X118151080Y-38348920D02*
X116848920Y-38348920D01*
D23*
%TO.N,/RF-OUT*%
X68000000Y-57000000D02*
X60500000Y-57000000D01*
X68000000Y-62487500D02*
X68000000Y-57000000D01*
X75500000Y-57000000D02*
X68000000Y-57000000D01*
X75500000Y-57000000D02*
X58525010Y-57000000D01*
D24*
%TO.N,/T-center*%
X76000000Y-67487500D02*
X76000000Y-67000000D01*
X73500000Y-69987500D02*
X76000000Y-67487500D01*
X73500000Y-69987500D02*
X73500000Y-74500000D01*
X68000000Y-69987500D02*
X73500000Y-69987500D01*
X85000000Y-69500000D02*
X86500000Y-71000000D01*
X78500000Y-69500000D02*
X85000000Y-69500000D01*
X76000000Y-67000000D02*
X78500000Y-69500000D01*
%TO.N,/T1*%
X111380000Y-42549600D02*
X112256300Y-42549600D01*
X112256300Y-42549600D02*
X113969300Y-44262600D01*
X113969300Y-44262600D02*
X113969300Y-48599300D01*
X113969300Y-48599300D02*
X108012200Y-54556400D01*
X108012200Y-54556400D02*
X108012200Y-65512200D01*
X108012200Y-65512200D02*
X111000000Y-68500000D01*
X96749600Y-42549600D02*
X95660000Y-41460000D01*
X111380000Y-42549600D02*
X96749600Y-42549600D01*
X95540000Y-41460000D02*
X92580000Y-38500000D01*
X95660000Y-41460000D02*
X95540000Y-41460000D01*
X95660000Y-41340000D02*
X95660000Y-41460000D01*
X100000000Y-37000000D02*
X95660000Y-41340000D01*
X92580000Y-38500000D02*
X92580000Y-37000000D01*
%TO.N,/T2*%
X87968718Y-37000000D02*
X87500000Y-37000000D01*
X95718328Y-44749610D02*
X87968718Y-37000000D01*
X107474873Y-44974873D02*
X107249610Y-44749610D01*
X108000000Y-44974873D02*
X107474873Y-44974873D01*
X108525127Y-45500000D02*
X108000000Y-44974873D01*
X111000000Y-45500000D02*
X108525127Y-45500000D01*
X100000000Y-45500000D02*
X99249610Y-44749610D01*
X100000000Y-77000000D02*
X100000000Y-45500000D01*
X99249610Y-44749610D02*
X95718328Y-44749610D01*
X107249610Y-44749610D02*
X99249610Y-44749610D01*
D23*
%TO.N,/RF-IN*%
X141000000Y-57000000D02*
X153974990Y-57000000D01*
%TD*%
D25*
%TO.N,Earth*%
G36*
X159340000Y-35032418D02*
G01*
X159340001Y-35032428D01*
X159340001Y-50384099D01*
X159000000Y-50350612D01*
X152000000Y-50350612D01*
X151092949Y-50439949D01*
X150220756Y-50704526D01*
X149905563Y-50873000D01*
X143263986Y-50873000D01*
X142903856Y-50723829D01*
X141642853Y-50473000D01*
X140357147Y-50473000D01*
X139096144Y-50723829D01*
X137908306Y-51215848D01*
X136839280Y-51930148D01*
X135930148Y-52839280D01*
X135215848Y-53908306D01*
X134723829Y-55096144D01*
X134473000Y-56357147D01*
X134473000Y-57642853D01*
X134723829Y-58903856D01*
X135215848Y-60091694D01*
X135930148Y-61160720D01*
X136839280Y-62069852D01*
X137908306Y-62784152D01*
X139096144Y-63276171D01*
X140357147Y-63527000D01*
X141642853Y-63527000D01*
X142903856Y-63276171D01*
X143263986Y-63127000D01*
X149905563Y-63127000D01*
X150220756Y-63295474D01*
X151092949Y-63560051D01*
X152000000Y-63649388D01*
X159000000Y-63649388D01*
X159340000Y-63615901D01*
X159340000Y-79340000D01*
X53160000Y-79340000D01*
X53160000Y-63649388D01*
X60000000Y-63649388D01*
X60907051Y-63560051D01*
X61779244Y-63295474D01*
X61915747Y-63222512D01*
X61961653Y-63688601D01*
X62312002Y-64843545D01*
X62880937Y-65907948D01*
X63646595Y-66840905D01*
X64579551Y-67606563D01*
X65643954Y-68175498D01*
X66798898Y-68525847D01*
X67187339Y-68564105D01*
X67158431Y-68583421D01*
X67087248Y-68621469D01*
X67024854Y-68672674D01*
X66957748Y-68717513D01*
X66900681Y-68774580D01*
X66838286Y-68825786D01*
X66787080Y-68888181D01*
X66730013Y-68945248D01*
X66685174Y-69012354D01*
X66633969Y-69074748D01*
X66595921Y-69145931D01*
X66551082Y-69213037D01*
X66520196Y-69287602D01*
X66482148Y-69358785D01*
X66458719Y-69436021D01*
X66427832Y-69510588D01*
X66412086Y-69589749D01*
X66388657Y-69666984D01*
X66380746Y-69747307D01*
X66365000Y-69826467D01*
X66365000Y-69907178D01*
X66357089Y-69987500D01*
X66365000Y-70067822D01*
X66365000Y-70148533D01*
X66380746Y-70227693D01*
X66388657Y-70308016D01*
X66412086Y-70385251D01*
X66427832Y-70464412D01*
X66458719Y-70538979D01*
X66482148Y-70616215D01*
X66520196Y-70687398D01*
X66551082Y-70761963D01*
X66595921Y-70829069D01*
X66633969Y-70900252D01*
X66685174Y-70962646D01*
X66730013Y-71029752D01*
X66787080Y-71086819D01*
X66838286Y-71149214D01*
X66900681Y-71200420D01*
X66957748Y-71257487D01*
X67024854Y-71302326D01*
X67087248Y-71353531D01*
X67158431Y-71391579D01*
X67225537Y-71436418D01*
X67300102Y-71467304D01*
X67371285Y-71505352D01*
X67448521Y-71528781D01*
X67523088Y-71559668D01*
X67602249Y-71575414D01*
X67679484Y-71598843D01*
X67759807Y-71606754D01*
X67838967Y-71622500D01*
X71865000Y-71622500D01*
X71865001Y-74338962D01*
X71865000Y-74338967D01*
X71865000Y-74661033D01*
X71880748Y-74740203D01*
X71888658Y-74820516D01*
X71912084Y-74897742D01*
X71927832Y-74976912D01*
X71958722Y-75051488D01*
X71982149Y-75128715D01*
X72020192Y-75199889D01*
X72051082Y-75274463D01*
X72095926Y-75341577D01*
X72133970Y-75412752D01*
X72185170Y-75475139D01*
X72230013Y-75542252D01*
X72287085Y-75599324D01*
X72338287Y-75661714D01*
X72400677Y-75712916D01*
X72457748Y-75769987D01*
X72524860Y-75814830D01*
X72587249Y-75866031D01*
X72658427Y-75904076D01*
X72725537Y-75948918D01*
X72800107Y-75979806D01*
X72871286Y-76017852D01*
X72948518Y-76041280D01*
X73023088Y-76072168D01*
X73102252Y-76087915D01*
X73179485Y-76111343D01*
X73259806Y-76119254D01*
X73338967Y-76135000D01*
X73419678Y-76135000D01*
X73500000Y-76142911D01*
X73580322Y-76135000D01*
X73661033Y-76135000D01*
X73740193Y-76119254D01*
X73820516Y-76111343D01*
X73897751Y-76087914D01*
X73976912Y-76072168D01*
X74051479Y-76041281D01*
X74128715Y-76017852D01*
X74199898Y-75979804D01*
X74274463Y-75948918D01*
X74341569Y-75904079D01*
X74412752Y-75866031D01*
X74475146Y-75814826D01*
X74542252Y-75769987D01*
X74599319Y-75712920D01*
X74661714Y-75661714D01*
X74712920Y-75599319D01*
X74769987Y-75542252D01*
X74814826Y-75475146D01*
X74866031Y-75412752D01*
X74904079Y-75341569D01*
X74948918Y-75274463D01*
X74979804Y-75199898D01*
X75017852Y-75128715D01*
X75041281Y-75051479D01*
X75072168Y-74976912D01*
X75087914Y-74897751D01*
X75111343Y-74820516D01*
X75119254Y-74740193D01*
X75135000Y-74661033D01*
X75135000Y-74240475D01*
X75865000Y-74240475D01*
X75865000Y-74759525D01*
X75966261Y-75268601D01*
X76164893Y-75748141D01*
X76453262Y-76179715D01*
X76820285Y-76546738D01*
X77251859Y-76835107D01*
X77731399Y-77033739D01*
X78240475Y-77135000D01*
X78759525Y-77135000D01*
X79268601Y-77033739D01*
X79365000Y-76993809D01*
X79365000Y-77161033D01*
X79427832Y-77476912D01*
X79551082Y-77774463D01*
X79730013Y-78042252D01*
X79957748Y-78269987D01*
X80225537Y-78448918D01*
X80523088Y-78572168D01*
X80838967Y-78635000D01*
X81161033Y-78635000D01*
X81476912Y-78572168D01*
X81774463Y-78448918D01*
X82042252Y-78269987D01*
X82269987Y-78042252D01*
X82448918Y-77774463D01*
X82572168Y-77476912D01*
X82635000Y-77161033D01*
X82635000Y-76838967D01*
X82572168Y-76523088D01*
X82448918Y-76225537D01*
X82269987Y-75957748D01*
X82042252Y-75730013D01*
X81774463Y-75551082D01*
X81476912Y-75427832D01*
X81161033Y-75365000D01*
X80993809Y-75365000D01*
X81033739Y-75268601D01*
X81135000Y-74759525D01*
X81135000Y-74240475D01*
X81033739Y-73731399D01*
X80835107Y-73251859D01*
X80546738Y-72820285D01*
X80179715Y-72453262D01*
X79748141Y-72164893D01*
X79268601Y-71966261D01*
X78759525Y-71865000D01*
X78240475Y-71865000D01*
X77731399Y-71966261D01*
X77251859Y-72164893D01*
X76820285Y-72453262D01*
X76453262Y-72820285D01*
X76164893Y-73251859D01*
X75966261Y-73731399D01*
X75865000Y-74240475D01*
X75135000Y-74240475D01*
X75135000Y-70664738D01*
X76243750Y-69555989D01*
X77287080Y-70599319D01*
X77338286Y-70661714D01*
X77587248Y-70866031D01*
X77871285Y-71017852D01*
X78179484Y-71111343D01*
X78419678Y-71135000D01*
X78419680Y-71135000D01*
X78500000Y-71142911D01*
X78580319Y-71135000D01*
X84322762Y-71135000D01*
X85230013Y-72042252D01*
X85457748Y-72269987D01*
X85524857Y-72314828D01*
X85587247Y-72366030D01*
X85658427Y-72404077D01*
X85725537Y-72448918D01*
X85800106Y-72479806D01*
X85871284Y-72517851D01*
X85948515Y-72541279D01*
X86023088Y-72572168D01*
X86102256Y-72587915D01*
X86179483Y-72611342D01*
X86259800Y-72619253D01*
X86338967Y-72635000D01*
X86419680Y-72635000D01*
X86499999Y-72642911D01*
X86580319Y-72635000D01*
X86661033Y-72635000D01*
X86740201Y-72619253D01*
X86820516Y-72611342D01*
X86897741Y-72587916D01*
X86976912Y-72572168D01*
X87051490Y-72541277D01*
X87128714Y-72517851D01*
X87199886Y-72479809D01*
X87274463Y-72448918D01*
X87341578Y-72404073D01*
X87412752Y-72366030D01*
X87475138Y-72314831D01*
X87542252Y-72269987D01*
X87599328Y-72212911D01*
X87661713Y-72161713D01*
X87712911Y-72099328D01*
X87769987Y-72042252D01*
X87814831Y-71975138D01*
X87866030Y-71912752D01*
X87904073Y-71841578D01*
X87948918Y-71774463D01*
X87979809Y-71699886D01*
X88017851Y-71628714D01*
X88041277Y-71551490D01*
X88072168Y-71476912D01*
X88087916Y-71397741D01*
X88111342Y-71320516D01*
X88119253Y-71240201D01*
X88135000Y-71161033D01*
X88135000Y-71080319D01*
X88142911Y-70999999D01*
X88135000Y-70919680D01*
X88135000Y-70838967D01*
X88119253Y-70759800D01*
X88117350Y-70740475D01*
X88865000Y-70740475D01*
X88865000Y-71259525D01*
X88966261Y-71768601D01*
X89164893Y-72248141D01*
X89453262Y-72679715D01*
X89820285Y-73046738D01*
X90251859Y-73335107D01*
X90731399Y-73533739D01*
X91240475Y-73635000D01*
X91759525Y-73635000D01*
X92268601Y-73533739D01*
X92748141Y-73335107D01*
X93179715Y-73046738D01*
X93546738Y-72679715D01*
X93835107Y-72248141D01*
X94033739Y-71768601D01*
X94135000Y-71259525D01*
X94135000Y-70740475D01*
X94033739Y-70231399D01*
X93835107Y-69751859D01*
X93546738Y-69320285D01*
X93179715Y-68953262D01*
X92748141Y-68664893D01*
X92268601Y-68466261D01*
X91759525Y-68365000D01*
X91240475Y-68365000D01*
X90731399Y-68466261D01*
X90251859Y-68664893D01*
X89820285Y-68953262D01*
X89453262Y-69320285D01*
X89164893Y-69751859D01*
X88966261Y-70231399D01*
X88865000Y-70740475D01*
X88117350Y-70740475D01*
X88111342Y-70679483D01*
X88087915Y-70602256D01*
X88072168Y-70523088D01*
X88041279Y-70448515D01*
X88017851Y-70371284D01*
X87979806Y-70300106D01*
X87948918Y-70225537D01*
X87904077Y-70158427D01*
X87866030Y-70087247D01*
X87814828Y-70024857D01*
X87769987Y-69957748D01*
X86212925Y-68400686D01*
X86161714Y-68338286D01*
X85912752Y-68133969D01*
X85628715Y-67982148D01*
X85320516Y-67888657D01*
X85080322Y-67865000D01*
X85080319Y-67865000D01*
X85000000Y-67857089D01*
X84919681Y-67865000D01*
X79177239Y-67865000D01*
X77269989Y-65957751D01*
X77269987Y-65957748D01*
X77212920Y-65900681D01*
X77162273Y-65838967D01*
X94865000Y-65838967D01*
X94865000Y-66161033D01*
X94927832Y-66476912D01*
X95051082Y-66774463D01*
X95230013Y-67042252D01*
X95457748Y-67269987D01*
X95725537Y-67448918D01*
X96023088Y-67572168D01*
X96338967Y-67635000D01*
X96661033Y-67635000D01*
X96976912Y-67572168D01*
X97274463Y-67448918D01*
X97542252Y-67269987D01*
X97769987Y-67042252D01*
X97948918Y-66774463D01*
X98072168Y-66476912D01*
X98135000Y-66161033D01*
X98135000Y-65838967D01*
X98072168Y-65523088D01*
X97948918Y-65225537D01*
X97769987Y-64957748D01*
X97542252Y-64730013D01*
X97274463Y-64551082D01*
X96976912Y-64427832D01*
X96661033Y-64365000D01*
X96338967Y-64365000D01*
X96023088Y-64427832D01*
X95725537Y-64551082D01*
X95457748Y-64730013D01*
X95230013Y-64957748D01*
X95051082Y-65225537D01*
X94927832Y-65523088D01*
X94865000Y-65838967D01*
X77162273Y-65838967D01*
X77161714Y-65838286D01*
X77099319Y-65787080D01*
X77042252Y-65730013D01*
X76975146Y-65685174D01*
X76912752Y-65633969D01*
X76841569Y-65595921D01*
X76774463Y-65551082D01*
X76699898Y-65520196D01*
X76628715Y-65482148D01*
X76551479Y-65458719D01*
X76476912Y-65427832D01*
X76397751Y-65412086D01*
X76320516Y-65388657D01*
X76240193Y-65380746D01*
X76161033Y-65365000D01*
X76080322Y-65365000D01*
X76000000Y-65357089D01*
X75919678Y-65365000D01*
X75838967Y-65365000D01*
X75759806Y-65380746D01*
X75679485Y-65388657D01*
X75602252Y-65412085D01*
X75523088Y-65427832D01*
X75448518Y-65458720D01*
X75371286Y-65482148D01*
X75300107Y-65520194D01*
X75225537Y-65551082D01*
X75158427Y-65595924D01*
X75087249Y-65633969D01*
X75024858Y-65685171D01*
X74957748Y-65730013D01*
X74900680Y-65787081D01*
X74838286Y-65838286D01*
X74787080Y-65900681D01*
X74730013Y-65957748D01*
X74685174Y-66024854D01*
X74633969Y-66087248D01*
X74595921Y-66158431D01*
X74551082Y-66225537D01*
X74520196Y-66300102D01*
X74482148Y-66371285D01*
X74458719Y-66448521D01*
X74427832Y-66523088D01*
X74412086Y-66602249D01*
X74388657Y-66679484D01*
X74380746Y-66759807D01*
X74372128Y-66803134D01*
X72822762Y-68352500D01*
X69772549Y-68352500D01*
X70356045Y-68175498D01*
X71420448Y-67606563D01*
X72353405Y-66840905D01*
X73119063Y-65907949D01*
X73687998Y-64843546D01*
X74038347Y-63688602D01*
X74069691Y-63370365D01*
X74857147Y-63527000D01*
X76142853Y-63527000D01*
X77403856Y-63276171D01*
X78591694Y-62784152D01*
X79660720Y-62069852D01*
X80569852Y-61160720D01*
X81284152Y-60091694D01*
X81776171Y-58903856D01*
X82027000Y-57642853D01*
X82027000Y-56357147D01*
X81776171Y-55096144D01*
X81284152Y-53908306D01*
X80569852Y-52839280D01*
X79660720Y-51930148D01*
X78591694Y-51215848D01*
X77403856Y-50723829D01*
X76142853Y-50473000D01*
X74857147Y-50473000D01*
X73596144Y-50723829D01*
X73236014Y-50873000D01*
X68300991Y-50873000D01*
X68000000Y-50843355D01*
X67699009Y-50873000D01*
X62094437Y-50873000D01*
X61779244Y-50704526D01*
X60907051Y-50439949D01*
X60000000Y-50350612D01*
X53160000Y-50350612D01*
X53160000Y-37000000D01*
X85857089Y-37000000D01*
X85861928Y-37049131D01*
X85861928Y-38000000D01*
X85874188Y-38124482D01*
X85910498Y-38244180D01*
X85969463Y-38354494D01*
X86048815Y-38451185D01*
X86145506Y-38530537D01*
X86255820Y-38589502D01*
X86375518Y-38625812D01*
X86500000Y-38638072D01*
X87294552Y-38638072D01*
X94505411Y-45848933D01*
X94556614Y-45911324D01*
X94805576Y-46115641D01*
X94955317Y-46195679D01*
X95089613Y-46267462D01*
X95397811Y-46360953D01*
X95718328Y-46392522D01*
X95798658Y-46384610D01*
X98365001Y-46384610D01*
X98365000Y-77080321D01*
X98388657Y-77320515D01*
X98482148Y-77628714D01*
X98633969Y-77912751D01*
X98838286Y-78161714D01*
X99087248Y-78366031D01*
X99371285Y-78517852D01*
X99679484Y-78611343D01*
X100000000Y-78642911D01*
X100320515Y-78611343D01*
X100628714Y-78517852D01*
X100912751Y-78366031D01*
X101161714Y-78161714D01*
X101366031Y-77912752D01*
X101517852Y-77628715D01*
X101611343Y-77320516D01*
X101635000Y-77080322D01*
X101635000Y-76200000D01*
X106181928Y-76200000D01*
X106181928Y-77800000D01*
X106194188Y-77924482D01*
X106230498Y-78044180D01*
X106289463Y-78154494D01*
X106368815Y-78251185D01*
X106465506Y-78330537D01*
X106575820Y-78389502D01*
X106695518Y-78425812D01*
X106820000Y-78438072D01*
X108420000Y-78438072D01*
X108544482Y-78425812D01*
X108664180Y-78389502D01*
X108774494Y-78330537D01*
X108871185Y-78251185D01*
X108950537Y-78154494D01*
X109009502Y-78044180D01*
X109045812Y-77924482D01*
X109058072Y-77800000D01*
X109058072Y-77760000D01*
X111034043Y-77760000D01*
X111044463Y-77779494D01*
X111123815Y-77876185D01*
X111220506Y-77955537D01*
X111330820Y-78014502D01*
X111450518Y-78050812D01*
X111575000Y-78063072D01*
X112425000Y-78063072D01*
X112549482Y-78050812D01*
X112669180Y-78014502D01*
X112779494Y-77955537D01*
X112876185Y-77876185D01*
X112955537Y-77779494D01*
X112965957Y-77760000D01*
X114462678Y-77760000D01*
X114500000Y-77763676D01*
X114537322Y-77760000D01*
X114537333Y-77760000D01*
X114648986Y-77749003D01*
X114792247Y-77705546D01*
X114924276Y-77634974D01*
X115040001Y-77540001D01*
X115063804Y-77510998D01*
X115814802Y-76760000D01*
X118045091Y-76760000D01*
X118051082Y-76774463D01*
X118230013Y-77042252D01*
X118457748Y-77269987D01*
X118725537Y-77448918D01*
X119023088Y-77572168D01*
X119338967Y-77635000D01*
X119661033Y-77635000D01*
X119976912Y-77572168D01*
X120274463Y-77448918D01*
X120542252Y-77269987D01*
X120769987Y-77042252D01*
X120948918Y-76774463D01*
X121072168Y-76476912D01*
X121135000Y-76161033D01*
X121135000Y-75838967D01*
X121072168Y-75523088D01*
X120948918Y-75225537D01*
X120769987Y-74957748D01*
X120542252Y-74730013D01*
X120274463Y-74551082D01*
X119976912Y-74427832D01*
X119661033Y-74365000D01*
X119338967Y-74365000D01*
X119023088Y-74427832D01*
X118725537Y-74551082D01*
X118457748Y-74730013D01*
X118230013Y-74957748D01*
X118051082Y-75225537D01*
X118045091Y-75240000D01*
X115537333Y-75240000D01*
X115500000Y-75236323D01*
X115462667Y-75240000D01*
X115351014Y-75250997D01*
X115207753Y-75294454D01*
X115075724Y-75365026D01*
X114959999Y-75459999D01*
X114936201Y-75488997D01*
X114185199Y-76240000D01*
X112965957Y-76240000D01*
X112955537Y-76220506D01*
X112876185Y-76123815D01*
X112779494Y-76044463D01*
X112669180Y-75985498D01*
X112549482Y-75949188D01*
X112425000Y-75936928D01*
X111575000Y-75936928D01*
X111450518Y-75949188D01*
X111330820Y-75985498D01*
X111220506Y-76044463D01*
X111123815Y-76123815D01*
X111044463Y-76220506D01*
X111034043Y-76240000D01*
X109058072Y-76240000D01*
X109058072Y-76200000D01*
X109045812Y-76075518D01*
X109009502Y-75955820D01*
X108950537Y-75845506D01*
X108871185Y-75748815D01*
X108774494Y-75669463D01*
X108664180Y-75610498D01*
X108544482Y-75574188D01*
X108420000Y-75561928D01*
X106820000Y-75561928D01*
X106695518Y-75574188D01*
X106575820Y-75610498D01*
X106465506Y-75669463D01*
X106368815Y-75748815D01*
X106289463Y-75845506D01*
X106230498Y-75955820D01*
X106194188Y-76075518D01*
X106181928Y-76200000D01*
X101635000Y-76200000D01*
X101635000Y-46384610D01*
X106643889Y-46384610D01*
X106846158Y-46492725D01*
X107154357Y-46586216D01*
X107314389Y-46601978D01*
X107363413Y-46661714D01*
X107612375Y-46866031D01*
X107896412Y-47017852D01*
X107904644Y-47020349D01*
X108204610Y-47111343D01*
X108525127Y-47142911D01*
X108605449Y-47135000D01*
X109262101Y-47135000D01*
X109479651Y-47352550D01*
X109870279Y-47613560D01*
X110304321Y-47793346D01*
X110765098Y-47885000D01*
X111234902Y-47885000D01*
X111695679Y-47793346D01*
X112129721Y-47613560D01*
X112334301Y-47476864D01*
X112334301Y-47922059D01*
X106912887Y-53343475D01*
X106850486Y-53394686D01*
X106646169Y-53643649D01*
X106494348Y-53927686D01*
X106400857Y-54235885D01*
X106382866Y-54418554D01*
X106369289Y-54556400D01*
X106377200Y-54636720D01*
X106377201Y-65431871D01*
X106369289Y-65512200D01*
X106400858Y-65832716D01*
X106494348Y-66140914D01*
X106494349Y-66140915D01*
X106646170Y-66424952D01*
X106850487Y-66673914D01*
X106912882Y-66725120D01*
X108615000Y-68427239D01*
X108615000Y-68734902D01*
X108706654Y-69195679D01*
X108886440Y-69629721D01*
X109147450Y-70020349D01*
X109479651Y-70352550D01*
X109870279Y-70613560D01*
X110304321Y-70793346D01*
X110765098Y-70885000D01*
X111234902Y-70885000D01*
X111695679Y-70793346D01*
X112129721Y-70613560D01*
X112520349Y-70352550D01*
X112852550Y-70020349D01*
X113113560Y-69629721D01*
X113293346Y-69195679D01*
X113385000Y-68734902D01*
X113385000Y-68265098D01*
X113293346Y-67804321D01*
X113113560Y-67370279D01*
X112852550Y-66979651D01*
X112520349Y-66647450D01*
X112129721Y-66386440D01*
X111695679Y-66206654D01*
X111234902Y-66115000D01*
X110927239Y-66115000D01*
X109647200Y-64834962D01*
X109647200Y-60225123D01*
X109668555Y-60242649D01*
X110082885Y-60464113D01*
X110532459Y-60600490D01*
X111000000Y-60646539D01*
X111467542Y-60600490D01*
X111917116Y-60464113D01*
X112331446Y-60242649D01*
X112694609Y-59944609D01*
X112992649Y-59581446D01*
X113214113Y-59167116D01*
X113350490Y-58717542D01*
X113385000Y-58367157D01*
X113385000Y-55632843D01*
X113350490Y-55282458D01*
X113214113Y-54832884D01*
X112992649Y-54418554D01*
X112694609Y-54055391D01*
X112331445Y-53757351D01*
X111917115Y-53535887D01*
X111478120Y-53402719D01*
X115068624Y-49812216D01*
X115131014Y-49761014D01*
X115335331Y-49512052D01*
X115487152Y-49228015D01*
X115580643Y-48919816D01*
X115604300Y-48679622D01*
X115612211Y-48599300D01*
X115604300Y-48518978D01*
X115604300Y-44342922D01*
X115612211Y-44262600D01*
X115580643Y-43942083D01*
X115487152Y-43633885D01*
X115435203Y-43536695D01*
X115335331Y-43349848D01*
X115131014Y-43100886D01*
X115068620Y-43049681D01*
X113469225Y-41450286D01*
X113418014Y-41387886D01*
X113169052Y-41183569D01*
X112885015Y-41031748D01*
X112576816Y-40938257D01*
X112336622Y-40914600D01*
X112336619Y-40914600D01*
X112256300Y-40906689D01*
X112175981Y-40914600D01*
X98397638Y-40914600D01*
X101212915Y-38099324D01*
X101366030Y-37912753D01*
X101517852Y-37628715D01*
X101611343Y-37320517D01*
X101642911Y-37000000D01*
X101611343Y-36679484D01*
X101517852Y-36371286D01*
X101426298Y-36200000D01*
X106181928Y-36200000D01*
X106181928Y-37800000D01*
X106194188Y-37924482D01*
X106230498Y-38044180D01*
X106289463Y-38154494D01*
X106368815Y-38251185D01*
X106465506Y-38330537D01*
X106575820Y-38389502D01*
X106695518Y-38425812D01*
X106820000Y-38438072D01*
X108420000Y-38438072D01*
X108544482Y-38425812D01*
X108664180Y-38389502D01*
X108774494Y-38330537D01*
X108871185Y-38251185D01*
X108950537Y-38154494D01*
X109009502Y-38044180D01*
X109045812Y-37924482D01*
X109057241Y-37808440D01*
X110946443Y-37808440D01*
X110956863Y-37827934D01*
X111036215Y-37924625D01*
X111132906Y-38003977D01*
X111243220Y-38062942D01*
X111362918Y-38099252D01*
X111487400Y-38111512D01*
X111900670Y-38111512D01*
X112649085Y-38859928D01*
X112672879Y-38888921D01*
X112701872Y-38912715D01*
X112701876Y-38912719D01*
X112772565Y-38970731D01*
X112788604Y-38983894D01*
X112920633Y-39054466D01*
X113063894Y-39097923D01*
X113175547Y-39108920D01*
X113175556Y-39108920D01*
X113212879Y-39112596D01*
X113250202Y-39108920D01*
X118113758Y-39108920D01*
X118151080Y-39112596D01*
X118188402Y-39108920D01*
X118707853Y-39108920D01*
X118838967Y-39135000D01*
X119161033Y-39135000D01*
X119476912Y-39072168D01*
X119774463Y-38948918D01*
X120042252Y-38769987D01*
X120269987Y-38542252D01*
X120448918Y-38274463D01*
X120572168Y-37976912D01*
X120635000Y-37661033D01*
X120635000Y-37338967D01*
X120572168Y-37023088D01*
X120448918Y-36725537D01*
X120269987Y-36457748D01*
X120042252Y-36230013D01*
X119774463Y-36051082D01*
X119476912Y-35927832D01*
X119161033Y-35865000D01*
X118838967Y-35865000D01*
X118523088Y-35927832D01*
X118225537Y-36051082D01*
X117957748Y-36230013D01*
X117730013Y-36457748D01*
X117551082Y-36725537D01*
X117427832Y-37023088D01*
X117365000Y-37338967D01*
X117365000Y-37588920D01*
X113527683Y-37588920D01*
X112975472Y-37036710D01*
X112975472Y-36623440D01*
X112963212Y-36498958D01*
X112926902Y-36379260D01*
X112867937Y-36268946D01*
X112788585Y-36172255D01*
X112691894Y-36092903D01*
X112581580Y-36033938D01*
X112461882Y-35997628D01*
X112337400Y-35985368D01*
X111487400Y-35985368D01*
X111362918Y-35997628D01*
X111243220Y-36033938D01*
X111132906Y-36092903D01*
X111036215Y-36172255D01*
X110956863Y-36268946D01*
X110946443Y-36288440D01*
X109058072Y-36288440D01*
X109058072Y-36200000D01*
X109045812Y-36075518D01*
X109009502Y-35955820D01*
X108950537Y-35845506D01*
X108871185Y-35748815D01*
X108774494Y-35669463D01*
X108664180Y-35610498D01*
X108544482Y-35574188D01*
X108420000Y-35561928D01*
X106820000Y-35561928D01*
X106695518Y-35574188D01*
X106575820Y-35610498D01*
X106465506Y-35669463D01*
X106368815Y-35748815D01*
X106289463Y-35845506D01*
X106230498Y-35955820D01*
X106194188Y-36075518D01*
X106181928Y-36200000D01*
X101426298Y-36200000D01*
X101366030Y-36087248D01*
X101161713Y-35838287D01*
X100912752Y-35633970D01*
X100628714Y-35482148D01*
X100320516Y-35388657D01*
X100000000Y-35357089D01*
X99679483Y-35388657D01*
X99371285Y-35482148D01*
X99087247Y-35633970D01*
X98900676Y-35787085D01*
X95540000Y-39147762D01*
X94215000Y-37822762D01*
X94215000Y-36838967D01*
X94199254Y-36759807D01*
X94191343Y-36679484D01*
X94167914Y-36602249D01*
X94152168Y-36523088D01*
X94121281Y-36448521D01*
X94097852Y-36371285D01*
X94059804Y-36300102D01*
X94028918Y-36225537D01*
X93984079Y-36158431D01*
X93946031Y-36087248D01*
X93894826Y-36024854D01*
X93849987Y-35957748D01*
X93792920Y-35900681D01*
X93741714Y-35838286D01*
X93679319Y-35787080D01*
X93622252Y-35730013D01*
X93555146Y-35685174D01*
X93492752Y-35633969D01*
X93421569Y-35595921D01*
X93354463Y-35551082D01*
X93279898Y-35520196D01*
X93208715Y-35482148D01*
X93131479Y-35458719D01*
X93056912Y-35427832D01*
X92977751Y-35412086D01*
X92900516Y-35388657D01*
X92820193Y-35380746D01*
X92741033Y-35365000D01*
X92660322Y-35365000D01*
X92580000Y-35357089D01*
X92499678Y-35365000D01*
X92418967Y-35365000D01*
X92339806Y-35380746D01*
X92259485Y-35388657D01*
X92182252Y-35412085D01*
X92103088Y-35427832D01*
X92028518Y-35458720D01*
X91951286Y-35482148D01*
X91880107Y-35520194D01*
X91805537Y-35551082D01*
X91738427Y-35595924D01*
X91667249Y-35633969D01*
X91604860Y-35685170D01*
X91537748Y-35730013D01*
X91480677Y-35787084D01*
X91418287Y-35838286D01*
X91367085Y-35900676D01*
X91310013Y-35957748D01*
X91265170Y-36024861D01*
X91213970Y-36087248D01*
X91175926Y-36158423D01*
X91131082Y-36225537D01*
X91100192Y-36300111D01*
X91062149Y-36371285D01*
X91038722Y-36448514D01*
X91007832Y-36523088D01*
X90992086Y-36602251D01*
X90968657Y-36679484D01*
X90960746Y-36759807D01*
X90945000Y-36838967D01*
X90945000Y-37664044D01*
X89181643Y-35900687D01*
X89130432Y-35838286D01*
X89109243Y-35820896D01*
X89089502Y-35755820D01*
X89030537Y-35645506D01*
X88951185Y-35548815D01*
X88854494Y-35469463D01*
X88744180Y-35410498D01*
X88624482Y-35374188D01*
X88500000Y-35361928D01*
X88017848Y-35361928D01*
X87968718Y-35357089D01*
X87919588Y-35361928D01*
X86500000Y-35361928D01*
X86375518Y-35374188D01*
X86255820Y-35410498D01*
X86145506Y-35469463D01*
X86048815Y-35548815D01*
X85969463Y-35645506D01*
X85910498Y-35755820D01*
X85874188Y-35875518D01*
X85861928Y-36000000D01*
X85861928Y-36950869D01*
X85857089Y-37000000D01*
X53160000Y-37000000D01*
X53160000Y-34660000D01*
X159340000Y-34660000D01*
X159340000Y-35032418D01*
G37*
X159340000Y-35032418D02*
X159340001Y-35032428D01*
X159340001Y-50384099D01*
X159000000Y-50350612D01*
X152000000Y-50350612D01*
X151092949Y-50439949D01*
X150220756Y-50704526D01*
X149905563Y-50873000D01*
X143263986Y-50873000D01*
X142903856Y-50723829D01*
X141642853Y-50473000D01*
X140357147Y-50473000D01*
X139096144Y-50723829D01*
X137908306Y-51215848D01*
X136839280Y-51930148D01*
X135930148Y-52839280D01*
X135215848Y-53908306D01*
X134723829Y-55096144D01*
X134473000Y-56357147D01*
X134473000Y-57642853D01*
X134723829Y-58903856D01*
X135215848Y-60091694D01*
X135930148Y-61160720D01*
X136839280Y-62069852D01*
X137908306Y-62784152D01*
X139096144Y-63276171D01*
X140357147Y-63527000D01*
X141642853Y-63527000D01*
X142903856Y-63276171D01*
X143263986Y-63127000D01*
X149905563Y-63127000D01*
X150220756Y-63295474D01*
X151092949Y-63560051D01*
X152000000Y-63649388D01*
X159000000Y-63649388D01*
X159340000Y-63615901D01*
X159340000Y-79340000D01*
X53160000Y-79340000D01*
X53160000Y-63649388D01*
X60000000Y-63649388D01*
X60907051Y-63560051D01*
X61779244Y-63295474D01*
X61915747Y-63222512D01*
X61961653Y-63688601D01*
X62312002Y-64843545D01*
X62880937Y-65907948D01*
X63646595Y-66840905D01*
X64579551Y-67606563D01*
X65643954Y-68175498D01*
X66798898Y-68525847D01*
X67187339Y-68564105D01*
X67158431Y-68583421D01*
X67087248Y-68621469D01*
X67024854Y-68672674D01*
X66957748Y-68717513D01*
X66900681Y-68774580D01*
X66838286Y-68825786D01*
X66787080Y-68888181D01*
X66730013Y-68945248D01*
X66685174Y-69012354D01*
X66633969Y-69074748D01*
X66595921Y-69145931D01*
X66551082Y-69213037D01*
X66520196Y-69287602D01*
X66482148Y-69358785D01*
X66458719Y-69436021D01*
X66427832Y-69510588D01*
X66412086Y-69589749D01*
X66388657Y-69666984D01*
X66380746Y-69747307D01*
X66365000Y-69826467D01*
X66365000Y-69907178D01*
X66357089Y-69987500D01*
X66365000Y-70067822D01*
X66365000Y-70148533D01*
X66380746Y-70227693D01*
X66388657Y-70308016D01*
X66412086Y-70385251D01*
X66427832Y-70464412D01*
X66458719Y-70538979D01*
X66482148Y-70616215D01*
X66520196Y-70687398D01*
X66551082Y-70761963D01*
X66595921Y-70829069D01*
X66633969Y-70900252D01*
X66685174Y-70962646D01*
X66730013Y-71029752D01*
X66787080Y-71086819D01*
X66838286Y-71149214D01*
X66900681Y-71200420D01*
X66957748Y-71257487D01*
X67024854Y-71302326D01*
X67087248Y-71353531D01*
X67158431Y-71391579D01*
X67225537Y-71436418D01*
X67300102Y-71467304D01*
X67371285Y-71505352D01*
X67448521Y-71528781D01*
X67523088Y-71559668D01*
X67602249Y-71575414D01*
X67679484Y-71598843D01*
X67759807Y-71606754D01*
X67838967Y-71622500D01*
X71865000Y-71622500D01*
X71865001Y-74338962D01*
X71865000Y-74338967D01*
X71865000Y-74661033D01*
X71880748Y-74740203D01*
X71888658Y-74820516D01*
X71912084Y-74897742D01*
X71927832Y-74976912D01*
X71958722Y-75051488D01*
X71982149Y-75128715D01*
X72020192Y-75199889D01*
X72051082Y-75274463D01*
X72095926Y-75341577D01*
X72133970Y-75412752D01*
X72185170Y-75475139D01*
X72230013Y-75542252D01*
X72287085Y-75599324D01*
X72338287Y-75661714D01*
X72400677Y-75712916D01*
X72457748Y-75769987D01*
X72524860Y-75814830D01*
X72587249Y-75866031D01*
X72658427Y-75904076D01*
X72725537Y-75948918D01*
X72800107Y-75979806D01*
X72871286Y-76017852D01*
X72948518Y-76041280D01*
X73023088Y-76072168D01*
X73102252Y-76087915D01*
X73179485Y-76111343D01*
X73259806Y-76119254D01*
X73338967Y-76135000D01*
X73419678Y-76135000D01*
X73500000Y-76142911D01*
X73580322Y-76135000D01*
X73661033Y-76135000D01*
X73740193Y-76119254D01*
X73820516Y-76111343D01*
X73897751Y-76087914D01*
X73976912Y-76072168D01*
X74051479Y-76041281D01*
X74128715Y-76017852D01*
X74199898Y-75979804D01*
X74274463Y-75948918D01*
X74341569Y-75904079D01*
X74412752Y-75866031D01*
X74475146Y-75814826D01*
X74542252Y-75769987D01*
X74599319Y-75712920D01*
X74661714Y-75661714D01*
X74712920Y-75599319D01*
X74769987Y-75542252D01*
X74814826Y-75475146D01*
X74866031Y-75412752D01*
X74904079Y-75341569D01*
X74948918Y-75274463D01*
X74979804Y-75199898D01*
X75017852Y-75128715D01*
X75041281Y-75051479D01*
X75072168Y-74976912D01*
X75087914Y-74897751D01*
X75111343Y-74820516D01*
X75119254Y-74740193D01*
X75135000Y-74661033D01*
X75135000Y-74240475D01*
X75865000Y-74240475D01*
X75865000Y-74759525D01*
X75966261Y-75268601D01*
X76164893Y-75748141D01*
X76453262Y-76179715D01*
X76820285Y-76546738D01*
X77251859Y-76835107D01*
X77731399Y-77033739D01*
X78240475Y-77135000D01*
X78759525Y-77135000D01*
X79268601Y-77033739D01*
X79365000Y-76993809D01*
X79365000Y-77161033D01*
X79427832Y-77476912D01*
X79551082Y-77774463D01*
X79730013Y-78042252D01*
X79957748Y-78269987D01*
X80225537Y-78448918D01*
X80523088Y-78572168D01*
X80838967Y-78635000D01*
X81161033Y-78635000D01*
X81476912Y-78572168D01*
X81774463Y-78448918D01*
X82042252Y-78269987D01*
X82269987Y-78042252D01*
X82448918Y-77774463D01*
X82572168Y-77476912D01*
X82635000Y-77161033D01*
X82635000Y-76838967D01*
X82572168Y-76523088D01*
X82448918Y-76225537D01*
X82269987Y-75957748D01*
X82042252Y-75730013D01*
X81774463Y-75551082D01*
X81476912Y-75427832D01*
X81161033Y-75365000D01*
X80993809Y-75365000D01*
X81033739Y-75268601D01*
X81135000Y-74759525D01*
X81135000Y-74240475D01*
X81033739Y-73731399D01*
X80835107Y-73251859D01*
X80546738Y-72820285D01*
X80179715Y-72453262D01*
X79748141Y-72164893D01*
X79268601Y-71966261D01*
X78759525Y-71865000D01*
X78240475Y-71865000D01*
X77731399Y-71966261D01*
X77251859Y-72164893D01*
X76820285Y-72453262D01*
X76453262Y-72820285D01*
X76164893Y-73251859D01*
X75966261Y-73731399D01*
X75865000Y-74240475D01*
X75135000Y-74240475D01*
X75135000Y-70664738D01*
X76243750Y-69555989D01*
X77287080Y-70599319D01*
X77338286Y-70661714D01*
X77587248Y-70866031D01*
X77871285Y-71017852D01*
X78179484Y-71111343D01*
X78419678Y-71135000D01*
X78419680Y-71135000D01*
X78500000Y-71142911D01*
X78580319Y-71135000D01*
X84322762Y-71135000D01*
X85230013Y-72042252D01*
X85457748Y-72269987D01*
X85524857Y-72314828D01*
X85587247Y-72366030D01*
X85658427Y-72404077D01*
X85725537Y-72448918D01*
X85800106Y-72479806D01*
X85871284Y-72517851D01*
X85948515Y-72541279D01*
X86023088Y-72572168D01*
X86102256Y-72587915D01*
X86179483Y-72611342D01*
X86259800Y-72619253D01*
X86338967Y-72635000D01*
X86419680Y-72635000D01*
X86499999Y-72642911D01*
X86580319Y-72635000D01*
X86661033Y-72635000D01*
X86740201Y-72619253D01*
X86820516Y-72611342D01*
X86897741Y-72587916D01*
X86976912Y-72572168D01*
X87051490Y-72541277D01*
X87128714Y-72517851D01*
X87199886Y-72479809D01*
X87274463Y-72448918D01*
X87341578Y-72404073D01*
X87412752Y-72366030D01*
X87475138Y-72314831D01*
X87542252Y-72269987D01*
X87599328Y-72212911D01*
X87661713Y-72161713D01*
X87712911Y-72099328D01*
X87769987Y-72042252D01*
X87814831Y-71975138D01*
X87866030Y-71912752D01*
X87904073Y-71841578D01*
X87948918Y-71774463D01*
X87979809Y-71699886D01*
X88017851Y-71628714D01*
X88041277Y-71551490D01*
X88072168Y-71476912D01*
X88087916Y-71397741D01*
X88111342Y-71320516D01*
X88119253Y-71240201D01*
X88135000Y-71161033D01*
X88135000Y-71080319D01*
X88142911Y-70999999D01*
X88135000Y-70919680D01*
X88135000Y-70838967D01*
X88119253Y-70759800D01*
X88117350Y-70740475D01*
X88865000Y-70740475D01*
X88865000Y-71259525D01*
X88966261Y-71768601D01*
X89164893Y-72248141D01*
X89453262Y-72679715D01*
X89820285Y-73046738D01*
X90251859Y-73335107D01*
X90731399Y-73533739D01*
X91240475Y-73635000D01*
X91759525Y-73635000D01*
X92268601Y-73533739D01*
X92748141Y-73335107D01*
X93179715Y-73046738D01*
X93546738Y-72679715D01*
X93835107Y-72248141D01*
X94033739Y-71768601D01*
X94135000Y-71259525D01*
X94135000Y-70740475D01*
X94033739Y-70231399D01*
X93835107Y-69751859D01*
X93546738Y-69320285D01*
X93179715Y-68953262D01*
X92748141Y-68664893D01*
X92268601Y-68466261D01*
X91759525Y-68365000D01*
X91240475Y-68365000D01*
X90731399Y-68466261D01*
X90251859Y-68664893D01*
X89820285Y-68953262D01*
X89453262Y-69320285D01*
X89164893Y-69751859D01*
X88966261Y-70231399D01*
X88865000Y-70740475D01*
X88117350Y-70740475D01*
X88111342Y-70679483D01*
X88087915Y-70602256D01*
X88072168Y-70523088D01*
X88041279Y-70448515D01*
X88017851Y-70371284D01*
X87979806Y-70300106D01*
X87948918Y-70225537D01*
X87904077Y-70158427D01*
X87866030Y-70087247D01*
X87814828Y-70024857D01*
X87769987Y-69957748D01*
X86212925Y-68400686D01*
X86161714Y-68338286D01*
X85912752Y-68133969D01*
X85628715Y-67982148D01*
X85320516Y-67888657D01*
X85080322Y-67865000D01*
X85080319Y-67865000D01*
X85000000Y-67857089D01*
X84919681Y-67865000D01*
X79177239Y-67865000D01*
X77269989Y-65957751D01*
X77269987Y-65957748D01*
X77212920Y-65900681D01*
X77162273Y-65838967D01*
X94865000Y-65838967D01*
X94865000Y-66161033D01*
X94927832Y-66476912D01*
X95051082Y-66774463D01*
X95230013Y-67042252D01*
X95457748Y-67269987D01*
X95725537Y-67448918D01*
X96023088Y-67572168D01*
X96338967Y-67635000D01*
X96661033Y-67635000D01*
X96976912Y-67572168D01*
X97274463Y-67448918D01*
X97542252Y-67269987D01*
X97769987Y-67042252D01*
X97948918Y-66774463D01*
X98072168Y-66476912D01*
X98135000Y-66161033D01*
X98135000Y-65838967D01*
X98072168Y-65523088D01*
X97948918Y-65225537D01*
X97769987Y-64957748D01*
X97542252Y-64730013D01*
X97274463Y-64551082D01*
X96976912Y-64427832D01*
X96661033Y-64365000D01*
X96338967Y-64365000D01*
X96023088Y-64427832D01*
X95725537Y-64551082D01*
X95457748Y-64730013D01*
X95230013Y-64957748D01*
X95051082Y-65225537D01*
X94927832Y-65523088D01*
X94865000Y-65838967D01*
X77162273Y-65838967D01*
X77161714Y-65838286D01*
X77099319Y-65787080D01*
X77042252Y-65730013D01*
X76975146Y-65685174D01*
X76912752Y-65633969D01*
X76841569Y-65595921D01*
X76774463Y-65551082D01*
X76699898Y-65520196D01*
X76628715Y-65482148D01*
X76551479Y-65458719D01*
X76476912Y-65427832D01*
X76397751Y-65412086D01*
X76320516Y-65388657D01*
X76240193Y-65380746D01*
X76161033Y-65365000D01*
X76080322Y-65365000D01*
X76000000Y-65357089D01*
X75919678Y-65365000D01*
X75838967Y-65365000D01*
X75759806Y-65380746D01*
X75679485Y-65388657D01*
X75602252Y-65412085D01*
X75523088Y-65427832D01*
X75448518Y-65458720D01*
X75371286Y-65482148D01*
X75300107Y-65520194D01*
X75225537Y-65551082D01*
X75158427Y-65595924D01*
X75087249Y-65633969D01*
X75024858Y-65685171D01*
X74957748Y-65730013D01*
X74900680Y-65787081D01*
X74838286Y-65838286D01*
X74787080Y-65900681D01*
X74730013Y-65957748D01*
X74685174Y-66024854D01*
X74633969Y-66087248D01*
X74595921Y-66158431D01*
X74551082Y-66225537D01*
X74520196Y-66300102D01*
X74482148Y-66371285D01*
X74458719Y-66448521D01*
X74427832Y-66523088D01*
X74412086Y-66602249D01*
X74388657Y-66679484D01*
X74380746Y-66759807D01*
X74372128Y-66803134D01*
X72822762Y-68352500D01*
X69772549Y-68352500D01*
X70356045Y-68175498D01*
X71420448Y-67606563D01*
X72353405Y-66840905D01*
X73119063Y-65907949D01*
X73687998Y-64843546D01*
X74038347Y-63688602D01*
X74069691Y-63370365D01*
X74857147Y-63527000D01*
X76142853Y-63527000D01*
X77403856Y-63276171D01*
X78591694Y-62784152D01*
X79660720Y-62069852D01*
X80569852Y-61160720D01*
X81284152Y-60091694D01*
X81776171Y-58903856D01*
X82027000Y-57642853D01*
X82027000Y-56357147D01*
X81776171Y-55096144D01*
X81284152Y-53908306D01*
X80569852Y-52839280D01*
X79660720Y-51930148D01*
X78591694Y-51215848D01*
X77403856Y-50723829D01*
X76142853Y-50473000D01*
X74857147Y-50473000D01*
X73596144Y-50723829D01*
X73236014Y-50873000D01*
X68300991Y-50873000D01*
X68000000Y-50843355D01*
X67699009Y-50873000D01*
X62094437Y-50873000D01*
X61779244Y-50704526D01*
X60907051Y-50439949D01*
X60000000Y-50350612D01*
X53160000Y-50350612D01*
X53160000Y-37000000D01*
X85857089Y-37000000D01*
X85861928Y-37049131D01*
X85861928Y-38000000D01*
X85874188Y-38124482D01*
X85910498Y-38244180D01*
X85969463Y-38354494D01*
X86048815Y-38451185D01*
X86145506Y-38530537D01*
X86255820Y-38589502D01*
X86375518Y-38625812D01*
X86500000Y-38638072D01*
X87294552Y-38638072D01*
X94505411Y-45848933D01*
X94556614Y-45911324D01*
X94805576Y-46115641D01*
X94955317Y-46195679D01*
X95089613Y-46267462D01*
X95397811Y-46360953D01*
X95718328Y-46392522D01*
X95798658Y-46384610D01*
X98365001Y-46384610D01*
X98365000Y-77080321D01*
X98388657Y-77320515D01*
X98482148Y-77628714D01*
X98633969Y-77912751D01*
X98838286Y-78161714D01*
X99087248Y-78366031D01*
X99371285Y-78517852D01*
X99679484Y-78611343D01*
X100000000Y-78642911D01*
X100320515Y-78611343D01*
X100628714Y-78517852D01*
X100912751Y-78366031D01*
X101161714Y-78161714D01*
X101366031Y-77912752D01*
X101517852Y-77628715D01*
X101611343Y-77320516D01*
X101635000Y-77080322D01*
X101635000Y-76200000D01*
X106181928Y-76200000D01*
X106181928Y-77800000D01*
X106194188Y-77924482D01*
X106230498Y-78044180D01*
X106289463Y-78154494D01*
X106368815Y-78251185D01*
X106465506Y-78330537D01*
X106575820Y-78389502D01*
X106695518Y-78425812D01*
X106820000Y-78438072D01*
X108420000Y-78438072D01*
X108544482Y-78425812D01*
X108664180Y-78389502D01*
X108774494Y-78330537D01*
X108871185Y-78251185D01*
X108950537Y-78154494D01*
X109009502Y-78044180D01*
X109045812Y-77924482D01*
X109058072Y-77800000D01*
X109058072Y-77760000D01*
X111034043Y-77760000D01*
X111044463Y-77779494D01*
X111123815Y-77876185D01*
X111220506Y-77955537D01*
X111330820Y-78014502D01*
X111450518Y-78050812D01*
X111575000Y-78063072D01*
X112425000Y-78063072D01*
X112549482Y-78050812D01*
X112669180Y-78014502D01*
X112779494Y-77955537D01*
X112876185Y-77876185D01*
X112955537Y-77779494D01*
X112965957Y-77760000D01*
X114462678Y-77760000D01*
X114500000Y-77763676D01*
X114537322Y-77760000D01*
X114537333Y-77760000D01*
X114648986Y-77749003D01*
X114792247Y-77705546D01*
X114924276Y-77634974D01*
X115040001Y-77540001D01*
X115063804Y-77510998D01*
X115814802Y-76760000D01*
X118045091Y-76760000D01*
X118051082Y-76774463D01*
X118230013Y-77042252D01*
X118457748Y-77269987D01*
X118725537Y-77448918D01*
X119023088Y-77572168D01*
X119338967Y-77635000D01*
X119661033Y-77635000D01*
X119976912Y-77572168D01*
X120274463Y-77448918D01*
X120542252Y-77269987D01*
X120769987Y-77042252D01*
X120948918Y-76774463D01*
X121072168Y-76476912D01*
X121135000Y-76161033D01*
X121135000Y-75838967D01*
X121072168Y-75523088D01*
X120948918Y-75225537D01*
X120769987Y-74957748D01*
X120542252Y-74730013D01*
X120274463Y-74551082D01*
X119976912Y-74427832D01*
X119661033Y-74365000D01*
X119338967Y-74365000D01*
X119023088Y-74427832D01*
X118725537Y-74551082D01*
X118457748Y-74730013D01*
X118230013Y-74957748D01*
X118051082Y-75225537D01*
X118045091Y-75240000D01*
X115537333Y-75240000D01*
X115500000Y-75236323D01*
X115462667Y-75240000D01*
X115351014Y-75250997D01*
X115207753Y-75294454D01*
X115075724Y-75365026D01*
X114959999Y-75459999D01*
X114936201Y-75488997D01*
X114185199Y-76240000D01*
X112965957Y-76240000D01*
X112955537Y-76220506D01*
X112876185Y-76123815D01*
X112779494Y-76044463D01*
X112669180Y-75985498D01*
X112549482Y-75949188D01*
X112425000Y-75936928D01*
X111575000Y-75936928D01*
X111450518Y-75949188D01*
X111330820Y-75985498D01*
X111220506Y-76044463D01*
X111123815Y-76123815D01*
X111044463Y-76220506D01*
X111034043Y-76240000D01*
X109058072Y-76240000D01*
X109058072Y-76200000D01*
X109045812Y-76075518D01*
X109009502Y-75955820D01*
X108950537Y-75845506D01*
X108871185Y-75748815D01*
X108774494Y-75669463D01*
X108664180Y-75610498D01*
X108544482Y-75574188D01*
X108420000Y-75561928D01*
X106820000Y-75561928D01*
X106695518Y-75574188D01*
X106575820Y-75610498D01*
X106465506Y-75669463D01*
X106368815Y-75748815D01*
X106289463Y-75845506D01*
X106230498Y-75955820D01*
X106194188Y-76075518D01*
X106181928Y-76200000D01*
X101635000Y-76200000D01*
X101635000Y-46384610D01*
X106643889Y-46384610D01*
X106846158Y-46492725D01*
X107154357Y-46586216D01*
X107314389Y-46601978D01*
X107363413Y-46661714D01*
X107612375Y-46866031D01*
X107896412Y-47017852D01*
X107904644Y-47020349D01*
X108204610Y-47111343D01*
X108525127Y-47142911D01*
X108605449Y-47135000D01*
X109262101Y-47135000D01*
X109479651Y-47352550D01*
X109870279Y-47613560D01*
X110304321Y-47793346D01*
X110765098Y-47885000D01*
X111234902Y-47885000D01*
X111695679Y-47793346D01*
X112129721Y-47613560D01*
X112334301Y-47476864D01*
X112334301Y-47922059D01*
X106912887Y-53343475D01*
X106850486Y-53394686D01*
X106646169Y-53643649D01*
X106494348Y-53927686D01*
X106400857Y-54235885D01*
X106382866Y-54418554D01*
X106369289Y-54556400D01*
X106377200Y-54636720D01*
X106377201Y-65431871D01*
X106369289Y-65512200D01*
X106400858Y-65832716D01*
X106494348Y-66140914D01*
X106494349Y-66140915D01*
X106646170Y-66424952D01*
X106850487Y-66673914D01*
X106912882Y-66725120D01*
X108615000Y-68427239D01*
X108615000Y-68734902D01*
X108706654Y-69195679D01*
X108886440Y-69629721D01*
X109147450Y-70020349D01*
X109479651Y-70352550D01*
X109870279Y-70613560D01*
X110304321Y-70793346D01*
X110765098Y-70885000D01*
X111234902Y-70885000D01*
X111695679Y-70793346D01*
X112129721Y-70613560D01*
X112520349Y-70352550D01*
X112852550Y-70020349D01*
X113113560Y-69629721D01*
X113293346Y-69195679D01*
X113385000Y-68734902D01*
X113385000Y-68265098D01*
X113293346Y-67804321D01*
X113113560Y-67370279D01*
X112852550Y-66979651D01*
X112520349Y-66647450D01*
X112129721Y-66386440D01*
X111695679Y-66206654D01*
X111234902Y-66115000D01*
X110927239Y-66115000D01*
X109647200Y-64834962D01*
X109647200Y-60225123D01*
X109668555Y-60242649D01*
X110082885Y-60464113D01*
X110532459Y-60600490D01*
X111000000Y-60646539D01*
X111467542Y-60600490D01*
X111917116Y-60464113D01*
X112331446Y-60242649D01*
X112694609Y-59944609D01*
X112992649Y-59581446D01*
X113214113Y-59167116D01*
X113350490Y-58717542D01*
X113385000Y-58367157D01*
X113385000Y-55632843D01*
X113350490Y-55282458D01*
X113214113Y-54832884D01*
X112992649Y-54418554D01*
X112694609Y-54055391D01*
X112331445Y-53757351D01*
X111917115Y-53535887D01*
X111478120Y-53402719D01*
X115068624Y-49812216D01*
X115131014Y-49761014D01*
X115335331Y-49512052D01*
X115487152Y-49228015D01*
X115580643Y-48919816D01*
X115604300Y-48679622D01*
X115612211Y-48599300D01*
X115604300Y-48518978D01*
X115604300Y-44342922D01*
X115612211Y-44262600D01*
X115580643Y-43942083D01*
X115487152Y-43633885D01*
X115435203Y-43536695D01*
X115335331Y-43349848D01*
X115131014Y-43100886D01*
X115068620Y-43049681D01*
X113469225Y-41450286D01*
X113418014Y-41387886D01*
X113169052Y-41183569D01*
X112885015Y-41031748D01*
X112576816Y-40938257D01*
X112336622Y-40914600D01*
X112336619Y-40914600D01*
X112256300Y-40906689D01*
X112175981Y-40914600D01*
X98397638Y-40914600D01*
X101212915Y-38099324D01*
X101366030Y-37912753D01*
X101517852Y-37628715D01*
X101611343Y-37320517D01*
X101642911Y-37000000D01*
X101611343Y-36679484D01*
X101517852Y-36371286D01*
X101426298Y-36200000D01*
X106181928Y-36200000D01*
X106181928Y-37800000D01*
X106194188Y-37924482D01*
X106230498Y-38044180D01*
X106289463Y-38154494D01*
X106368815Y-38251185D01*
X106465506Y-38330537D01*
X106575820Y-38389502D01*
X106695518Y-38425812D01*
X106820000Y-38438072D01*
X108420000Y-38438072D01*
X108544482Y-38425812D01*
X108664180Y-38389502D01*
X108774494Y-38330537D01*
X108871185Y-38251185D01*
X108950537Y-38154494D01*
X109009502Y-38044180D01*
X109045812Y-37924482D01*
X109057241Y-37808440D01*
X110946443Y-37808440D01*
X110956863Y-37827934D01*
X111036215Y-37924625D01*
X111132906Y-38003977D01*
X111243220Y-38062942D01*
X111362918Y-38099252D01*
X111487400Y-38111512D01*
X111900670Y-38111512D01*
X112649085Y-38859928D01*
X112672879Y-38888921D01*
X112701872Y-38912715D01*
X112701876Y-38912719D01*
X112772565Y-38970731D01*
X112788604Y-38983894D01*
X112920633Y-39054466D01*
X113063894Y-39097923D01*
X113175547Y-39108920D01*
X113175556Y-39108920D01*
X113212879Y-39112596D01*
X113250202Y-39108920D01*
X118113758Y-39108920D01*
X118151080Y-39112596D01*
X118188402Y-39108920D01*
X118707853Y-39108920D01*
X118838967Y-39135000D01*
X119161033Y-39135000D01*
X119476912Y-39072168D01*
X119774463Y-38948918D01*
X120042252Y-38769987D01*
X120269987Y-38542252D01*
X120448918Y-38274463D01*
X120572168Y-37976912D01*
X120635000Y-37661033D01*
X120635000Y-37338967D01*
X120572168Y-37023088D01*
X120448918Y-36725537D01*
X120269987Y-36457748D01*
X120042252Y-36230013D01*
X119774463Y-36051082D01*
X119476912Y-35927832D01*
X119161033Y-35865000D01*
X118838967Y-35865000D01*
X118523088Y-35927832D01*
X118225537Y-36051082D01*
X117957748Y-36230013D01*
X117730013Y-36457748D01*
X117551082Y-36725537D01*
X117427832Y-37023088D01*
X117365000Y-37338967D01*
X117365000Y-37588920D01*
X113527683Y-37588920D01*
X112975472Y-37036710D01*
X112975472Y-36623440D01*
X112963212Y-36498958D01*
X112926902Y-36379260D01*
X112867937Y-36268946D01*
X112788585Y-36172255D01*
X112691894Y-36092903D01*
X112581580Y-36033938D01*
X112461882Y-35997628D01*
X112337400Y-35985368D01*
X111487400Y-35985368D01*
X111362918Y-35997628D01*
X111243220Y-36033938D01*
X111132906Y-36092903D01*
X111036215Y-36172255D01*
X110956863Y-36268946D01*
X110946443Y-36288440D01*
X109058072Y-36288440D01*
X109058072Y-36200000D01*
X109045812Y-36075518D01*
X109009502Y-35955820D01*
X108950537Y-35845506D01*
X108871185Y-35748815D01*
X108774494Y-35669463D01*
X108664180Y-35610498D01*
X108544482Y-35574188D01*
X108420000Y-35561928D01*
X106820000Y-35561928D01*
X106695518Y-35574188D01*
X106575820Y-35610498D01*
X106465506Y-35669463D01*
X106368815Y-35748815D01*
X106289463Y-35845506D01*
X106230498Y-35955820D01*
X106194188Y-36075518D01*
X106181928Y-36200000D01*
X101426298Y-36200000D01*
X101366030Y-36087248D01*
X101161713Y-35838287D01*
X100912752Y-35633970D01*
X100628714Y-35482148D01*
X100320516Y-35388657D01*
X100000000Y-35357089D01*
X99679483Y-35388657D01*
X99371285Y-35482148D01*
X99087247Y-35633970D01*
X98900676Y-35787085D01*
X95540000Y-39147762D01*
X94215000Y-37822762D01*
X94215000Y-36838967D01*
X94199254Y-36759807D01*
X94191343Y-36679484D01*
X94167914Y-36602249D01*
X94152168Y-36523088D01*
X94121281Y-36448521D01*
X94097852Y-36371285D01*
X94059804Y-36300102D01*
X94028918Y-36225537D01*
X93984079Y-36158431D01*
X93946031Y-36087248D01*
X93894826Y-36024854D01*
X93849987Y-35957748D01*
X93792920Y-35900681D01*
X93741714Y-35838286D01*
X93679319Y-35787080D01*
X93622252Y-35730013D01*
X93555146Y-35685174D01*
X93492752Y-35633969D01*
X93421569Y-35595921D01*
X93354463Y-35551082D01*
X93279898Y-35520196D01*
X93208715Y-35482148D01*
X93131479Y-35458719D01*
X93056912Y-35427832D01*
X92977751Y-35412086D01*
X92900516Y-35388657D01*
X92820193Y-35380746D01*
X92741033Y-35365000D01*
X92660322Y-35365000D01*
X92580000Y-35357089D01*
X92499678Y-35365000D01*
X92418967Y-35365000D01*
X92339806Y-35380746D01*
X92259485Y-35388657D01*
X92182252Y-35412085D01*
X92103088Y-35427832D01*
X92028518Y-35458720D01*
X91951286Y-35482148D01*
X91880107Y-35520194D01*
X91805537Y-35551082D01*
X91738427Y-35595924D01*
X91667249Y-35633969D01*
X91604860Y-35685170D01*
X91537748Y-35730013D01*
X91480677Y-35787084D01*
X91418287Y-35838286D01*
X91367085Y-35900676D01*
X91310013Y-35957748D01*
X91265170Y-36024861D01*
X91213970Y-36087248D01*
X91175926Y-36158423D01*
X91131082Y-36225537D01*
X91100192Y-36300111D01*
X91062149Y-36371285D01*
X91038722Y-36448514D01*
X91007832Y-36523088D01*
X90992086Y-36602251D01*
X90968657Y-36679484D01*
X90960746Y-36759807D01*
X90945000Y-36838967D01*
X90945000Y-37664044D01*
X89181643Y-35900687D01*
X89130432Y-35838286D01*
X89109243Y-35820896D01*
X89089502Y-35755820D01*
X89030537Y-35645506D01*
X88951185Y-35548815D01*
X88854494Y-35469463D01*
X88744180Y-35410498D01*
X88624482Y-35374188D01*
X88500000Y-35361928D01*
X88017848Y-35361928D01*
X87968718Y-35357089D01*
X87919588Y-35361928D01*
X86500000Y-35361928D01*
X86375518Y-35374188D01*
X86255820Y-35410498D01*
X86145506Y-35469463D01*
X86048815Y-35548815D01*
X85969463Y-35645506D01*
X85910498Y-35755820D01*
X85874188Y-35875518D01*
X85861928Y-36000000D01*
X85861928Y-36950869D01*
X85857089Y-37000000D01*
X53160000Y-37000000D01*
X53160000Y-34660000D01*
X159340000Y-34660000D01*
X159340000Y-35032418D01*
%TD*%
M02*
