%FSLAX45Y45*%
G04 Gerber Fmt 4.5, Leading zero omitted, Abs format (unit mm)*
G04 Created by KiCad (PCBNEW 5.1.6-c6e7f7d~87~ubuntu20.04.1) date 2020-09-28 11:48:24*
%MOMM*%
%LPD*%
G01*
G04 APERTURE LIST*
%TA.AperFunction,Profile*%
%ADD10C,0.050000*%
%TD*%
%ADD11C,0.200000*%
%ADD12C,0.300000*%
G04 APERTURE END LIST*
D10*
X16000000Y-3500000D02*
X16000000Y-3400000D01*
X16000000Y-3400000D02*
X15750000Y-3400000D01*
X16000000Y-8000000D02*
X16000000Y-3500000D01*
X5250000Y-8000000D02*
X16000000Y-8000000D01*
X5250000Y-7750000D02*
X5250000Y-8000000D01*
X5250000Y-3400000D02*
X5250000Y-7750000D01*
X15750000Y-3400000D02*
X5250000Y-3400000D01*
D11*
D12*
X5533928Y-8468214D02*
X5533928Y-8168214D01*
X5605357Y-8168214D01*
X5648214Y-8182500D01*
X5676786Y-8211071D01*
X5691071Y-8239643D01*
X5705357Y-8296786D01*
X5705357Y-8339643D01*
X5691071Y-8396786D01*
X5676786Y-8425357D01*
X5648214Y-8453929D01*
X5605357Y-8468214D01*
X5533928Y-8468214D01*
X5833928Y-8468214D02*
X5833928Y-8268214D01*
X5833928Y-8325357D02*
X5848214Y-8296786D01*
X5862500Y-8282500D01*
X5891071Y-8268214D01*
X5919643Y-8268214D01*
X6019643Y-8468214D02*
X6019643Y-8268214D01*
X6019643Y-8168214D02*
X6005357Y-8182500D01*
X6019643Y-8196786D01*
X6033928Y-8182500D01*
X6019643Y-8168214D01*
X6019643Y-8196786D01*
X6205357Y-8468214D02*
X6176786Y-8453929D01*
X6162500Y-8425357D01*
X6162500Y-8168214D01*
X6362500Y-8468214D02*
X6333928Y-8453929D01*
X6319643Y-8425357D01*
X6319643Y-8168214D01*
X6705357Y-8468214D02*
X6705357Y-8168214D01*
X6805357Y-8382500D01*
X6905357Y-8168214D01*
X6905357Y-8468214D01*
X7176786Y-8468214D02*
X7176786Y-8311071D01*
X7162500Y-8282500D01*
X7133928Y-8268214D01*
X7076786Y-8268214D01*
X7048214Y-8282500D01*
X7176786Y-8453929D02*
X7148214Y-8468214D01*
X7076786Y-8468214D01*
X7048214Y-8453929D01*
X7033928Y-8425357D01*
X7033928Y-8396786D01*
X7048214Y-8368214D01*
X7076786Y-8353929D01*
X7148214Y-8353929D01*
X7176786Y-8339643D01*
X7319643Y-8268214D02*
X7319643Y-8568214D01*
X7319643Y-8282500D02*
X7348214Y-8268214D01*
X7405357Y-8268214D01*
X7433928Y-8282500D01*
X7448214Y-8296786D01*
X7462500Y-8325357D01*
X7462500Y-8411072D01*
X7448214Y-8439643D01*
X7433928Y-8453929D01*
X7405357Y-8468214D01*
X7348214Y-8468214D01*
X7319643Y-8453929D01*
X7591071Y-8439643D02*
X7605357Y-8453929D01*
X7591071Y-8468214D01*
X7576786Y-8453929D01*
X7591071Y-8439643D01*
X7591071Y-8468214D01*
X7591071Y-8282500D02*
X7605357Y-8296786D01*
X7591071Y-8311071D01*
X7576786Y-8296786D01*
X7591071Y-8282500D01*
X7591071Y-8311071D01*
M02*
